<svg width="40" height="40" viewBox="0 0 40 40" fill="none" xmlns="http://www.w3.org/2000/svg">
<g clip-path="url(#clip0_191_154)">
<path d="M37.6176 15.6156H36.2176C35.8424 14.2227 35.2878 12.8844 34.5677 11.6344L35.5583 10.6437C35.7799 10.4227 35.9555 10.16 36.075 9.87071C36.1944 9.58141 36.2553 9.27131 36.2541 8.95833C36.2553 8.6455 36.1944 8.33554 36.075 8.04641C35.9555 7.75728 35.7799 7.49472 35.5583 7.27395L32.727 4.4427C32.2798 3.99648 31.6739 3.74588 31.0421 3.74588C30.4104 3.74588 29.8044 3.99648 29.3572 4.4427L28.3666 5.43229C27.1165 4.71231 25.7783 4.15767 24.3854 3.78228V2.38333C24.3848 1.7514 24.1335 1.1455 23.6867 0.698662C23.2398 0.25182 22.634 0.000551663 22.002 0H17.9979C17.3661 0.00082738 16.7605 0.252218 16.3139 0.699031C15.8673 1.14584 15.6161 1.75158 15.6156 2.38333V3.78228C14.2228 4.1579 12.8845 4.71253 11.6343 5.43229L10.6437 4.4427C10.1965 3.99648 9.59053 3.74588 8.95878 3.74588C8.32703 3.74588 7.72111 3.99648 7.27391 4.4427L4.44264 7.27395C3.99641 7.72115 3.74582 8.3271 3.74582 8.95885C3.74582 9.59059 3.99641 10.1965 4.44264 10.6437L5.43329 11.6344C4.71284 12.8843 4.15784 14.2226 3.78224 15.6156H2.38326C1.75159 15.6164 1.14605 15.8677 0.6993 16.3142C0.252547 16.7608 0.00104129 17.3662 -6.10352e-05 17.9979V22.0021C0.000765808 22.6339 0.252161 23.2397 0.698944 23.6864C1.14573 24.1332 1.75141 24.3846 2.38326 24.3854H3.78224C4.15776 25.7784 4.71277 27.1167 5.43329 28.3667L4.44264 29.3573C3.99641 29.8045 3.74582 30.4104 3.74582 31.0422C3.74582 31.6739 3.99641 32.2799 4.44264 32.7271L7.27391 35.5583C7.72111 36.0046 8.32703 36.2552 8.95878 36.2552C9.59053 36.2552 10.1965 36.0046 10.6437 35.5583L11.6343 34.5677C12.8843 35.2882 14.2226 35.8431 15.6156 36.2187V37.6177C15.6164 38.2493 15.8676 38.8547 16.3142 39.3013C16.7608 39.7479 17.3663 39.9992 17.9979 40H22.002C22.6338 39.9994 23.2395 39.7483 23.6863 39.3017C24.1331 38.8551 24.3845 38.2495 24.3854 37.6177V36.2187C25.7779 35.8427 27.1157 35.2877 28.3656 34.5677L29.3562 35.5583C29.8034 36.0046 30.4093 36.2552 31.0411 36.2552C31.6728 36.2552 32.2788 36.0046 32.726 35.5583L35.5572 32.7271C35.7789 32.5061 35.9545 32.2433 36.0739 31.954C36.1933 31.6647 36.2543 31.3546 36.2531 31.0417C36.2543 30.7288 36.1934 30.4189 36.074 30.1297C35.9545 29.8406 35.7789 29.5781 35.5572 29.3573L34.5666 28.3667C35.287 27.1167 35.842 25.7784 36.2176 24.3854H37.6166C38.2483 24.3843 38.8537 24.1328 39.3003 23.6861C39.7468 23.2393 39.9981 22.6337 39.9989 22.0021V17.9979C39.9981 17.3663 39.7468 16.7609 39.3002 16.3143C38.8536 15.8677 38.2482 15.6164 37.6166 15.6156H37.6176ZM38.4374 22.0021C38.4372 22.2195 38.3508 22.428 38.1971 22.5818C38.0435 22.7357 37.8351 22.8224 37.6176 22.8229H35.6083C35.4315 22.8231 35.2601 22.8831 35.1218 22.9932C34.9835 23.1033 34.8866 23.257 34.8468 23.4292C34.4691 25.0737 33.8184 26.6434 32.9218 28.0729C32.8279 28.2226 32.7875 28.3998 32.8074 28.5754C32.8273 28.751 32.9062 28.9147 33.0312 29.0396L34.4531 30.4615C34.5292 30.5376 34.5895 30.6281 34.6304 30.7277C34.6714 30.8273 34.6922 30.934 34.6916 31.0417C34.6924 31.1494 34.6717 31.2562 34.6308 31.3558C34.5898 31.4554 34.5294 31.5459 34.4531 31.6219L31.6218 34.4531C31.4679 34.6066 31.2595 34.6928 31.0421 34.6928C30.8248 34.6928 30.6163 34.6066 30.4624 34.4531L29.0396 33.0312C28.914 32.907 28.75 32.8291 28.5744 32.8102C28.3988 32.7913 28.222 32.8325 28.0729 32.9271C26.6432 33.8233 25.0736 34.474 23.4291 34.8521C23.2568 34.8917 23.103 34.9886 22.9929 35.1269C22.8828 35.2652 22.8229 35.4367 22.8229 35.6135V37.6229C22.8226 37.8404 22.736 38.0489 22.5821 38.2027C22.4282 38.3564 22.2196 38.4427 22.002 38.4427H17.9979C17.7805 38.4424 17.5722 38.356 17.4185 38.2023C17.2648 38.0486 17.1784 37.8402 17.1781 37.6229V35.6135C17.1781 35.4367 17.1181 35.2652 17.008 35.1269C16.8979 34.9886 16.7441 34.8917 16.5718 34.8521C14.9272 34.4743 13.3576 33.8236 11.9281 32.9271C11.8033 32.8486 11.6588 32.8071 11.5114 32.8073C11.4087 32.8072 11.3069 32.8275 11.212 32.8668C11.1171 32.9061 11.0309 32.9638 10.9583 33.0365L9.53643 34.4583C9.38255 34.6118 9.17404 34.698 8.9567 34.698C8.73935 34.698 8.53089 34.6118 8.37701 34.4583L5.55307 31.6229C5.39952 31.4689 5.3133 31.2602 5.3133 31.0427C5.3133 30.8252 5.39952 30.6165 5.55307 30.4625L6.97493 29.0406C7.09914 28.9151 7.17711 28.7511 7.19603 28.5755C7.21496 28.3999 7.17371 28.2231 7.0791 28.074C6.18253 26.6443 5.53155 25.0747 5.15309 23.4302C5.11366 23.2578 5.01683 23.1039 4.87848 22.9938C4.74013 22.8836 4.56846 22.8238 4.39162 22.824H2.38326C2.16565 22.8237 1.95705 22.7371 1.80317 22.5832C1.6493 22.4294 1.56271 22.2207 1.56244 22.0031V17.9979C1.56271 17.7804 1.64932 17.5719 1.80322 17.4182C1.95713 17.2645 2.16574 17.1781 2.38326 17.1781H4.39162C4.5685 17.178 4.74013 17.118 4.87858 17.0079C5.01703 16.8979 5.11412 16.7442 5.1541 16.5719C5.53187 14.9273 6.18254 13.3576 7.0791 11.9281C7.17342 11.7787 7.21449 11.6018 7.19558 11.4261C7.17667 11.2504 7.09889 11.0863 6.97493 10.9604L5.55307 9.53958C5.39958 9.3857 5.31341 9.17723 5.31341 8.95989C5.31341 8.74255 5.39958 8.53408 5.55307 8.3802L8.38434 5.54895C8.53821 5.39546 8.74668 5.30926 8.96402 5.30926C9.18136 5.30926 9.38982 5.39546 9.5437 5.54895L10.9656 6.96979C11.0905 7.09506 11.2543 7.1742 11.4301 7.19426C11.6059 7.21432 11.7833 7.1741 11.9333 7.0802C13.3627 6.18328 14.9324 5.53225 16.577 5.15416C16.7494 5.11474 16.9033 5.01791 17.0134 4.87956C17.1236 4.74121 17.1835 4.56955 17.1833 4.39271V2.38438C17.1833 2.16686 17.2696 1.95823 17.4233 1.80433C17.5771 1.65042 17.7856 1.56382 18.0031 1.56354H22.0072C22.115 1.56354 22.2218 1.58476 22.3214 1.62601C22.4209 1.66727 22.5115 1.72774 22.5877 1.80396C22.6639 1.88018 22.7243 1.97066 22.7656 2.07025C22.8068 2.16984 22.8281 2.27658 22.8281 2.38438V4.39271C22.8279 4.56955 22.8877 4.74121 22.9979 4.87956C23.108 5.01791 23.2619 5.11474 23.4343 5.15416C25.0791 5.53178 26.6489 6.18284 28.0781 7.0802C28.228 7.17384 28.4051 7.2139 28.5807 7.19384C28.7562 7.17379 28.9198 7.09481 29.0447 6.96979L30.4677 5.54895C30.6215 5.39546 30.83 5.30926 31.0474 5.30926C31.2647 5.30926 31.4732 5.39546 31.627 5.54895L34.4583 8.3802C34.5345 8.45609 34.5948 8.54637 34.6358 8.64581C34.6767 8.74524 34.6974 8.85183 34.6968 8.95937C34.6976 9.06708 34.6769 9.17387 34.636 9.27349C34.595 9.37311 34.5346 9.46357 34.4583 9.53958L33.0364 10.9625C32.9114 11.0874 32.8325 11.2511 32.8126 11.4267C32.7927 11.6023 32.8331 11.7795 32.927 11.9292C33.8232 13.3589 34.4739 14.9285 34.852 16.5729C34.8916 16.7452 34.9885 16.899 35.1268 17.0091C35.2651 17.1192 35.4367 17.1792 35.6135 17.1792H37.6229C37.8402 17.1794 38.0486 17.2659 38.2022 17.4196C38.3559 17.5733 38.4424 17.7816 38.4427 17.999L38.4374 22.0021Z" fill="white"/>
<path d="M25.0927 29.6813C23.5219 30.5062 21.7742 30.9373 20 30.9376C17.1002 30.9342 14.3202 29.7808 12.2697 27.7304C10.2192 25.6799 9.06581 22.8998 9.0625 20.0001C9.06276 18.2261 9.49387 16.4788 10.3188 14.9084C10.4153 14.7251 10.4351 14.5109 10.3737 14.3131C10.3124 14.1152 10.1749 13.9497 9.99166 13.8532C9.80835 13.7566 9.59425 13.7369 9.39636 13.7982C9.19848 13.8596 9.03303 13.997 8.93646 14.1803C7.99363 15.9753 7.50069 17.9724 7.5 20.0001C7.50386 23.3141 8.82205 26.4913 11.1654 28.8346C13.5088 31.178 16.686 32.4962 20 32.5001C22.028 32.4995 24.0254 32.0065 25.8208 31.0636C26.0041 30.967 26.1416 30.8016 26.2029 30.6037C26.2642 30.4058 26.2445 30.1917 26.1479 30.0084C26.0513 29.8251 25.886 29.6877 25.6881 29.6263C25.4902 29.565 25.276 29.5848 25.0927 29.6813Z" fill="white"/>
<path d="M20 7.5C17.9721 7.50069 15.9746 7.99363 14.1792 8.93646C14.0884 8.98427 14.008 9.0495 13.9425 9.12843C13.8769 9.20736 13.8276 9.29843 13.7973 9.39645C13.767 9.49446 13.7564 9.59748 13.766 9.69962C13.7755 9.80175 13.8052 9.901 13.8531 9.99167C13.9009 10.0825 13.966 10.1631 14.0449 10.2287C14.1238 10.2943 14.2149 10.3438 14.3129 10.3741C14.4109 10.4045 14.514 10.4153 14.6161 10.4058C14.7183 10.3963 14.8176 10.3667 14.9083 10.3187C16.4788 9.49399 18.2261 9.06289 20 9.0625C22.8998 9.06581 25.6799 10.2192 27.7304 12.2697C29.7808 14.3201 30.9342 17.1002 30.9375 20C30.9391 21.7737 30.5101 23.5213 29.6875 25.0927C29.6396 25.1834 29.6101 25.2826 29.6006 25.3847C29.5911 25.4868 29.6018 25.5898 29.6322 25.6877C29.6626 25.7856 29.712 25.8766 29.7776 25.9554C29.8432 26.0342 29.9238 26.0993 30.0146 26.1469C30.1265 26.2064 30.2513 26.2375 30.3781 26.2375C30.5204 26.2376 30.6601 26.1989 30.782 26.1255C30.9039 26.052 31.0034 25.9467 31.0698 25.8208C32.0119 24.0252 32.5045 22.0278 32.5052 20C32.5017 16.6859 31.1835 13.5086 28.8401 11.1651C26.4966 8.82169 23.3193 7.50358 20.0052 7.5H20Z" fill="white"/>
<path d="M24.7833 14.3062C24.4367 14.3054 24.0934 14.3734 23.7732 14.506C23.453 14.6387 23.1623 14.8335 22.9177 15.0791L18.6781 19.3239L17.0875 17.7332C16.8432 17.4873 16.5524 17.2922 16.2322 17.1594C15.912 17.0266 15.5686 16.9585 15.2219 16.9593C14.875 16.9584 14.5314 17.0263 14.211 17.1592C13.8905 17.2921 13.5997 17.4872 13.3552 17.7332C12.8615 18.2286 12.5842 18.8995 12.5842 19.5989C12.5842 20.2983 12.8615 20.9691 13.3552 21.4645L16.8125 24.9207C17.0572 25.1661 17.348 25.3606 17.6682 25.4931C17.9884 25.6255 18.3316 25.6934 18.6781 25.6926C19.0246 25.6931 19.3678 25.6252 19.6879 25.4927C20.0081 25.3603 20.2989 25.1659 20.5438 24.9207L26.6542 18.8114C27.148 18.3158 27.4252 17.6448 27.4252 16.9452C27.4252 16.2457 27.148 15.5746 26.6542 15.0791C26.4095 14.8334 26.1185 14.6386 25.7981 14.5059C25.4777 14.3733 25.1343 14.3054 24.7875 14.3062H24.7833ZM25.5448 17.7062L19.4344 23.8166C19.2322 24.0176 18.9586 24.1305 18.6735 24.1305C18.3883 24.1305 18.1147 24.0176 17.9125 23.8166L14.4563 20.3593C14.2547 20.1573 14.1414 19.8837 14.1414 19.5983C14.1414 19.313 14.2547 19.0393 14.4563 18.8374C14.5562 18.7376 14.675 18.6586 14.8057 18.6049C14.9364 18.5513 15.0764 18.5241 15.2177 18.5249C15.3588 18.5243 15.4986 18.5516 15.6291 18.6052C15.7596 18.6588 15.8783 18.7377 15.9781 18.8374L18.1208 20.9812C18.1934 21.0538 18.2796 21.1113 18.3744 21.1506C18.4692 21.1899 18.5708 21.2102 18.6735 21.2102C18.7761 21.2102 18.8777 21.1899 18.9725 21.1506C19.0673 21.1113 19.1535 21.0538 19.226 20.9812L24.0229 16.1843C24.1227 16.0845 24.2413 16.0055 24.3718 15.9519C24.5024 15.8983 24.6422 15.871 24.7833 15.8718C24.9246 15.871 25.0646 15.8982 25.1953 15.9519C25.326 16.0055 25.4448 16.0845 25.5448 16.1843C25.6445 16.2842 25.7234 16.4028 25.777 16.5333C25.8307 16.6638 25.8579 16.8036 25.8573 16.9447C25.8582 17.086 25.831 17.226 25.7774 17.3568C25.7237 17.4875 25.6447 17.6062 25.5448 17.7062Z" fill="white"/>
<path d="M11.7136 12.4958C11.921 12.4956 12.1199 12.4132 12.2667 12.2666C12.3393 12.194 12.3969 12.1079 12.4362 12.0131C12.4755 11.9182 12.4957 11.8166 12.4957 11.714C12.4957 11.6113 12.4755 11.5097 12.4362 11.4149C12.3969 11.3201 12.3393 11.2339 12.2667 11.1614C12.1941 11.0888 12.108 11.0312 12.0131 10.9919C11.9183 10.9526 11.8167 10.9324 11.7141 10.9324C11.6114 10.9324 11.5098 10.9526 11.415 10.9919C11.3202 11.0312 11.234 11.0888 11.1614 11.1614C11.0888 11.2339 11.0313 11.3201 10.992 11.4149C10.9527 11.5097 10.9325 11.6113 10.9325 11.714C10.9325 11.8166 10.9527 11.9182 10.992 12.0131C11.0313 12.1079 11.0888 12.194 11.1614 12.2666C11.2339 12.3392 11.3199 12.3969 11.4146 12.4362C11.5094 12.4755 11.611 12.4958 11.7136 12.4958Z" fill="white"/>
<path d="M28.7875 27.6865C28.6285 27.5538 28.4233 27.4897 28.217 27.5083C28.0108 27.5268 27.8203 27.6265 27.6875 27.7854C27.6222 27.8645 27.5729 27.9557 27.5428 28.0538C27.5126 28.1518 27.5021 28.2549 27.5118 28.357C27.5214 28.4592 27.5511 28.5584 27.5991 28.6491C27.6472 28.7397 27.7126 28.8201 27.7917 28.8854C27.932 29.0026 28.1089 29.0667 28.2917 29.0667C28.4064 29.0669 28.5197 29.0418 28.6236 28.9932C28.7275 28.9445 28.8194 28.8736 28.8927 28.7855C28.9581 28.7064 29.0073 28.6152 29.0374 28.5171C29.0676 28.4191 29.0781 28.316 29.0685 28.2139C29.0588 28.1117 29.0291 28.0125 28.9811 27.9218C28.9331 27.8312 28.8676 27.7508 28.7886 27.6855L28.7875 27.6865Z" fill="white"/>
</g>
<defs>
<clipPath id="clip0_191_154">
<rect width="40" height="40" fill="white"/>
</clipPath>
</defs>
</svg>
