<svg width="40" height="35" viewBox="0 0 40 35" fill="none" xmlns="http://www.w3.org/2000/svg">
<g clip-path="url(#clip0_191_183)">
<path d="M38.182 19.0906C37.6352 19.0906 37.2727 19.4546 37.2727 20V31.8179C37.2727 32.3648 36.9094 32.7273 36.3641 32.7273H3.63672C3.08984 32.7273 2.72733 32.3632 2.72733 31.8179V20C2.72733 19.4531 2.36408 19.0906 1.81799 19.0906C1.27189 19.0906 0.909363 19.4546 0.909363 20V31.8179C0.909363 33.3632 2.09062 34.5453 3.63672 34.5453H36.3641C37.9094 34.5453 39.0906 33.3632 39.0906 31.8179V20C39.0906 19.4546 38.7274 19.0906 38.182 19.0906Z" fill="white"/>
<path d="M37.2758 6.36328H2.73046C1.18515 6.36328 0.00314331 7.54531 0.00314331 9.09062V14.9086C0.00683202 15.5185 0.214716 16.1096 0.593658 16.5875C0.972601 17.0655 1.50074 17.4027 2.09375 17.5453L16.3672 20.7273V23.6359C16.3672 24.1828 16.7305 24.5453 17.2758 24.5453H22.7305C23.2773 24.5453 23.6398 24.182 23.6398 23.6359V20.7273L37.9125 17.5453C38.5055 17.4027 39.0336 17.0655 39.4126 16.5875C39.7915 16.1096 39.9995 15.5185 40.0031 14.9086V9.09062C40 7.54531 38.818 6.36328 37.2758 6.36328ZM21.818 22.7297H18.182V19.093H21.818V22.7297ZM38.182 14.9109C38.182 15.3656 37.9094 15.7297 37.4547 15.8203L23.6367 18.9109V18.1844C23.6367 17.6375 23.2726 17.275 22.7273 17.275H17.2758C16.7289 17.275 16.3672 17.6383 16.3672 18.1844V18.9109L2.54846 15.8203C2.09377 15.7297 1.82111 15.3656 1.82111 14.9109V9.09297C1.82111 8.54609 2.18515 8.18437 2.73046 8.18437H37.2758C37.8227 8.18437 38.1852 8.54766 38.1852 9.09297L38.182 14.9109Z" fill="white"/>
<path d="M13.6367 4.54541C14.1836 4.54541 14.5453 4.18213 14.5453 3.63604V2.72979C14.5453 2.18291 14.9094 1.82041 15.4547 1.82041H24.5453C25.0922 1.82041 25.4547 2.18448 25.4547 2.72979V3.63838C25.4547 4.18526 25.818 4.54776 26.3641 4.54776C26.9102 4.54776 27.2727 4.18448 27.2727 3.63838V2.72979C27.2727 1.18448 26.0906 0.00244141 24.5453 0.00244141H15.4547C13.9094 0.00244141 12.7274 1.18448 12.7274 2.72979V3.63838C12.7274 4.18213 13.0906 4.54541 13.6367 4.54541Z" fill="white"/>
</g>
<defs>
<clipPath id="clip0_191_183">
<rect width="40" height="34.5453" fill="white"/>
</clipPath>
</defs>
</svg>
