<svg width="40" height="45" viewBox="0 0 40 45" fill="none" xmlns="http://www.w3.org/2000/svg">
<g clip-path="url(#clip0_191_161)">
<path d="M38.5465 16.1206H35.9143V15.8251C35.914 15.4714 35.7734 15.1323 35.5233 14.8822C35.2732 14.6321 34.9341 14.4915 34.5804 14.4912H29.3897C29.218 14.4912 29.0533 14.5594 28.9319 14.6808C28.8105 14.8022 28.7423 14.9669 28.7423 15.1386C28.7423 15.3103 28.8105 15.475 28.9319 15.5964C29.0533 15.7178 29.218 15.786 29.3897 15.786H34.5804C34.5906 15.7863 34.6002 15.7906 34.6073 15.7979C34.6144 15.8052 34.6184 15.8149 34.6184 15.8251V23.7228C34.6187 23.8946 34.6871 24.0592 34.8087 24.1806C34.9303 24.302 35.0951 24.3702 35.267 24.3702C35.4387 24.3702 35.6033 24.302 35.7247 24.1806C35.8461 24.0591 35.9143 23.8945 35.9143 23.7228V17.4155H38.5465C38.5673 17.4156 38.5879 17.4199 38.6071 17.428C38.6263 17.4361 38.6437 17.4479 38.6584 17.4627C38.673 17.4776 38.6846 17.4952 38.6924 17.5145C38.7002 17.5338 38.7042 17.5545 38.704 17.5753V40.1735C38.7034 40.8861 38.4201 41.5693 37.9163 42.0731C37.4124 42.577 36.7292 42.8603 36.0166 42.8609H3.98332C3.27067 42.8603 2.58734 42.577 2.08331 42.0732C1.57928 41.5694 1.29573 40.8862 1.29482 40.1735V17.5753C1.29482 17.5331 1.31147 17.4926 1.3412 17.4627C1.37092 17.4327 1.4113 17.4158 1.45349 17.4155H4.17192V39.5698C4.17283 40.0089 4.34775 40.4297 4.65834 40.7401C4.96893 41.0505 5.38989 41.2251 5.82898 41.2257H34.2573C34.6966 41.2251 35.1177 41.0503 35.4283 40.7397C35.7389 40.4291 35.9137 40.008 35.9143 39.5687V26.486C35.9145 26.4009 35.8979 26.3166 35.8654 26.2379C35.8329 26.1593 35.7853 26.0877 35.7251 26.0275C35.665 25.9673 35.5936 25.9195 35.515 25.8869C35.4363 25.8543 35.3521 25.8375 35.267 25.8375C35.1817 25.8373 35.0973 25.854 35.0186 25.8865C34.9398 25.9191 34.8682 25.9668 34.808 26.0271C34.7477 26.0874 34.7 26.1589 34.6675 26.2377C34.6349 26.3164 34.6182 26.4008 34.6184 26.486V35.8073H24.1392C23.4925 35.8073 22.8527 35.94 22.2593 36.1971C21.6659 36.4543 21.1316 36.8304 20.6894 37.3022V28.9216C20.6894 28.7498 20.6212 28.585 20.4998 28.4634C20.3785 28.3418 20.2138 28.2733 20.042 28.273C19.8701 28.2733 19.7055 28.3418 19.5841 28.4634C19.4627 28.585 19.3946 28.7498 19.3946 28.9216V37.301C18.9524 36.8292 18.4181 36.453 17.8247 36.1959C17.2313 35.9388 16.5915 35.8061 15.9448 35.8061H13.001C12.8293 35.8061 12.6646 35.8744 12.5432 35.9958C12.4218 36.1172 12.3536 36.2818 12.3536 36.4535C12.3536 36.6254 12.4218 36.7901 12.5432 36.9117C12.6645 37.0333 12.8292 37.1018 13.001 37.1021H15.9448C16.7513 37.1029 17.532 37.3861 18.1513 37.9027C18.7706 38.4193 19.1893 39.1365 19.3348 39.9298H5.82549C5.72982 39.9295 5.63817 39.8913 5.57052 39.8237C5.50287 39.756 5.46471 39.6644 5.4644 39.5687V37.1033H10.2378C10.4096 37.103 10.5742 37.0345 10.6956 36.9129C10.817 36.7913 10.8851 36.6265 10.8851 36.4547C10.8851 36.3697 10.8684 36.2855 10.8358 36.2069C10.8033 36.1284 10.7557 36.057 10.6955 35.9969C10.6354 35.9368 10.564 35.8891 10.4855 35.8566C10.4069 35.824 10.3228 35.8073 10.2378 35.8073H5.4644V15.8251C5.4644 15.82 5.46541 15.8149 5.46738 15.8102C5.46934 15.8054 5.47223 15.8011 5.47586 15.7975C5.47949 15.7938 5.4838 15.791 5.48855 15.789C5.49329 15.787 5.4984 15.786 5.50354 15.786H10.6931C10.7781 15.786 10.8623 15.7693 10.9408 15.7367C11.0194 15.7042 11.0908 15.6565 11.1509 15.5964C11.211 15.5363 11.2587 15.4649 11.2912 15.3864C11.3237 15.3078 11.3405 15.2236 11.3405 15.1386C11.3405 14.9669 11.2723 14.8022 11.1509 14.6808C11.0295 14.5594 10.8648 14.4912 10.6931 14.4912H5.50354C5.14975 14.4915 4.81052 14.6321 4.56024 14.8822C4.30997 15.1322 4.16905 15.4713 4.16844 15.8251V16.1206H1.45007C1.06456 16.1213 0.695035 16.2747 0.42255 16.5474C0.150065 16.8201 -0.00314446 17.1898 -0.00344849 17.5753V40.1735C-0.00223111 41.2296 0.417854 42.2421 1.16461 42.9888C1.91136 43.7356 2.92382 44.1557 3.97989 44.1569H36.0132C37.0693 44.1557 38.0818 43.7356 38.8285 42.9888C39.5753 42.2421 39.9953 41.2296 39.9966 40.1735V17.5753C39.9963 17.1898 39.8431 16.8201 39.5706 16.5474C39.2981 16.2747 38.9286 16.1213 38.543 16.1206H38.5465ZM24.1392 37.1033H34.6184V39.5698C34.6181 39.6655 34.5799 39.7572 34.5123 39.8248C34.4446 39.8925 34.353 39.9306 34.2573 39.9309H20.7503C20.8958 39.1375 21.3147 38.4201 21.9343 37.9035C22.5538 37.3869 23.3348 37.1037 24.1415 37.1033H24.1392Z" fill="white"/>
<path d="M11.4072 9.08786C11.578 9.10387 11.7481 9.05147 11.8803 8.94216C12.0124 8.83286 12.0958 8.67558 12.1121 8.50485C12.2976 6.53935 13.2085 4.71339 14.6673 3.3831C16.134 2.03777 18.0528 1.29282 20.0431 1.296C22.1546 1.29812 24.179 2.13751 25.6724 3.6301C27.1659 5.12268 28.0064 7.14661 28.0098 9.25805C28.0134 10.8995 27.5062 12.5014 26.5585 13.8416L26.5436 13.8646L22.3982 20.318C22.3323 20.4211 22.2968 20.5406 22.2958 20.663V21.5013C22.2955 21.5832 22.2629 21.6617 22.2049 21.7196C22.147 21.7776 22.0684 21.8103 21.9865 21.8106H21.9439L22.3568 14.8087H23.095C23.6002 14.8069 24.0843 14.6057 24.442 14.2489C24.7996 13.8921 25.002 13.4085 25.005 12.9033V12.8228C25.0044 12.3152 24.8025 11.8286 24.4436 11.4696C24.0847 11.1107 23.598 10.9088 23.0904 10.9082C22.6035 10.9099 22.1355 11.0969 21.7814 11.4311C21.4273 11.7653 21.2136 12.2218 21.1838 12.7078L21.1356 13.5185H18.8645L18.8162 12.7078C18.7869 12.2206 18.5728 11.7629 18.2177 11.4281C17.8626 11.0932 17.3931 10.9065 16.905 10.9059C16.397 10.9065 15.91 11.1087 15.551 11.4682C15.192 11.8276 14.9904 12.3148 14.9904 12.8228V12.901C14.9907 13.4088 15.1925 13.8957 15.5514 14.2549C15.9104 14.6141 16.3972 14.8162 16.905 14.8168H17.6421L18.0549 21.814C17.9816 21.8035 17.9144 21.7669 17.8659 21.711C17.8173 21.655 17.7905 21.5834 17.7904 21.5093V20.671C17.7894 20.5487 17.754 20.4291 17.6881 20.326L13.5426 13.8727L13.5277 13.8497C12.9334 13.009 12.5095 12.0601 12.28 11.0565C12.2414 10.8893 12.138 10.7442 11.9924 10.6532C11.8468 10.5622 11.6711 10.5327 11.5038 10.5713C11.4209 10.5902 11.3425 10.6254 11.2732 10.6747C11.2039 10.724 11.1449 10.7865 11.0997 10.8585C11.0546 10.9306 11.024 11.0109 11.0099 11.0948C10.9958 11.1787 10.9983 11.2645 11.0174 11.3475C11.2837 12.5099 11.7739 13.6094 12.4606 14.5845L16.4956 20.8665V21.5151C16.4958 21.8259 16.5863 22.13 16.7561 22.3903C16.926 22.6506 17.1679 22.8559 17.4523 22.9812V24.0771C17.4545 24.6301 17.6754 25.1599 18.0669 25.5505C18.4584 25.9412 18.9887 26.161 19.5418 26.1619H20.5445C21.0987 26.161 21.6299 25.9404 22.0217 25.5486C22.4136 25.1567 22.6341 24.6255 22.6351 24.0713V22.9755C22.919 22.8494 23.1604 22.6439 23.3301 22.3838C23.4999 22.1236 23.5908 21.8199 23.5918 21.5093V20.8608L27.6257 14.5787C28.723 13.0219 29.31 11.1628 29.3057 9.25805C29.3027 6.80249 28.3258 4.44839 26.5894 2.71216C24.8529 0.975923 22.4987 -0.000675134 20.0431 -0.00341383C17.729 -0.0056036 15.4983 0.860658 13.7922 2.42407C12.0968 3.97127 11.0383 6.09437 10.823 8.37951C10.815 8.46417 10.8237 8.5496 10.8487 8.6309C10.8737 8.71219 10.9145 8.78774 10.9688 8.85323C11.0231 8.91872 11.0897 8.97285 11.1649 9.01252C11.2402 9.05219 11.3225 9.07662 11.4072 9.08441V9.08786ZM22.4752 12.7883C22.4849 12.6307 22.5542 12.4827 22.6691 12.3743C22.7841 12.266 22.9359 12.2056 23.0938 12.2053C23.2581 12.2056 23.4156 12.271 23.5318 12.3872C23.648 12.5033 23.7134 12.6608 23.7137 12.8251V12.9033C23.7134 13.0676 23.648 13.2251 23.5318 13.3412C23.4156 13.4574 23.2581 13.5228 23.0938 13.5231H22.4326L22.4752 12.7883ZM16.9038 13.5231C16.7395 13.5228 16.5821 13.4574 16.4659 13.3412C16.3497 13.2251 16.2844 13.0676 16.284 12.9033V12.8228C16.2844 12.6585 16.3497 12.501 16.4659 12.3849C16.5821 12.2687 16.7395 12.2033 16.9038 12.203C17.0617 12.2033 17.2136 12.2637 17.3286 12.372C17.4435 12.4804 17.5129 12.6284 17.5225 12.786L17.565 13.5208L16.9038 13.5231ZM21.0585 14.8191L20.6457 21.8209H19.352L18.9392 14.8191H21.0585ZM21.3379 24.0736C21.3376 24.2844 21.2539 24.4864 21.105 24.6356C20.956 24.7847 20.7541 24.8688 20.5434 24.8694H19.5406C19.3299 24.8688 19.1279 24.7847 18.979 24.6356C18.8301 24.4864 18.7463 24.2844 18.746 24.0736V23.1157H21.3379V24.0736Z" fill="white"/>
<path d="M31.3894 4.9183C31.5465 4.91868 31.6983 4.8614 31.816 4.75731L33.2304 3.51655C33.2951 3.46024 33.3479 3.39168 33.3859 3.31483C33.4239 3.23798 33.4462 3.15436 33.4516 3.06881C33.4571 2.98327 33.4455 2.89749 33.4176 2.81644C33.3897 2.73539 33.3461 2.66067 33.2891 2.59661C33.1755 2.46779 33.0155 2.38928 32.8441 2.37828C32.6727 2.36729 32.504 2.42471 32.3749 2.53796L30.9616 3.77873C30.8968 3.83487 30.8438 3.90334 30.8056 3.98015C30.7674 4.05697 30.7449 4.1406 30.7393 4.22619C30.7338 4.31179 30.7453 4.39763 30.7732 4.47874C30.8011 4.55985 30.8448 4.6346 30.9018 4.69866C30.9629 4.76777 31.0379 4.82311 31.122 4.86097C31.2061 4.89884 31.2972 4.91838 31.3894 4.9183Z" fill="white"/>
<path d="M30.9616 8.82553L32.3749 10.0663C32.4931 10.1703 32.6452 10.2275 32.8027 10.2273C32.8948 10.2274 32.9859 10.2077 33.0698 10.1696C33.1537 10.1315 33.2285 10.0759 33.2891 10.0065C33.3463 9.94258 33.3903 9.8679 33.4184 9.78681C33.4464 9.70573 33.4581 9.61987 33.4526 9.53424C33.4471 9.4486 33.4247 9.36492 33.3866 9.28805C33.3484 9.21119 33.2953 9.1427 33.2304 9.08657L31.8172 7.8458C31.7533 7.78965 31.6789 7.74665 31.5984 7.71927C31.5178 7.69188 31.4326 7.68064 31.3477 7.68619C31.2628 7.69175 31.1798 7.71399 31.1035 7.75164C31.0272 7.78928 30.9591 7.8416 30.903 7.9056C30.8459 7.96959 30.8021 8.04429 30.7741 8.12535C30.7461 8.20642 30.7345 8.29224 30.74 8.37782C30.7454 8.46341 30.7678 8.54707 30.8059 8.62392C30.8439 8.70078 30.8969 8.76931 30.9616 8.82553Z" fill="white"/>
<path d="M6.85584 3.51653L8.27027 4.7573C8.38809 4.8612 8.53981 4.91845 8.69689 4.91829C8.78907 4.91822 8.88017 4.89862 8.96421 4.86076C9.04826 4.8229 9.1233 4.76764 9.18443 4.69865C9.24146 4.63459 9.28523 4.55983 9.31312 4.47872C9.34102 4.39761 9.35249 4.31177 9.34692 4.22618C9.34136 4.14059 9.31883 4.05695 9.28067 3.98014C9.24251 3.90332 9.18948 3.83485 9.12463 3.77871L7.71137 2.53795C7.64752 2.48173 7.57325 2.43865 7.49273 2.41117C7.41221 2.38369 7.32704 2.37235 7.24214 2.37779C7.15724 2.38324 7.07424 2.40537 6.99789 2.44291C6.92155 2.48046 6.85337 2.53268 6.79722 2.5966C6.74026 2.66066 6.69654 2.73537 6.66864 2.81643C6.64074 2.89748 6.62916 2.98325 6.63461 3.0688C6.64007 3.15434 6.66245 3.23796 6.70042 3.31481C6.73839 3.39166 6.79121 3.46022 6.85584 3.51653Z" fill="white"/>
<path d="M7.28363 10.2273C7.44107 10.2275 7.59315 10.1703 7.71137 10.0663L9.12463 8.82555C9.18934 8.76932 9.24226 8.70082 9.28033 8.62401C9.3184 8.5472 9.34091 8.4636 9.34647 8.37805C9.35203 8.2925 9.34054 8.20671 9.31273 8.12561C9.28492 8.04452 9.24132 7.96974 9.18443 7.90561C9.07102 7.77663 8.91112 7.6979 8.73973 7.68669C8.56835 7.67548 8.39952 7.7327 8.27027 7.84581L6.85584 9.08658C6.79121 9.14289 6.73839 9.21145 6.70042 9.2883C6.66245 9.36515 6.64007 9.44877 6.63461 9.53432C6.62916 9.61986 6.64074 9.70564 6.66864 9.78669C6.69654 9.86774 6.74026 9.94246 6.79722 10.0065C6.85783 10.0759 6.93258 10.1315 7.01648 10.1696C7.10038 10.2077 7.19149 10.2274 7.28363 10.2273Z" fill="white"/>
<path d="M14.3108 22.4682C14.3108 22.2965 14.2426 22.1318 14.1211 22.0104C13.9997 21.889 13.8351 21.8208 13.6634 21.8208H7.28243C7.11073 21.8208 6.94607 21.889 6.82465 22.0104C6.70324 22.1318 6.63504 22.2965 6.63504 22.4682C6.63504 22.6399 6.70324 22.8046 6.82465 22.926C6.94607 23.0474 7.11073 23.1156 7.28243 23.1156H13.6634C13.8351 23.1156 13.9997 23.0474 14.1211 22.926C14.2426 22.8046 14.3108 22.6399 14.3108 22.4682Z" fill="white"/>
<path d="M15.6378 25.1155H8.45419C8.36903 25.1153 8.2847 25.132 8.20601 25.1646C8.12732 25.1971 8.05584 25.2449 7.99568 25.3052C7.93552 25.3654 7.88784 25.437 7.85542 25.5157C7.82301 25.5945 7.80649 25.6789 7.8068 25.764C7.80665 25.8491 7.82328 25.9333 7.85576 26.012C7.88824 26.0906 7.93593 26.162 7.99607 26.2222C8.05622 26.2823 8.12768 26.33 8.20629 26.3625C8.28491 26.3949 8.36913 26.4116 8.45419 26.4114H15.6378C15.8095 26.4114 15.9741 26.3432 16.0955 26.2218C16.217 26.1004 16.2852 25.9357 16.2852 25.764C16.2853 25.6789 16.2687 25.5946 16.2362 25.5159C16.2037 25.4373 16.1561 25.3657 16.0959 25.3055C16.0358 25.2453 15.9644 25.1975 15.8858 25.1649C15.8072 25.1323 15.7229 25.1155 15.6378 25.1155Z" fill="white"/>
<path d="M15.6378 28.2708H8.45419C8.36907 28.2708 8.2848 28.2875 8.20618 28.3201C8.12756 28.3527 8.05615 28.4005 7.99601 28.4608C7.93588 28.521 7.88822 28.5925 7.85576 28.6712C7.82329 28.7499 7.80664 28.8342 7.80679 28.9193C7.80664 29.0044 7.82327 29.0886 7.85576 29.1672C7.88824 29.2458 7.93592 29.3173 7.99607 29.3774C8.05622 29.4376 8.12768 29.4853 8.20629 29.5177C8.28491 29.5502 8.36913 29.5669 8.45419 29.5667H15.6378C15.8095 29.5667 15.9741 29.4985 16.0955 29.3771C16.217 29.2557 16.2852 29.091 16.2852 28.9193C16.2852 28.7475 16.217 28.5827 16.0956 28.4611C15.9742 28.3395 15.8096 28.2711 15.6378 28.2708Z" fill="white"/>
<path d="M15.6378 31.4272H8.45419C8.36913 31.4271 8.28491 31.4437 8.20629 31.4762C8.12768 31.5087 8.05622 31.5564 7.99607 31.6165C7.93593 31.6767 7.88824 31.7481 7.85576 31.8267C7.82328 31.9053 7.80665 31.9896 7.8068 32.0747C7.80649 32.1598 7.82301 32.2442 7.85542 32.3229C7.88784 32.4017 7.93552 32.4733 7.99568 32.5335C8.05584 32.5938 8.12732 32.6416 8.20601 32.6741C8.2847 32.7067 8.36903 32.7234 8.45419 32.7232H15.6378C15.7229 32.7232 15.8072 32.7064 15.8858 32.6738C15.9644 32.6412 16.0358 32.5934 16.0959 32.5332C16.1561 32.4729 16.2037 32.4014 16.2362 32.3228C16.2687 32.2441 16.2853 32.1598 16.2852 32.0747C16.2852 31.903 16.217 31.7383 16.0955 31.6169C15.9741 31.4955 15.8095 31.4272 15.6378 31.4272Z" fill="white"/>
<path d="M33.45 22.4682C33.45 22.2965 33.3818 22.1318 33.2604 22.0104C33.139 21.889 32.9743 21.8208 32.8026 21.8208H26.4217C26.3367 21.8208 26.2525 21.8375 26.174 21.8701C26.0954 21.9026 26.024 21.9503 25.9639 22.0104C25.9038 22.0705 25.8561 22.1419 25.8236 22.2205C25.7911 22.299 25.7743 22.3832 25.7743 22.4682C25.7743 22.5532 25.7911 22.6374 25.8236 22.716C25.8561 22.7945 25.9038 22.8659 25.9639 22.926C26.024 22.9861 26.0954 23.0338 26.174 23.0663C26.2525 23.0989 26.3367 23.1156 26.4217 23.1156H32.8026C32.9743 23.1156 33.139 23.0474 33.2604 22.926C33.3818 22.8046 33.45 22.6399 33.45 22.4682Z" fill="white"/>
<path d="M31.632 25.1155H24.4485C24.3634 25.1155 24.2791 25.1323 24.2005 25.1649C24.1218 25.1975 24.0504 25.2453 23.9902 25.3055C23.9301 25.3657 23.8825 25.4372 23.85 25.5159C23.8175 25.5946 23.8009 25.6789 23.801 25.764C23.801 25.9357 23.8693 26.1004 23.9907 26.2218C24.1121 26.3432 24.2768 26.4114 24.4485 26.4114H31.632C31.8038 26.4114 31.9686 26.3433 32.0902 26.2219C32.2118 26.1005 32.2803 25.9358 32.2806 25.764C32.2806 25.6789 32.2638 25.5945 32.2312 25.5158C32.1986 25.4372 32.1508 25.3657 32.0906 25.3054C32.0304 25.2452 31.9589 25.1974 31.8802 25.1648C31.8015 25.1323 31.7172 25.1155 31.632 25.1155Z" fill="white"/>
<path d="M31.632 28.2708H24.4485C24.2767 28.2711 24.112 28.3395 23.9906 28.4611C23.8692 28.5827 23.801 28.7475 23.801 28.9193C23.801 29.091 23.8693 29.2557 23.9907 29.3771C24.1121 29.4985 24.2768 29.5667 24.4485 29.5667H31.632C31.8038 29.5667 31.9686 29.4985 32.0902 29.3772C32.2118 29.2558 32.2803 29.0911 32.2806 28.9193C32.2803 28.7474 32.2118 28.5826 32.0903 28.461C31.9687 28.3395 31.8039 28.2711 31.632 28.2708Z" fill="white"/>
<path d="M31.632 31.4272H24.4485C24.2768 31.4272 24.1121 31.4955 23.9907 31.6169C23.8693 31.7383 23.801 31.9029 23.801 32.0747C23.8009 32.1598 23.8175 32.2441 23.85 32.3228C23.8825 32.4014 23.9301 32.4729 23.9902 32.5332C24.0504 32.5934 24.1218 32.6412 24.2005 32.6738C24.2791 32.7064 24.3634 32.7232 24.4485 32.7232H31.632C31.7172 32.7232 31.8015 32.7064 31.8802 32.6738C31.9589 32.6412 32.0304 32.5935 32.0906 32.5333C32.1508 32.473 32.1986 32.4015 32.2312 32.3228C32.2638 32.2442 32.2806 32.1598 32.2806 32.0747C32.2803 31.9028 32.2118 31.7382 32.0902 31.6168C31.9686 31.4954 31.8038 31.4272 31.632 31.4272Z" fill="white"/>
</g>
<defs>
<clipPath id="clip0_191_161">
<rect width="40" height="44.157" fill="white"/>
</clipPath>
</defs>
</svg>
