<svg width="40" height="41" viewBox="0 0 40 41" fill="none" xmlns="http://www.w3.org/2000/svg">
<g clip-path="url(#clip0_191_178)">
<path d="M24.0322 7.25922H22.0161V5.24309C22.0161 5.06485 21.9453 4.89391 21.8193 4.76788C21.6933 4.64185 21.5223 4.57104 21.3441 4.57104H18.6559C18.4777 4.57104 18.3067 4.64185 18.1807 4.76788C18.0547 4.89391 17.9839 5.06485 17.9839 5.24309V7.25922H15.9677C15.7895 7.25922 15.6186 7.33002 15.4925 7.45605C15.3665 7.58209 15.2957 7.75302 15.2957 7.93126V10.6194C15.2957 10.7977 15.3665 10.9686 15.4925 11.0946C15.6186 11.2207 15.7895 11.2915 15.9677 11.2915H17.9839V13.3076C17.9839 13.4858 18.0547 13.6568 18.1807 13.7828C18.3067 13.9088 18.4777 13.9796 18.6559 13.9796H21.3441C21.5223 13.9796 21.6933 13.9088 21.8193 13.7828C21.9453 13.6568 22.0161 13.4858 22.0161 13.3076V11.2915H24.0322C24.2105 11.2915 24.3814 11.2207 24.5075 11.0946C24.6335 10.9686 24.7043 10.7977 24.7043 10.6194V7.93126C24.7043 7.75302 24.6335 7.58209 24.5075 7.45605C24.3814 7.33002 24.2105 7.25922 24.0322 7.25922ZM23.3602 9.94739H21.3441C21.1658 9.94739 20.9949 10.0182 20.8689 10.1442C20.7428 10.2703 20.672 10.4412 20.672 10.6194V12.6356H19.3279V10.6194C19.3279 10.4412 19.2571 10.2703 19.1311 10.1442C19.0051 10.0182 18.8341 9.94739 18.6559 9.94739H16.6398V8.6033H18.6559C18.8341 8.6033 19.0051 8.5325 19.1311 8.40647C19.2571 8.28043 19.3279 8.1095 19.3279 7.93126V5.91513H20.672V7.93126C20.672 8.1095 20.7428 8.28043 20.8689 8.40647C20.9949 8.5325 21.1658 8.6033 21.3441 8.6033H23.3602V9.94739Z" fill="white"/>
<path d="M38.6358 10.8614C38.6492 10.7432 38.6559 10.6242 38.6559 10.5052C38.6526 9.88921 38.4389 9.29281 38.0503 8.8149C37.6616 8.33698 37.1212 8.00625 36.5188 7.87754C35.8374 7.74794 35.1322 7.88196 34.5458 8.2525C33.9595 8.62304 33.5357 9.20243 33.3602 9.87351L30.4032 18.3861C30.3596 18.4039 30.317 18.4241 30.2755 18.4465L24.3391 21.9277C23.4301 22.4618 22.6762 23.2237 22.1517 24.1383C21.6272 25.0529 21.3504 26.0885 21.3486 27.1428V33.4734C21.1703 33.4734 20.9994 33.5442 20.8733 33.6703C20.7473 33.7963 20.6765 33.9672 20.6765 34.1455V39.5218C20.6765 39.7 20.7473 39.871 20.8733 39.997C20.9994 40.123 21.1703 40.1939 21.3486 40.1939H30.7572C30.9354 40.1939 31.1063 40.123 31.2324 39.997C31.3584 39.871 31.4292 39.7 31.4292 39.5218V34.1455C31.4292 33.9672 31.3584 33.7963 31.2324 33.6703C31.1063 33.5442 30.9354 33.4734 30.7572 33.4734V31.9949C30.7585 31.7111 30.819 31.4307 30.9347 31.1715C31.0504 30.9123 31.2188 30.6801 31.4292 30.4895L35.9722 26.4506C36.4692 26.0158 36.825 25.4425 36.9937 24.8041L39.9059 13.8968C39.9685 13.6691 40.0002 13.434 40 13.1979C39.9974 12.7236 39.87 12.2584 39.6305 11.849C39.391 11.4396 39.0479 11.1006 38.6358 10.8659V10.8614ZM34.6438 10.27C34.7261 9.92236 34.9365 9.61854 35.233 9.41922C35.5295 9.2199 35.8903 9.13973 36.2433 9.19474C36.5445 9.25783 36.8149 9.42239 37.0094 9.66091C37.2039 9.89943 37.3107 10.1975 37.3118 10.5052V10.5187C36.7115 10.5296 36.1312 10.7365 35.6592 11.1077C35.1873 11.4789 34.8496 11.9942 34.6976 12.5751L32.8226 18.3614C32.54 18.2274 32.2372 18.1411 31.9265 18.106L34.6438 10.27ZM30.0806 38.8453H22.0161V34.813H30.0806V38.8453ZM38.6089 13.5429L35.6855 24.4568C35.5843 24.8361 35.374 25.1773 35.0806 25.438L30.5309 29.477C30.1794 29.7948 29.8983 30.1826 29.7054 30.6154C29.5125 31.0482 29.4122 31.5166 29.4108 31.9904V33.4689H22.6904V27.1383C22.6946 26.3195 22.9107 25.5158 23.3178 24.8054C23.725 24.0951 24.3091 23.5023 25.0134 23.0848L30.9498 19.6125C31.1028 19.5233 31.2719 19.4652 31.4474 19.4416C31.6229 19.418 31.8013 19.4292 31.9724 19.4748C32.1436 19.5204 32.304 19.5994 32.4445 19.7072C32.5851 19.8151 32.7029 19.9496 32.7912 20.1031C32.966 20.4136 33.0142 20.7795 32.9256 21.1246C32.8789 21.295 32.7991 21.4546 32.6907 21.5941C32.5823 21.7336 32.4475 21.8504 32.2939 21.9378L28.4431 24.1623C28.2965 24.2548 28.1914 24.4004 28.1497 24.5686C28.1079 24.7369 28.1328 24.9147 28.2191 25.065C28.3057 25.2159 28.4475 25.3273 28.6147 25.3758C28.7818 25.4243 28.9612 25.406 29.1151 25.3249L32.9659 23.1004C33.2738 22.9259 33.5437 22.6915 33.7595 22.4111C33.9754 22.1306 34.1328 21.8097 34.2227 21.4674C34.4061 20.7798 34.3095 20.0475 33.9538 19.4311L33.9135 19.3706L35.9901 12.966C36.0724 12.6184 36.2829 12.3146 36.5793 12.1152C36.8758 11.9159 37.2366 11.8357 37.5896 11.8908C37.8908 11.9538 38.1613 12.1184 38.3558 12.3569C38.5502 12.5954 38.657 12.8935 38.6581 13.2012C38.6604 13.3194 38.6445 13.4373 38.6111 13.5507L38.6089 13.5429Z" fill="white"/>
<path d="M18.6559 33.4689V27.1382C18.6541 26.0839 18.3773 25.0483 17.8528 24.1338C17.3283 23.2192 16.5744 22.4572 15.6653 21.9232L9.72897 18.4353C9.68865 18.4151 9.64159 18.4017 9.60126 18.3815L6.66441 9.92047C6.49401 9.23938 6.07037 8.64889 5.47975 8.2693C4.88913 7.8897 4.176 7.74957 3.48566 7.87746C2.88324 8.00617 2.34289 8.3369 1.9542 8.81482C1.56552 9.29273 1.35182 9.88914 1.34856 10.5051C1.34857 10.6242 1.35532 10.7431 1.36874 10.8613C0.956739 11.0962 0.613757 11.4353 0.374291 11.8446C0.134826 12.254 0.00728931 12.7191 0.00447083 13.1933C0.00661291 13.4289 0.0359593 13.6634 0.091867 13.8922L3.01521 24.7928C3.18249 25.4337 3.53836 26.0097 4.03673 26.446L8.57302 30.485C8.78567 30.6741 8.95604 30.9059 9.073 31.1653C9.18997 31.4247 9.25089 31.7058 9.25179 31.9904V33.4689C9.07355 33.4689 8.90261 33.5397 8.77658 33.6657C8.65055 33.7917 8.57975 33.9627 8.57975 34.1409V39.5172C8.57975 39.6955 8.65055 39.8664 8.77658 39.9925C8.90261 40.1185 9.07355 40.1893 9.25179 40.1893H18.6604C18.8386 40.1893 19.0096 40.1185 19.1356 39.9925C19.2616 39.8664 19.3324 39.6955 19.3324 39.5172V34.1409C19.3324 33.9627 19.2616 33.7917 19.1356 33.6657C19.0096 33.5397 18.8386 33.4689 18.6604 33.4689H18.6559ZM2.68816 10.5074C2.68899 10.2006 2.79476 9.90326 2.98792 9.66486C3.18108 9.42647 3.45 9.26134 3.74998 9.19691C4.11222 9.1451 4.4807 9.23157 4.78206 9.43912C5.08342 9.64667 5.29557 9.96008 5.37633 10.317L8.07796 18.106C7.76728 18.1413 7.46454 18.2276 7.1819 18.3613L5.32033 12.6086C5.16873 12.0222 4.83031 11.501 4.35623 11.1239C3.88215 10.7468 3.29819 10.5343 2.69264 10.5186L2.68816 10.5074ZM9.46235 29.4792L4.91933 25.4368C4.6246 25.1745 4.41415 24.8307 4.3145 24.4489L1.38443 13.5417C1.35648 13.4273 1.3429 13.3099 1.34407 13.1922C1.3449 12.8854 1.45067 12.5881 1.64383 12.3497C1.83699 12.1113 2.10591 11.9462 2.4059 11.8817C2.766 11.8278 3.13315 11.9122 3.4336 12.1179C3.73404 12.3236 3.9455 12.6354 4.02552 12.9906L6.08874 19.3616L6.04837 19.422C5.69347 20.0387 5.59685 20.7707 5.77957 21.4583C5.87031 21.8012 6.02874 22.1224 6.24553 22.403C6.46233 22.6837 6.7331 22.9181 7.04189 23.0925L10.8927 25.317C11.0466 25.3981 11.226 25.4163 11.3932 25.3679C11.5603 25.3194 11.7021 25.208 11.7887 25.0571C11.875 24.9068 11.8999 24.7289 11.8581 24.5607C11.8164 24.3925 11.7113 24.2469 11.5647 24.1543L7.71393 21.9299C7.56035 21.8425 7.42549 21.7257 7.31709 21.5862C7.2087 21.4467 7.12888 21.2871 7.0822 21.1167C6.99367 20.7716 7.04185 20.4057 7.21663 20.0952C7.39401 19.7861 7.68692 19.56 8.03092 19.4668C8.20128 19.4206 8.37907 19.4084 8.55415 19.4309C8.72923 19.4534 8.89815 19.5101 9.05129 19.5979L14.9877 23.0791C15.6934 23.4966 16.2786 24.0902 16.6862 24.8017C17.0938 25.5132 17.3097 26.3183 17.3129 27.1382V33.4689H10.5925V31.9904C10.5913 31.5156 10.49 31.0465 10.2955 30.6135C10.101 30.1804 9.81752 29.7932 9.4635 29.4769L9.46235 29.4792ZM17.9839 38.8474H9.91935V34.8152H17.9839V38.8474Z" fill="white"/>
<path d="M29.5083 1.97133C28.8842 1.34643 28.143 0.850679 27.3271 0.512424C26.5113 0.174169 25.6368 4.11812e-05 24.7536 4.15101e-09C23.8705 0.000335381 22.9962 0.17471 22.1805 0.513155C21.3649 0.8516 20.6239 1.34748 20 1.97245C19.3763 1.34718 18.6354 0.851109 17.8197 0.512643C17.004 0.174177 16.1296 -3.10499e-05 15.2464 4.15101e-09C14.3635 0.000116269 13.4892 0.174396 12.6737 0.512858C11.8582 0.85132 11.1175 1.34732 10.4939 1.97245C9.23542 3.23253 8.52856 4.94063 8.52856 6.72155C8.52856 8.50247 9.23542 10.2106 10.4939 11.4707L19.5262 20.5029C19.6522 20.6288 19.823 20.6995 20.0011 20.6995C20.1792 20.6995 20.35 20.6288 20.476 20.5029L29.5083 11.4707C30.7672 10.2105 31.4743 8.50218 31.4743 6.72099C31.4743 4.9398 30.7672 3.23146 29.5083 1.97133ZM20 19.0771L11.4427 10.5208C10.6914 9.7685 10.1801 8.81032 9.97339 7.76743C9.76665 6.72454 9.87372 5.64376 10.2811 4.66174C10.6885 3.67972 11.3778 2.8405 12.262 2.25018C13.1462 1.65986 14.1855 1.34493 15.2487 1.34521C15.955 1.34271 16.6548 1.48098 17.3071 1.75195C17.9595 2.02292 18.5512 2.42115 19.0479 2.92339L19.5251 3.40054C19.6511 3.52639 19.8219 3.59708 20 3.59708C20.1781 3.59708 20.3489 3.52639 20.4749 3.40054L20.9543 2.92227C21.4533 2.42261 22.0459 2.02617 22.6982 1.75557C23.3505 1.48498 24.0496 1.34553 24.7558 1.34521C25.4621 1.34568 26.1613 1.4853 26.8136 1.75609C27.4659 2.02688 28.0584 2.42353 28.5574 2.92339C29.5638 3.93141 30.1291 5.29765 30.1291 6.72211C30.1291 8.14657 29.5638 9.51281 28.5574 10.5208L20 19.0771Z" fill="white"/>
</g>
<defs>
<clipPath id="clip0_191_178">
<rect width="40" height="40.1893" fill="white"/>
</clipPath>
</defs>
</svg>
