<svg width="72" height="77" viewBox="0 0 72 77" fill="none" xmlns="http://www.w3.org/2000/svg">
<g clip-path="url(#clip0_278_19)">
<path d="M16.9649 59.7891L16.4123 59.2004C16.1752 59.4098 15.8655 59.5155 15.5514 59.4941C15.2376 59.4878 14.9388 59.3577 14.7187 59.1315C14.6096 59.01 14.5253 58.8679 14.4706 58.7133C14.4159 58.5588 14.3919 58.3949 14.4 58.2309C14.4046 58.0655 14.4431 57.9029 14.513 57.7532C14.5829 57.6036 14.6827 57.4703 14.806 57.3616C14.9223 57.2555 15.0584 57.174 15.2062 57.1218C15.3541 57.0696 15.5107 57.0477 15.667 57.0575C15.9868 57.0727 16.2884 57.2124 16.5087 57.4473L17.096 56.9184C16.7282 56.5265 16.2283 56.2885 15.6953 56.2518C15.4309 56.2318 15.1653 56.2695 14.9166 56.3624C14.6679 56.4552 14.4417 56.6009 14.2535 56.7898C14.0516 56.9635 13.8895 57.1797 13.7786 57.4232C13.6676 57.6666 13.6105 57.9316 13.611 58.1997C13.5945 58.4626 13.6304 58.7261 13.7168 58.9746C13.8031 59.2231 13.938 59.4514 14.1134 59.6461C14.484 60.0339 14.9856 60.2659 15.518 60.2958C15.7811 60.312 16.0449 60.2754 16.2941 60.1882C16.5433 60.101 16.773 59.9649 16.97 59.7877L16.9649 59.7891ZM23.0662 56.626C22.8025 56.5981 22.536 56.6303 22.2863 56.7202C22.0366 56.8102 21.8099 56.9556 21.6231 57.1458C21.4241 57.3159 21.2628 57.5265 21.1496 57.7638C21.0365 58.0012 20.9741 58.26 20.9665 58.5233C20.9518 58.7925 20.9903 59.062 21.0799 59.3159C21.1695 59.5699 21.3083 59.8032 21.4882 60.0022C21.6653 60.1985 21.8795 60.3571 22.118 60.4686C22.3565 60.5802 22.6147 60.6425 22.8773 60.6519C23.4056 60.6833 23.9262 60.5116 24.3345 60.1711C24.7316 59.7423 24.9629 59.3095 24.9963 58.7338C25.0096 58.4694 24.9701 58.205 24.8803 57.9563C24.7904 57.7076 24.652 57.4797 24.4733 57.2862C24.3011 57.0779 24.0859 56.9103 23.8428 56.7952C23.5997 56.68 23.3346 56.6201 23.0662 56.6195V56.626ZM23.0225 57.4057C23.1842 57.4082 23.3435 57.4451 23.4901 57.514C23.6367 57.583 23.7672 57.6825 23.8732 57.806C24.0845 58.053 24.1968 58.371 24.188 58.6975C24.1681 59.0154 24.0278 59.3133 23.7961 59.5291C23.5503 59.7398 23.2381 59.8546 22.9159 59.8527C22.5973 59.8371 22.297 59.6974 22.078 59.4629C21.8673 59.2172 21.7583 58.8988 21.7734 58.574C21.7797 58.4149 21.817 58.2586 21.8831 58.1141C21.9493 57.9695 22.043 57.8397 22.159 57.7319C22.2744 57.6219 22.4106 57.5365 22.5594 57.4809C22.7082 57.4253 22.8666 57.4006 23.0251 57.4083L23.0225 57.4057ZM29.4785 56.8483L29.2703 60.9391L30.0593 60.9976L30.1493 59.3082L31.2158 60.9976L32.4289 59.4603L32.3518 61.0964L33.1408 61.1353L33.3438 57.0133L31.2878 59.637L29.4785 56.8483ZM37.6949 61.3692L38.4878 61.3991L38.5456 60.1854L39.1354 60.214C39.5017 60.2296 39.86 60.1037 40.1378 59.8618C40.2777 59.742 40.391 59.5938 40.4705 59.4268C40.55 59.2597 40.5938 59.0777 40.5991 58.8924C40.6139 58.517 40.4808 58.1511 40.229 57.8749C40.1068 57.7413 39.9596 57.6335 39.7959 57.5579C39.6323 57.4823 39.4554 57.4403 39.2755 57.4343L37.8916 57.3655L37.7528 60.136L37.6949 61.3692ZM39.8088 58.8716C39.7904 59.0285 39.7139 59.1724 39.5946 59.2745C39.4754 59.3765 39.3223 59.429 39.1663 59.4213L38.5803 59.381L38.6394 58.1672L39.2344 58.1984C39.5389 58.2075 39.8139 58.5519 39.8049 58.8716H39.8088ZM43.9068 61.6642L44.7587 61.6915L45.0491 61.0964L46.4138 61.1925L46.6644 61.8007L47.5164 61.8397L45.8908 57.6903L43.9068 61.6642ZM45.4038 60.4024L45.8137 59.6084L46.144 60.4505L45.4038 60.4024ZM52.0949 57.9736L51.9124 62.0359L52.6835 62.0931L52.7696 59.8917L55.0826 62.2893L55.2574 58.1984L54.4928 58.1595L54.3643 60.3686L52.0949 57.9736ZM59.6766 58.4233L60.7702 60.7819L60.7123 62.4855L61.4962 62.5245L61.572 60.8105L62.8981 58.5792L61.9986 58.5519L61.234 59.8813L60.5568 58.5012L59.6766 58.4233Z" fill="#141515"/>
<path fill-rule="evenodd" clip-rule="evenodd" d="M70.8612 11.394C72.5896 5.31877 71.2467 2.30911 64.5646 1.82959C52.5483 0.962813 34.7032 9.20172 22.6098 18.2164C25.1631 23.1221 27.6664 28.0693 30.1838 32.9009C30.4279 33.3584 30.7903 34.0848 31.2118 34.8671C32.0278 32.7528 32.8361 30.4267 33.715 28.5658C36.9276 21.6874 46.0731 5.63845 54.5324 6.09588C70.8651 6.98475 69.0301 52.6353 66.9599 64.444C66.4164 67.5628 63.8283 81.3454 57.8735 75.6198L56.4715 73.9148C59.0724 76.5359 61.3662 78.0863 63.1871 73.907C68.1987 62.383 64.1907 28.0447 57.7681 16.874C54.233 10.7131 52.5663 12.9833 48.3746 18.1982C41.5125 26.7412 40.4588 30.8997 36.3802 40.5408C34.7687 44.347 31.659 46.434 28.3256 43.2619C26.3313 41.3659 19.2174 26.8179 17.4029 23.3573C17.3052 23.1741 17.1934 22.9675 17.0816 22.7517C16.2168 23.5483 15.4111 24.3371 14.6696 25.1129C12.2628 27.6496 10.0731 30.2148 8.68527 33.0919C8.4 37.9261 7.91425 43.7479 6.55855 45.6647C5.27352 47.484 1.36319 47.0942 0.526642 43.7271C-0.527079 39.4699 0.0588976 35.3739 1.65619 31.5897C2.46447 21.1092 3.76234 7.13288 6.47503 3.42538C9.21599 -0.323717 12.9952 0.853644 15.1644 4.58194C16.7539 7.31092 18.2947 10.101 19.8162 12.9261C32.0959 5.68784 54.8036 -2.86166 66.8751 0.923815C72.6487 2.72754 72.8441 6.26611 70.8587 11.3901L70.8612 11.394ZM14.0104 16.8208C13.0132 14.9183 11.9672 12.9521 11.0394 11.2809C10.4676 13.967 10.0217 17.4055 9.67988 20.5218C11.0546 19.208 12.5003 17.9724 14.0104 16.8208Z" fill="#DD2A1B"/>
<path d="M0.313538 60.1127H1.31072L1.62043 59.4109H3.18816L3.49784 60.1127H4.4963L2.40428 55.3942L0.313538 60.1127ZM1.98407 58.5909L2.40428 57.6098L2.8232 58.5909H1.98407ZM5.45364 60.2595C5.6084 60.2585 5.75654 60.1959 5.86597 60.0852C5.97541 59.9745 6.03732 59.8248 6.03833 59.6682C6.03601 59.5122 5.97368 59.3631 5.86453 59.2527C5.75538 59.1424 5.60799 59.0793 5.45364 59.077C5.29798 59.077 5.14859 59.139 5.03792 59.2497C4.92725 59.3605 4.86424 59.5108 4.86255 59.6682C4.86391 59.8258 4.92683 59.9764 5.03758 60.0871C5.14832 60.1979 5.29787 60.2599 5.45364 60.2595ZM6.58061 55.3721V60.1127H7.50328V58.1946L8.82301 60.0373L10.1517 58.1946V60.1127H11.0731V55.3721L8.82301 58.4909L6.58061 55.3721Z" fill="#DD2A1B"/>
<g style="mix-blend-mode:multiply">
<path fill-rule="evenodd" clip-rule="evenodd" d="M22.6087 18.2168C20.022 19.8295 17.565 22.0192 15.2841 24.5012C15.8559 23.9243 16.4509 23.3434 17.0831 22.756C17.1949 22.9743 17.3067 23.1783 17.4044 23.3616C18.142 24.7702 19.7573 28.0125 21.5473 31.4913C23.1832 29.1106 24.7509 26.8235 26.059 24.9119C24.9162 22.6785 23.7661 20.4468 22.6087 18.2168Z" fill="url(#paint0_linear_278_19)"/>
<path fill-rule="evenodd" clip-rule="evenodd" d="M1.49835 45.5484C2.99412 47.1533 5.56159 47.0857 6.56263 45.6692C7.91576 43.746 8.40408 37.9306 8.68935 33.0965C8.74846 32.9665 8.81785 32.8521 8.88082 32.73C5.7158 37.4329 3.18045 42.1501 1.49835 45.5484Z" fill="url(#paint1_linear_278_19)"/>
</g>
</g>
<defs>
<linearGradient id="paint0_linear_278_19" x1="22.5111" y1="25.2641" x2="15.925" y2="19.1508" gradientUnits="userSpaceOnUse">
<stop stop-color="white"/>
<stop offset="0.92"/>
</linearGradient>
<linearGradient id="paint1_linear_278_19" x1="7.54696" y1="41.3821" x2="0.962199" y2="35.2688" gradientUnits="userSpaceOnUse">
<stop stop-color="white"/>
<stop offset="0.92"/>
</linearGradient>
<clipPath id="clip0_278_19">
<rect width="72" height="77" fill="white"/>
</clipPath>
</defs>
</svg>
