<svg width="122" height="69" viewBox="0 0 122 69" fill="none" xmlns="http://www.w3.org/2000/svg">
<g clip-path="url(#clip0_278_28)">
<path fill-rule="evenodd" clip-rule="evenodd" d="M3.10088 34.0367C3.92284 34.0371 4.71109 34.3618 5.29246 34.9394C5.87382 35.517 6.20081 36.3004 6.20165 37.1174C6.20123 37.9349 5.87444 38.7188 5.29307 39.297C4.71171 39.8752 3.92326 40.2005 3.10088 40.2013C2.69355 40.2013 2.29021 40.1215 1.91391 39.9665C1.5376 39.8115 1.19571 39.5843 0.907758 39.2979C0.619807 39.0116 0.391494 38.6716 0.23576 38.2974C0.0800258 37.9233 -2.36798e-05 37.5223 0.000183507 37.1174C0.000601663 36.3002 0.327456 35.5166 0.908913 34.9389C1.49037 34.3612 2.27878 34.0367 3.10088 34.0367ZM7.67471 44.6224C9.17614 44.6229 10.616 45.2157 11.678 46.2708C12.7399 47.3258 13.3372 48.7568 13.3384 50.2492C13.338 51.7421 12.7411 53.1737 11.679 54.2292C10.6169 55.2847 9.17654 55.8776 7.67471 55.8776C6.93136 55.8774 6.19539 55.7317 5.5087 55.4487C4.82202 55.1657 4.19809 54.7511 3.67261 54.2285C3.14713 53.7058 2.73033 53.0854 2.44605 52.4026C2.16178 51.7199 2.01559 50.9882 2.01579 50.2492C2.01579 49.5099 2.16237 48.7779 2.44713 48.0949C2.73189 47.4119 3.14925 46.7914 3.67538 46.2688C4.20151 45.7463 4.82609 45.3319 5.5134 45.0494C6.20071 44.7669 6.93728 44.6218 7.68103 44.6224H7.67471ZM20.0809 55.6111C20.8244 55.6113 21.5605 55.7571 22.2473 56.0402C22.9341 56.3232 23.5581 56.738 24.0836 57.2608C24.6091 57.7836 25.0258 58.4042 25.31 59.0871C25.5942 59.7701 25.7402 60.502 25.7398 61.241C25.7398 62.7331 25.1437 64.164 24.0824 65.2192C23.0212 66.2744 21.5819 66.8674 20.0809 66.8678C18.5793 66.8678 17.1392 66.2751 16.0772 65.22C15.0151 64.1648 14.418 62.7336 14.4172 61.241C14.4172 60.5012 14.5639 59.7686 14.8489 59.0851C15.1339 58.4016 15.5517 57.7807 16.0783 57.2578C16.6049 56.735 17.23 56.3204 17.9179 56.0378C18.6057 55.7553 19.3429 55.6103 20.0872 55.6111H20.0809ZM37.7296 60.6907C38.8379 60.6911 39.9007 61.129 40.6845 61.9081C41.4682 62.6871 41.9087 63.7436 41.9091 64.8454C41.9087 65.9471 41.4682 67.0036 40.6845 67.7827C39.9007 68.5618 38.8379 68.9996 37.7296 69C36.6212 68.9996 35.5584 68.5618 34.7747 67.7827C33.9909 67.0036 33.5504 65.9471 33.55 64.8454C33.5502 64.2993 33.6587 63.7586 33.8692 63.2542C34.0797 62.7499 34.3881 62.2917 34.7769 61.9058C35.1656 61.52 35.627 61.2141 36.1347 61.0056C36.6425 60.7971 37.1865 60.6901 37.7359 60.6907H37.7296ZM54.3184 48.6423C55.8203 48.6431 57.2603 49.2365 58.3223 50.2922C59.3843 51.3478 59.9813 52.7793 59.9821 54.2722C59.9813 55.7648 59.3842 57.196 58.3221 58.2511C57.2601 59.3063 55.82 59.899 54.3184 59.899C52.8176 59.8982 51.3784 59.305 50.3173 58.2499C49.2562 57.1948 48.6599 55.7641 48.6595 54.2722C48.6599 52.7789 49.2569 51.3469 50.3193 50.2911C51.3817 49.2354 52.8225 48.6423 54.3247 48.6423H54.3184ZM46.7621 2.07889C47.4003 2.07848 48.0323 2.20307 48.6221 2.44556C49.2118 2.68805 49.7477 3.04367 50.1991 3.49211C50.6505 3.94054 51.0086 4.47301 51.2529 5.05907C51.4972 5.64513 51.623 6.2733 51.623 6.9077C51.623 7.54216 51.4972 8.1704 51.2529 8.75655C51.0086 9.3427 50.6506 9.87526 50.1992 10.3238C49.7478 10.7724 49.2119 11.1281 48.6222 11.3708C48.0324 11.6135 47.4004 11.7383 46.7621 11.738C45.4739 11.7372 44.2387 11.2279 43.3281 10.3222C42.4175 9.41638 41.9059 8.18824 41.9059 6.9077C41.9049 6.27251 42.0299 5.64337 42.2739 5.0563C42.5179 4.46923 42.876 3.93577 43.3276 3.48648C43.7793 3.03719 44.3157 2.6809 44.9061 2.43802C45.4966 2.19514 46.1294 2.07043 46.7684 2.07105L46.7621 2.07889ZM28.5724 0.00784946C29.6086 0.0082646 30.6021 0.41748 31.335 1.14563C32.0678 1.87377 32.4799 2.86131 32.4807 3.89127C32.4807 4.92206 32.0691 5.91071 31.3363 6.64003C30.6035 7.36935 29.6094 7.7797 28.5724 7.78095C27.5356 7.7797 26.5417 7.3693 25.8092 6.63993C25.0766 5.91057 24.6653 4.92192 24.6657 3.89127C24.6649 3.38016 24.7656 2.8739 24.9619 2.40152C25.1582 1.92914 25.4464 1.49993 25.8099 1.13845C26.1734 0.776969 26.605 0.490332 27.0802 0.294978C27.5553 0.0996241 28.0646 -0.000616587 28.5787 2.85343e-06L28.5724 0.00784946ZM12.6649 8.58208C13.0721 8.58188 13.4754 8.6614 13.8517 8.8161C14.228 8.97081 14.5699 9.19769 14.858 9.48376C15.1461 9.76982 15.3746 10.1095 15.5306 10.4834C15.6866 10.8573 15.7671 11.258 15.7673 11.6628C15.7675 12.0679 15.6874 12.4691 15.5316 12.8434C15.3758 13.2177 15.1472 13.5579 14.8591 13.8444C14.571 14.1309 14.229 14.3582 13.8525 14.5133C13.476 14.6684 13.0725 14.7482 12.6649 14.7482C12.2575 14.748 11.8542 14.668 11.4779 14.5129C11.1016 14.3577 10.7597 14.1304 10.4718 13.8439C10.1838 13.5574 9.95547 13.2173 9.79976 12.8431C9.64404 12.4688 9.56397 12.0678 9.56418 11.6628C9.56335 11.257 9.64314 10.855 9.79899 10.4799C9.95483 10.1048 10.1837 9.76398 10.4724 9.47702C10.7611 9.19006 11.1039 8.96259 11.4813 8.80766C11.8586 8.65274 12.263 8.57343 12.6713 8.57426L12.6649 8.58208ZM58.9001 12.7853C60.4782 12.7858 61.9916 13.4091 63.1075 14.5183C64.2233 15.6276 64.8504 17.1319 64.8509 18.7006C64.8504 20.2696 64.2235 21.7742 63.1077 22.884C61.9919 23.9937 60.4785 24.6178 58.9001 24.619C57.3208 24.619 55.8061 23.9956 54.689 22.8857C53.5719 21.7759 52.9439 20.2706 52.9431 18.7006C52.9425 17.9222 53.0963 17.1513 53.3958 16.4321C53.6954 15.7129 54.1347 15.0595 54.6886 14.5093C55.2425 13.9591 55.9002 13.5229 56.624 13.2257C57.3477 12.9286 58.1234 12.7763 58.9064 12.7775L58.9001 12.7853ZM3.90056 22.3865C4.21932 22.3863 4.53497 22.4485 4.82954 22.5695C5.12411 22.6906 5.39182 22.8682 5.61737 23.0921C5.84291 23.316 6.02187 23.5818 6.14404 23.8745C6.26622 24.1672 6.3292 24.4809 6.32941 24.7977C6.3292 25.1145 6.26616 25.4282 6.14397 25.7207C6.02177 26.0133 5.84285 26.2791 5.61729 26.5028C5.39173 26.7266 5.12395 26.904 4.82939 27.0249C4.53483 27.1458 4.21924 27.2078 3.90056 27.2074C3.25764 27.2074 2.64106 26.9536 2.18645 26.5016C1.73184 26.0497 1.47641 25.4368 1.47641 24.7977C1.47537 24.48 1.5375 24.1653 1.65923 23.8715C1.78097 23.5777 1.9599 23.3108 2.18576 23.086C2.41161 22.8612 2.67991 22.683 2.97527 22.5616C3.27063 22.4402 3.58726 22.378 3.90687 22.3786L3.90056 22.3865Z" fill="#4FBB83"/>
<path d="M118.309 35.2582C118.1 34.5423 117.65 33.9193 117.035 33.4929C116.388 33.0367 115.612 32.7988 114.819 32.814C113.957 32.7985 113.113 33.067 112.42 33.5776C111.99 33.8911 111.589 34.4571 111.222 35.2582H118.309ZM121.598 37.8216H111.075C111.196 38.6784 111.632 39.4603 112.299 40.0165C112.955 40.56 113.796 40.8328 114.822 40.8348C115.407 40.8427 115.988 40.7336 116.53 40.5141C117.072 40.2947 117.564 39.9692 117.977 39.5571L120.74 40.8474C120.112 41.762 119.26 42.5027 118.265 43C117.303 43.4703 116.166 43.6961 114.846 43.6961C112.799 43.6961 111.133 43.0548 109.848 41.7724C108.563 40.4899 107.918 38.8814 107.913 36.9467C107.913 34.9671 108.554 33.3236 109.838 32.016C111.127 30.7101 112.731 30.0563 114.666 30.0563C116.718 30.0563 118.39 30.7095 119.682 32.016C120.973 33.3225 121.616 35.0497 121.612 37.1976L121.598 37.8216ZM101.553 25.6147H104.818V30.3981H106.756V33.2013H104.818V43.37H101.553V33.2013H99.8736V30.3981H101.553V25.6147ZM91.1439 33.0649C90.6711 33.0532 90.2013 33.1423 89.766 33.3262C89.3307 33.5101 88.9401 33.7845 88.6204 34.131C87.9465 34.8428 87.6105 35.7536 87.6126 36.8636C87.6126 37.9909 87.9517 38.9018 88.6362 39.6339C88.9545 39.9835 89.3444 40.2613 89.7796 40.4487C90.2149 40.6361 90.6854 40.7287 91.1597 40.7204C91.6393 40.7327 92.1161 40.6436 92.5585 40.459C93.0008 40.2744 93.3987 39.9985 93.7258 39.6496C94.4071 38.941 94.7473 38.0092 94.7462 36.8542C94.7462 35.7286 94.4071 34.8161 93.7258 34.1169C93.3938 33.7707 92.9921 33.4979 92.547 33.3164C92.1019 33.1349 91.6233 33.0486 91.1424 33.0633L91.1439 33.0649ZM94.5885 30.3996H97.8517V43.3715H94.5885V41.9997C94.0307 42.548 93.3778 42.9915 92.6612 43.3088C91.9959 43.5761 91.2842 43.7109 90.5667 43.7055C88.8791 43.7055 87.4207 43.0559 86.1916 41.7567C84.9624 40.4575 84.3463 38.8411 84.3431 36.9075C84.3431 34.907 84.9382 33.2661 86.1285 31.9847C87.3193 30.7069 88.7703 30.0657 90.4705 30.0657C91.229 30.0616 91.9804 30.2115 92.6785 30.5062C93.3941 30.8216 94.0415 31.2714 94.5853 31.831L94.5885 30.3996ZM69.7872 30.3996H73.1183L76.4193 38.0536L79.6999 30.3996H83.0277L77.4682 43.3715H75.35L69.7872 30.3996ZM61.6411 33.1307C61.1666 33.1183 60.695 33.2059 60.257 33.3878C59.8191 33.5696 59.4248 33.8416 59.1002 34.1859C58.4221 34.8929 58.0877 35.7897 58.0877 36.8872C58.0877 38.016 58.4189 38.9253 59.0908 39.6292C59.4141 39.9726 59.8071 40.2437 60.2438 40.4248C60.6804 40.6059 61.1508 40.6927 61.6237 40.6796C62.1015 40.6919 62.5764 40.6036 63.0173 40.4204C63.4582 40.2372 63.8552 39.9633 64.182 39.6167C64.8586 38.908 65.2008 38.0003 65.2008 36.8872C65.2008 35.774 64.8664 34.8725 64.1977 34.1764C63.8701 33.8316 63.4728 33.5596 63.0319 33.3783C62.591 33.197 62.1165 33.1105 61.6395 33.1245L61.6411 33.1307ZM61.5859 30.0673C62.8061 30.0641 64.0055 30.3804 65.0636 30.9844C66.1204 31.5717 66.9974 32.4326 67.6013 33.4756C68.2042 34.5065 68.5185 35.6791 68.5113 36.8715C68.5154 38.077 68.1999 39.2623 67.5966 40.3081C67.0052 41.351 66.1401 42.2147 65.0935 42.8071C64.0304 43.408 62.8262 43.7185 61.6033 43.707C60.7098 43.7203 59.8231 43.5508 58.9983 43.2091C58.1735 42.8674 57.4282 42.3607 56.8086 41.7206C56.1659 41.0931 55.6585 40.342 55.3174 39.5132C54.9763 38.6843 54.8086 37.7951 54.8245 36.8997C54.8052 35.9436 54.9961 34.9949 55.3837 34.1198C55.7713 33.2446 56.3464 32.4641 57.0688 31.8326C58.2902 30.689 59.9064 30.0548 61.5843 30.061L61.5859 30.0673ZM40.7182 30.3996H43.9782V31.726C44.7258 31.0989 45.3977 30.6709 46.0049 30.4326C46.5904 30.1912 47.218 30.0671 47.8518 30.0673C48.4657 30.0559 49.0755 30.1696 49.6435 30.4015C50.2115 30.6334 50.7257 30.9785 51.1544 31.4156C51.9146 32.1775 52.2936 33.3068 52.2915 34.8036V43.3715H49.052V37.6883C49.052 36.1362 48.9857 35.1062 48.8422 34.5982C48.7355 34.141 48.4786 33.7322 48.112 33.4365C47.7405 33.1618 47.2862 33.0208 46.8235 33.0367C46.1906 33.0224 45.5778 33.2574 45.1185 33.6904C44.6091 34.1855 44.2636 34.8232 44.1281 35.5185C44.0319 35.9261 43.9814 36.8025 43.9814 38.1555V43.3621H40.7213L40.7182 30.3996ZM25.973 30.3996H29.2362V31.726C29.8378 31.1914 30.5208 30.7549 31.2598 30.4326C31.847 30.1916 32.4761 30.0675 33.1114 30.0673C33.7246 30.0562 34.3336 30.1701 34.9008 30.402C35.468 30.6339 35.9813 30.9789 36.4093 31.4156C37.1695 32.1775 37.5449 33.2969 37.5449 34.8036V43.3715H34.3101V37.6883C34.3101 36.1362 34.2391 35.1062 34.0972 34.5982C33.9918 34.1401 33.7339 33.7307 33.3653 33.4365C32.996 33.1622 32.5438 33.0212 32.0831 33.0367C31.446 33.0244 30.8298 33.2627 30.3687 33.6998C29.8626 34.1974 29.5177 34.834 29.3782 35.5279C29.2868 35.9355 29.2362 36.8119 29.2362 38.1649V43.3715H25.973V30.3996ZM19.2227 25.8327H22.5538V43.3715H19.2227V25.8327Z" fill="#304C5A"/>
<path d="M121.942 49.1422L121.506 49.5263C121.349 49.3147 121.191 49.2128 121.033 49.2128C120.964 49.2103 120.895 49.2325 120.841 49.2755C120.819 49.2914 120.801 49.3121 120.788 49.336C120.775 49.3599 120.768 49.3864 120.767 49.4134C120.764 49.4705 120.784 49.5263 120.82 49.5702C120.954 49.7121 121.098 49.8446 121.251 49.9669C121.476 50.1566 121.615 50.2804 121.664 50.3228C121.769 50.4228 121.855 50.54 121.92 50.6693C121.971 50.782 121.997 50.9045 121.995 51.0283C121.998 51.1458 121.976 51.2626 121.93 51.3708C121.883 51.4789 121.814 51.576 121.727 51.6554C121.539 51.8239 121.291 51.9123 121.038 51.9015C120.834 51.9074 120.633 51.8528 120.461 51.7448C120.278 51.6145 120.133 51.4388 120.04 51.2352L120.536 50.9389C120.686 51.2133 120.852 51.3481 121.051 51.3481C121.145 51.3508 121.236 51.3196 121.309 51.2603C121.34 51.2359 121.365 51.2049 121.383 51.1697C121.4 51.1344 121.41 51.0958 121.41 51.0565C121.409 50.9797 121.382 50.9054 121.334 50.8448C121.23 50.7286 121.114 50.6235 120.987 50.5313C120.742 50.3487 120.521 50.1347 120.331 49.8948C120.24 49.7641 120.189 49.61 120.185 49.4511C120.184 49.3466 120.206 49.2432 120.248 49.1478C120.291 49.0523 120.354 48.9671 120.432 48.8976C120.595 48.7439 120.813 48.6605 121.038 48.6656C121.192 48.6657 121.345 48.7033 121.481 48.7753C121.657 48.8756 121.811 49.0081 121.937 49.1657M115.751 48.744H116.314L117.649 50.7821V48.744H118.242V51.8372H117.674L116.339 49.8085V51.8372H115.751V48.744ZM112.215 49.2425C112.08 49.2398 111.946 49.265 111.821 49.3166C111.697 49.3681 111.584 49.4449 111.491 49.542C111.393 49.6422 111.316 49.7611 111.265 49.8915C111.214 50.0218 111.19 50.161 111.195 50.3008C111.189 50.4556 111.219 50.6097 111.284 50.7507C111.349 50.8917 111.446 51.0158 111.567 51.1129C111.752 51.2659 111.987 51.3481 112.228 51.345C112.361 51.3465 112.494 51.3205 112.617 51.2687C112.74 51.2169 112.85 51.1404 112.942 51.0439C113.04 50.9457 113.117 50.8288 113.168 50.7003C113.219 50.5717 113.243 50.4342 113.239 50.2961C113.242 50.1584 113.217 50.0215 113.166 49.8934C113.115 49.7653 113.039 49.6485 112.942 49.5498C112.852 49.4473 112.741 49.3649 112.617 49.3079C112.492 49.2509 112.357 49.2206 112.22 49.219L112.215 49.2425ZM112.223 48.6656C112.434 48.6627 112.644 48.703 112.838 48.7839C113.033 48.8648 113.209 48.9846 113.355 49.1359C113.509 49.2872 113.631 49.4681 113.712 49.6676C113.794 49.867 113.833 50.0809 113.829 50.2961C113.832 50.5088 113.792 50.72 113.71 50.9167C113.629 51.1135 113.508 51.2917 113.355 51.4406C113.208 51.5923 113.032 51.7123 112.836 51.7932C112.64 51.8741 112.43 51.9142 112.218 51.9109C112.001 51.9167 111.785 51.8769 111.583 51.7943C111.382 51.7116 111.201 51.5879 111.051 51.4312C110.902 51.2801 110.785 51.1012 110.706 50.9047C110.627 50.7082 110.589 50.4982 110.592 50.2867C110.59 50.0006 110.663 49.7189 110.805 49.4699C110.947 49.2248 111.151 49.0219 111.398 48.882C111.647 48.7268 111.934 48.6437 112.228 48.6421L112.223 48.6656ZM108.14 48.744H108.73V51.8372H108.14V48.744ZM104.7 48.744H106.417V49.3256H105.854V51.8341H105.252V49.3256H104.7V48.744ZM100.855 48.744H101.448V50.7445C101.442 50.8691 101.458 50.9938 101.495 51.1129C101.525 51.1851 101.577 51.2456 101.645 51.2854C101.723 51.3287 101.811 51.3503 101.9 51.3481C101.994 51.3501 102.087 51.3256 102.167 51.2776C102.237 51.2336 102.292 51.1696 102.325 51.0941C102.361 50.9566 102.374 50.8142 102.366 50.6724V48.744H102.96V50.5893C102.968 50.8058 102.951 51.0226 102.91 51.2352C102.868 51.3652 102.798 51.4845 102.705 51.5848C102.61 51.6923 102.494 51.7779 102.362 51.8357C102.219 51.891 102.065 51.9176 101.911 51.9141C101.704 51.918 101.499 51.8636 101.322 51.7573C101.165 51.6671 101.039 51.5315 100.962 51.3685C100.874 51.1168 100.837 50.8504 100.853 50.5846L100.855 48.744ZM97.612 48.744H98.205V51.2493H99.0709V51.809H97.612V48.744ZM94.0838 49.2425C93.9484 49.2398 93.8139 49.265 93.6887 49.3165C93.5636 49.368 93.4505 49.4448 93.3568 49.542C93.2594 49.6425 93.1833 49.7615 93.1332 49.8919C93.0831 50.0223 93.0599 50.1613 93.065 50.3008C93.0578 50.4553 93.0874 50.6094 93.1513 50.7505C93.2151 50.8915 93.3114 51.0157 93.4325 51.1129C93.6178 51.2652 93.8513 51.3474 94.0917 51.345C94.226 51.3468 94.3592 51.3211 94.483 51.2692C94.6068 51.2174 94.7184 51.1407 94.8109 51.0439C94.9081 50.9453 94.9844 50.8283 95.0353 50.6999C95.0863 50.5714 95.1108 50.4341 95.1074 50.2961C95.1108 50.1581 95.0859 50.0207 95.0344 49.8925C94.9829 49.7642 94.9058 49.6477 94.8078 49.5498C94.7183 49.4472 94.6079 49.3646 94.4839 49.3076C94.3599 49.2505 94.2252 49.2204 94.0886 49.219L94.0838 49.2425ZM94.0838 48.6656C94.2956 48.6628 94.5057 48.7031 94.7013 48.784C94.8968 48.8648 95.0737 48.9846 95.221 49.1359C95.3749 49.2873 95.4963 49.4682 95.5777 49.6676C95.659 49.8671 95.6986 50.0809 95.6941 50.2961C95.6983 50.5089 95.6585 50.7203 95.5771 50.9172C95.4957 51.1141 95.3745 51.2922 95.221 51.4406C95.0745 51.593 94.8978 51.7135 94.7021 51.7944C94.5063 51.8754 94.2958 51.915 94.0838 51.9109C93.8673 51.9164 93.6521 51.8765 93.4521 51.7938C93.2521 51.7112 93.0718 51.5876 92.923 51.4312C92.7735 51.2804 92.6555 51.1015 92.5759 50.9051C92.4963 50.7086 92.4567 50.4985 92.4593 50.2867C92.4565 50.0001 92.5312 49.7181 92.6754 49.4699C92.8166 49.2242 93.0221 49.021 93.27 48.882C93.5166 48.7274 93.8017 48.6443 94.0933 48.6421L94.0838 48.6656ZM90.6361 49.1657L90.1961 49.5498C90.0462 49.3382 89.8806 49.2363 89.7229 49.2363C89.6534 49.2341 89.5853 49.2563 89.5305 49.299C89.5093 49.3155 89.4919 49.3363 89.4796 49.3602C89.4674 49.384 89.4605 49.4102 89.4595 49.437C89.458 49.4931 89.4752 49.5482 89.5084 49.5937C89.646 49.7338 89.7913 49.8663 89.9437 49.9904C90.1692 50.1801 90.3081 50.3039 90.3538 50.3463C90.4603 50.4443 90.5465 50.562 90.6077 50.6928C90.6589 50.8055 90.6847 50.9281 90.6834 51.0518C90.6861 51.1688 90.6641 51.2851 90.6187 51.3932C90.5734 51.5012 90.5057 51.5985 90.42 51.6789C90.2315 51.8475 89.9841 51.9359 89.7308 51.9251C89.5269 51.9316 89.3257 51.877 89.1535 51.7683C88.9695 51.6393 88.824 51.4633 88.7324 51.2587L89.2292 50.9624C89.3759 51.2368 89.5447 51.3716 89.7434 51.3716C89.8375 51.3744 89.9294 51.3432 90.0021 51.2838C90.0331 51.2594 90.0582 51.2285 90.0756 51.1932C90.0931 51.158 90.1024 51.1193 90.103 51.08C90.1018 51.0023 90.0733 50.9274 90.0226 50.8683C89.9215 50.7506 89.8066 50.6453 89.6803 50.5548C89.434 50.3727 89.2133 50.1586 89.0242 49.9183C88.9331 49.7876 88.8821 49.6335 88.8775 49.4746C88.8761 49.37 88.8975 49.2664 88.9402 49.1708C88.983 49.0753 89.0461 48.9901 89.1252 48.9212C89.2883 48.7674 89.506 48.684 89.7308 48.6891C89.8853 48.6892 90.0375 48.7269 90.174 48.7989C90.3511 48.8835 90.5109 48.9999 90.6455 49.1422L90.6361 49.1657ZM84.187 48.744H85.884V49.3225H84.78V49.8791H85.884V50.445H84.78V51.2587H85.884V51.8372H84.187V48.744ZM82.3101 49.288L81.8953 49.6815C81.7774 49.546 81.6324 49.4364 81.4694 49.3597C81.3065 49.2831 81.1292 49.241 80.949 49.2363C80.8087 49.2345 80.6695 49.2614 80.5401 49.3153C80.4107 49.3693 80.2938 49.4491 80.1967 49.5498C80.0969 49.6466 80.0183 49.7628 79.9659 49.8913C79.9135 50.0197 79.8884 50.1576 79.8923 50.2961C79.8872 50.4876 79.9335 50.677 80.0264 50.8448C80.115 51.0039 80.2481 51.1341 80.4096 51.2195C80.5779 51.3138 80.7685 51.3614 80.9616 51.3575C81.1245 51.36 81.2859 51.3274 81.4348 51.2619C81.6122 51.1742 81.7724 51.0559 81.908 50.9122L82.3101 51.3309C82.1237 51.5265 81.9023 51.686 81.6572 51.8012C81.4341 51.8899 81.1955 51.9336 80.9553 51.9297C80.7369 51.9374 80.5191 51.9008 80.3153 51.8224C80.1114 51.744 79.9257 51.6253 79.7693 51.4735C79.6159 51.3201 79.4959 51.137 79.4167 50.9355C79.3374 50.734 79.3007 50.5185 79.3088 50.3024C79.3037 50.0143 79.3761 49.7302 79.5185 49.4793C79.6621 49.2356 79.8698 49.0356 80.1194 48.9008C80.3787 48.7566 80.6709 48.681 80.968 48.6813C81.2236 48.6822 81.476 48.7383 81.7077 48.8459C81.9381 48.9427 82.1463 49.0851 82.3196 49.2645L82.3101 49.288ZM76.8389 48.744H77.424V51.8372H76.8389V48.744ZM73.4527 48.744H74.9951V49.3178H74.0394V49.8791H74.9951V50.445H74.0394V51.8372H73.4527V48.744ZM70.0176 48.744H71.56V49.3178H70.6027V49.8791H71.56V50.445H70.6027V51.8372H70.0176V48.744ZM66.4783 49.2425C66.3429 49.2396 66.2083 49.2647 66.0831 49.3162C65.9579 49.3678 65.8449 49.4447 65.7513 49.542C65.6534 49.6422 65.5769 49.7612 65.5265 49.8916C65.4761 50.022 65.4527 50.1612 65.4579 50.3008C65.4523 50.4551 65.4825 50.6087 65.5462 50.7495C65.61 50.8904 65.7055 51.0147 65.8254 51.1129C66.0113 51.2653 66.2453 51.3475 66.4862 51.345C66.6205 51.3464 66.7536 51.3204 66.8773 51.2686C67.001 51.2168 67.1127 51.1403 67.2054 51.0439C67.3016 50.9448 67.377 50.8276 67.4271 50.6992C67.4772 50.5708 67.501 50.4338 67.4972 50.2961C67.5011 50.1583 67.4768 50.0211 67.4258 49.8928C67.3748 49.7645 67.2983 49.6479 67.2007 49.5498C67.1122 49.4477 67.0029 49.3653 66.88 49.3083C66.7571 49.2513 66.6234 49.2208 66.4878 49.219L66.4783 49.2425ZM66.4783 48.6656C66.6902 48.6626 66.9004 48.7028 67.0959 48.7837C67.2915 48.8646 67.4683 48.9845 67.6155 49.1359C67.7688 49.2878 67.8897 49.4687 67.971 49.6681C68.0523 49.8674 68.0923 50.081 68.0886 50.2961C68.0928 50.5089 68.053 50.7203 67.9716 50.9172C67.8902 51.1141 67.769 51.2922 67.6155 51.4406C67.4688 51.5927 67.292 51.7129 67.0964 51.7939C66.9007 51.8748 66.6903 51.9147 66.4783 51.9109C66.2615 51.9168 66.046 51.8771 65.8457 51.7944C65.6454 51.7117 65.4649 51.588 65.316 51.4312C65.1664 51.2804 65.0484 51.1015 64.9689 50.9051C64.8893 50.7086 64.8497 50.4985 64.8523 50.2867C64.8493 49.9999 64.9245 49.7176 65.0699 49.4699C65.2107 49.2244 65.4156 49.0212 65.663 48.882C65.9109 48.7266 66.1978 48.6434 66.491 48.6421L66.4783 48.6656Z" fill="#4FBB83"/>
</g>
<defs>
<clipPath id="clip0_278_28">
<rect width="122" height="69" fill="white"/>
</clipPath>
</defs>
</svg>
