<svg width="79" height="69" viewBox="0 0 79 69" fill="none" xmlns="http://www.w3.org/2000/svg">
<g clip-path="url(#clip0_278_65)">
<path d="M1.14935 68.878H0V63.3175C0 62.3658 0.257136 61.6238 0.771409 61.0914C1.28568 60.5591 1.97225 60.2934 2.83109 60.2944C3.74238 60.2944 4.44847 60.552 4.94937 61.067C5.20058 61.3298 5.39649 61.6394 5.52574 61.9777C5.65499 62.3161 5.71498 62.6765 5.70225 63.0381C5.71273 63.4889 5.61823 63.9361 5.42608 64.345C5.26381 64.6926 5.00817 64.9894 4.68706 65.203C4.38284 65.402 4.04918 65.5529 3.69809 65.6504C3.34012 65.7505 2.97006 65.8018 2.59808 65.8031H1.68166V64.7343H2.73232C2.97002 64.7467 3.2077 64.7095 3.42991 64.625C3.65212 64.5406 3.85386 64.4108 4.0221 64.2442C4.33327 63.9135 4.49965 63.4744 4.48495 63.0228C4.50151 62.585 4.34553 62.158 4.0499 61.8319C3.76088 61.5266 3.34946 61.3739 2.81564 61.3739C2.58294 61.3615 2.35045 61.4024 2.13637 61.4935C1.92228 61.5846 1.73237 61.7234 1.58139 61.8991C1.26942 62.2927 1.11111 62.7843 1.13549 63.2839L1.14935 68.878Z" fill="black"/>
<path d="M11.7903 68.8778H6.92729V62.4332C6.91578 62.1669 6.9611 61.9012 7.06025 61.6534C7.1594 61.4056 7.31016 61.1812 7.50276 60.9949C7.74739 60.7619 8.05134 60.5989 8.38219 60.5232C8.77619 60.4447 9.17753 60.4083 9.57938 60.4148H11.7903V61.4835H9.42051C8.52361 61.4835 8.07569 61.854 8.07672 62.595V63.9692H10.9031V65.0379H8.08131V67.8182H11.7948L11.7903 68.8778Z" fill="black"/>
<path d="M13.0738 64.6824C13.0737 64.0649 13.178 63.4519 13.3824 62.8685C13.5598 62.3585 13.8378 61.8883 14.2001 61.4853C14.5488 61.1028 14.9787 60.8014 15.459 60.6028C15.978 60.3922 16.535 60.2883 17.096 60.2974C17.6548 60.2894 18.2095 60.3933 18.7267 60.6028C19.2095 60.8002 19.6417 61.1017 19.9918 61.4853C20.3541 61.8886 20.6325 62.3587 20.8111 62.8685C21.014 63.4522 21.1183 64.0651 21.1196 64.6824C21.1206 65.2951 21.0194 65.9038 20.8203 66.484C20.6474 66.9864 20.3704 67.4476 20.0072 67.8382C19.6534 68.2121 19.2218 68.5054 18.7421 68.6978C18.2202 68.906 17.6618 69.0098 17.0991 69.0032C16.5363 69.0098 15.9778 68.906 15.4559 68.6978C14.9764 68.505 14.5449 68.2117 14.1908 67.8382C13.8282 67.4475 13.5517 66.9863 13.3793 66.484C13.1773 65.9043 13.074 65.2955 13.0738 64.6824ZM19.8792 64.6824C19.8731 64.2481 19.805 63.8168 19.6771 63.4014C19.5608 63.0184 19.3747 62.6598 19.1278 62.3433C18.8917 62.0449 18.594 61.7998 18.2546 61.6242C17.8951 61.443 17.4962 61.3518 17.0929 61.3585C16.69 61.3521 16.2917 61.4433 15.9327 61.6242C15.5927 61.799 15.2949 62.0443 15.0594 62.3433C14.8115 62.6594 14.6248 63.0181 14.5087 63.4014C14.3805 63.8167 14.3129 64.2481 14.308 64.6824C14.3116 65.1172 14.3792 65.5492 14.5087 65.9648C14.624 66.3391 14.811 66.6879 15.0594 66.9924C15.2969 67.2815 15.5948 67.5164 15.9327 67.6809C16.2938 67.8549 16.6913 67.9423 17.0929 67.9359C17.495 67.9423 17.8929 67.855 18.2546 67.6809C18.5919 67.5156 18.8896 67.2808 19.1278 66.9924C19.3753 66.6875 19.5617 66.3388 19.6771 65.9648C19.8063 65.5492 19.8744 65.1172 19.8792 64.6824Z" fill="black"/>
<path d="M23.7887 68.878H22.6409V63.3175C22.6409 62.3658 22.898 61.6238 23.4123 61.0914C23.9266 60.5591 24.6131 60.2934 25.472 60.2944C26.3832 60.2944 27.0898 60.552 27.5917 61.067C27.8427 61.3299 28.0385 61.6395 28.1674 61.9779C28.2964 62.3162 28.3561 62.6766 28.3431 63.0381C28.3534 63.4887 28.2594 63.9357 28.0685 64.345C27.9052 64.692 27.6498 64.9885 27.3295 65.203C27.0246 65.4017 26.6904 65.5526 26.339 65.6504C25.981 65.7506 25.6109 65.8019 25.239 65.8031H24.3256V64.7343H25.3763C25.614 64.7467 25.8517 64.7095 26.0739 64.625C26.2961 64.5406 26.4978 64.4108 26.6661 64.2442C26.98 63.9147 27.1493 63.4755 27.1367 63.0228C27.153 62.5853 26.9976 62.1586 26.7031 61.8319C26.4131 61.5266 26.0017 61.3739 25.4689 61.3739C25.2362 61.3616 25.0037 61.4026 24.7897 61.4937C24.5756 61.5848 24.3857 61.7235 24.2346 61.8991C23.9226 62.2927 23.7643 62.7843 23.7887 63.2839V68.878Z" fill="black"/>
<path d="M34.354 67.8139V68.8826H32.5705C32.2357 68.8826 31.9734 68.8826 31.7821 68.8658C31.5391 68.8407 31.2996 68.7895 31.0678 68.7132C30.8025 68.64 30.5565 68.5102 30.3472 68.333C30.0531 68.0728 29.8478 67.7288 29.7595 67.3482C29.6638 66.9052 29.6188 66.453 29.6252 66.0001V60.4136H30.7746V65.9756C30.7582 66.3483 30.8104 66.7208 30.9289 67.0749C31.1403 67.5681 31.5831 67.8124 32.2604 67.8124L34.354 67.8139Z" fill="black"/>
<path d="M40.32 68.8778H35.4571V62.4332C35.4456 62.1671 35.4908 61.9015 35.5897 61.6538C35.6886 61.406 35.8389 61.1815 36.031 60.9949C36.2759 60.7622 36.5797 60.5992 36.9104 60.5232C37.3044 60.4447 37.7058 60.4083 38.1076 60.4148H40.32V61.4835H37.9487C37.0518 61.4835 36.6039 61.854 36.6049 62.595V63.9692H39.4267V65.0379H36.6049V67.8182H40.32V68.8778Z" fill="black"/>
<path d="M45.6705 67.8136H46.5499V65.2745H45.2925V64.2058H47.6993V68.8717H45.817C44.5056 68.8717 43.4771 68.5032 42.7314 67.7663C41.9857 67.0293 41.6088 65.9876 41.6006 64.6409C41.6088 63.2943 41.9857 62.252 42.7314 61.5141C43.4771 60.7761 44.5056 60.4077 45.817 60.4087H47.2226V61.4774H45.6705C44.7664 61.4774 44.0722 61.7736 43.5877 62.366C43.1033 62.9584 42.8528 63.7183 42.8363 64.6455C42.8518 65.5718 43.1022 66.3311 43.5877 66.9235C44.0732 67.5159 44.7675 67.8126 45.6705 67.8136Z" fill="black"/>
<path d="M49.165 68.8778V63.3814C49.165 62.4063 49.4072 61.6485 49.8916 61.108C50.3761 60.5676 51.0662 60.2978 51.9621 60.2988C52.8672 60.2988 53.562 60.5161 54.0465 60.9508C54.5309 61.3854 54.7731 61.9961 54.7731 62.7829C54.793 63.2269 54.6639 63.6649 54.406 64.0288C54.1622 64.3504 53.7471 64.6049 53.1609 64.7921V64.8395C53.778 65.0746 54.1807 65.4059 54.3951 65.838C54.6096 66.2701 54.7037 66.98 54.7037 67.9755V68.8824H53.5558V67.3358C53.5558 66.725 53.3804 66.2472 53.0297 65.9021C52.679 65.5571 52.174 65.3861 51.5147 65.3891H50.8559V64.3204H51.5518C52.3345 64.3204 52.876 64.1631 53.1763 63.8486C53.3231 63.6999 53.4385 63.5239 53.5161 63.3307C53.5937 63.1376 53.6319 62.9312 53.6284 62.7233C53.6351 62.5357 53.5985 62.3489 53.5216 62.1772C53.4446 62.0056 53.3291 61.8535 53.184 61.7325C52.8494 61.4703 52.43 61.3374 52.0037 61.3584C51.4422 61.3584 51.021 61.5152 50.7402 61.8287C50.4594 62.1422 50.3185 62.6582 50.3175 63.3768V68.8732L49.165 68.8778Z" fill="black"/>
<path d="M56.1169 64.6823C56.1168 64.0649 56.2211 63.4518 56.4255 62.8685C56.6041 62.3586 56.8825 61.8886 57.2448 61.4853C57.5926 61.1025 58.0221 60.8011 58.5021 60.6028C59.0212 60.3923 59.5781 60.2884 60.139 60.2974C60.6984 60.2894 61.2536 60.3933 61.7714 60.6028C62.2535 60.8006 62.6851 61.102 63.0349 61.4853C63.3971 61.8886 63.6755 62.3586 63.8542 62.8685C64.0586 63.4518 64.1629 64.0649 64.1627 64.6823C64.1645 65.2951 64.0633 65.904 63.8634 66.484C63.6905 66.9864 63.4136 67.4476 63.0504 67.8382C62.6969 68.2117 62.2658 68.505 61.7868 68.6978C61.2643 68.9059 60.7053 69.0096 60.1421 69.0031C59.5795 69.0095 59.0211 68.9057 58.499 68.6978C58.0201 68.505 57.589 68.2117 57.2355 67.8382C56.8723 67.4476 56.5953 66.9864 56.4224 66.484C56.2204 65.9043 56.1172 65.2955 56.1169 64.6823ZM62.9223 64.6823C62.9169 64.248 62.8488 63.8166 62.7202 63.4013C62.6045 63.0182 62.4183 62.6595 62.1709 62.3433C61.9351 62.0446 61.6374 61.7994 61.2977 61.6242C60.9382 61.443 60.5393 61.3518 60.136 61.3585C59.7331 61.3521 59.3348 61.4433 58.9758 61.6242C58.6361 61.7994 58.3384 62.0446 58.1026 62.3433C57.8547 62.6594 57.6679 63.0181 57.5517 63.4013C57.4243 63.8169 57.3568 64.2481 57.3512 64.6823C57.3555 65.1172 57.423 65.5491 57.5517 65.9648C57.6671 66.3391 57.8541 66.6879 58.1026 66.9923C58.3403 67.2812 58.6381 67.5161 58.9758 67.6809C59.3369 67.8548 59.7344 67.9421 60.136 67.9359C60.5381 67.9423 60.9361 67.855 61.2977 67.6809C61.6354 67.5161 61.9332 67.2812 62.1709 66.9923C62.4188 66.6878 62.6053 66.339 62.7202 65.9648C62.8501 65.5493 62.9182 65.1173 62.9223 64.6823Z" fill="black"/>
<path d="M70.5592 60.415H71.7071V66.2168C71.7071 67.1756 71.4567 67.879 70.9558 68.3268C70.4549 68.7747 69.6993 68.9986 68.6893 68.9986C67.6793 68.9986 66.9259 68.7747 66.4291 68.3268C65.9323 67.879 65.6839 67.1756 65.6839 66.2168V60.415H66.8317V66.3695C66.8317 66.9181 67.0009 67.3151 67.3393 67.5604C67.7334 67.8228 68.2026 67.9524 68.677 67.9299C69.1613 67.9536 69.6405 67.8242 70.0454 67.5604C70.388 67.3151 70.5592 66.9181 70.5592 66.3695V60.415Z" fill="black"/>
<path d="M74.4441 68.878H73.2947V63.3175C73.2947 62.3658 73.5518 61.6238 74.0661 61.0914C74.5804 60.5591 75.2669 60.2934 76.1258 60.2944C77.0371 60.2944 77.7437 60.552 78.2456 61.067C78.4963 61.3301 78.6917 61.6398 78.8206 61.9781C78.9496 62.3164 79.0095 62.6767 78.9969 63.0381C79.0074 63.4889 78.9129 63.9361 78.7208 64.345C78.5585 64.6926 78.3028 64.9894 77.9817 65.203C77.6775 65.402 77.3439 65.5529 76.9928 65.6504C76.6349 65.7505 76.2648 65.8018 75.8928 65.8031H74.9763V64.7343H76.027C76.2647 64.7467 76.5024 64.7095 76.7246 64.625C76.9468 64.5406 77.1486 64.4108 77.3169 64.2442C77.6308 63.9147 77.8 63.4755 77.7874 63.0228C77.804 62.585 77.648 62.158 77.3523 61.8319C77.0633 61.5266 76.6519 61.3739 76.1181 61.3739C75.8854 61.3616 75.6529 61.4026 75.4389 61.4937C75.2248 61.5848 75.0349 61.7235 74.8838 61.8991C74.5719 62.2927 74.4135 62.7843 74.4379 63.2839L74.4441 68.878Z" fill="black"/>
<path d="M39.3141 43.6187C38.3094 43.6199 37.3463 44.0156 36.6361 44.7189C35.926 45.4222 35.5269 46.3757 35.5265 47.3699C35.5273 48.3639 35.9266 49.317 36.6367 50.02C37.3468 50.723 38.3096 51.1185 39.3141 51.1197C40.3191 51.1189 41.2827 50.7237 41.9936 50.0208C42.7045 49.3178 43.1047 48.3645 43.1063 47.3699C43.1051 46.3751 42.7052 45.4215 41.9942 44.7182C41.2832 44.0149 40.3193 43.6195 39.3141 43.6187Z" fill="url(#paint0_linear_278_65)"/>
<path d="M34.8954 44.4739C33.0074 43.6305 31.4052 42.2664 30.2803 40.5451C29.1554 38.8238 28.5557 36.8181 28.5529 34.7682C28.5544 34.0731 28.6237 33.3798 28.7597 32.6978L28.9031 31.9803H28.124C27.2096 31.9804 26.2968 31.9059 25.3948 31.7573C25.3454 31.7482 24.8332 31.6688 24.6403 31.6306C22.4002 31.2016 20.1492 30.1359 20.126 30.1267L17.6714 28.9526L24.5277 37.2889C24.9823 39.8675 26.1153 42.2821 27.8127 44.2897C29.5101 46.2972 31.7119 47.8268 34.1966 48.7245C34.0737 48.2828 34.0109 47.8268 34.0099 47.3687C34.0098 46.3384 34.3179 45.3312 34.8954 44.4739Z" fill="url(#paint1_linear_278_65)"/>
<path d="M61.4967 5.58936C60.8336 5.58955 60.1822 5.76282 59.6083 6.09167C58.7385 6.58982 58.1039 7.40899 57.8436 8.36953C57.5833 9.33008 57.7185 10.3536 58.2197 11.2156C58.5545 11.785 59.0342 12.2578 59.6111 12.5868C60.1879 12.9157 60.8417 13.0894 61.5075 13.0905C62.1705 13.0895 62.8217 12.9163 63.3959 12.5881C64.2657 12.09 64.9003 11.2708 65.1606 10.3103C65.4209 9.34973 65.2857 8.32623 64.7845 7.46425C64.4499 6.89455 63.9703 6.42162 63.3934 6.09264C62.8165 5.76366 62.1625 5.59012 61.4967 5.58936Z" fill="url(#paint2_linear_278_65)"/>
<path d="M65.252 13.0449C64.9259 13.3725 64.557 13.6554 64.155 13.8862C63.3503 14.347 62.4373 14.5902 61.5075 14.5916C61.398 14.5916 61.2869 14.5916 61.1774 14.5809C61.3828 16.62 60.99 18.6746 60.046 20.4985C59.102 22.3225 57.6468 23.8386 55.8546 24.8653C55.2467 25.2109 54.6066 25.4977 53.9431 25.7218L53.2442 25.957L53.616 26.5906C54.0808 27.3848 54.4761 28.2169 54.7978 29.0777C54.8163 29.125 55.003 29.6014 55.0678 29.7861C55.8114 31.9236 56.0043 34.3818 56.0058 34.4077L56.2079 37.0979L60.0743 27.0532C62.4595 25.0945 64.1681 22.4484 64.9619 19.4834C65.535 17.3843 65.6341 15.1861 65.252 13.0449Z" fill="url(#paint3_linear_278_65)"/>
<path d="M19.0229 6.08728C18.4482 5.75896 17.7965 5.58574 17.133 5.58496C16.4674 5.58584 15.8137 5.75943 15.2371 6.08842C14.6604 6.4174 14.1811 6.89028 13.8468 7.45986C13.5971 7.88605 13.435 8.35695 13.3702 8.84541C13.3053 9.33387 13.3388 9.83021 13.4688 10.3058C13.5962 10.7821 13.8178 11.2287 14.1208 11.6197C14.4237 12.0107 14.802 12.3384 15.2337 12.5838C15.8085 12.9119 16.4602 13.0851 17.1237 13.0861C17.7893 13.0852 18.4431 12.9116 19.0197 12.5826C19.5963 12.2536 20.0757 11.7808 20.4099 11.2112C20.9117 10.3495 21.0474 9.32597 20.7874 8.36532C20.5273 7.40468 19.8927 6.58539 19.0229 6.08728Z" fill="url(#paint4_linear_278_65)"/>
<path d="M50.4486 0.793945C47.8227 0.795763 45.2435 1.48021 42.969 2.77877C40.6891 4.08975 38.7967 5.96973 37.4807 8.23093C36.1647 10.4921 35.4712 13.0554 35.4694 15.6648C35.473 17.8141 35.9501 19.9367 36.8672 21.885C35.8649 23.247 34.552 24.3557 33.0352 25.1211C31.5184 25.8865 29.8405 26.2869 28.1379 26.2897C26.2577 26.2878 24.4111 25.7971 22.7828 24.8668C20.9909 23.8398 19.536 22.3236 18.592 20.4998C17.6481 18.6759 17.2551 16.6215 17.4601 14.5824C17.3521 14.5824 17.2426 14.593 17.1315 14.593C16.202 14.5917 15.289 14.349 14.484 13.8892C14.0869 13.6595 13.7209 13.381 13.3947 13.0602C13.2421 13.9053 13.1642 14.762 13.1618 15.6206C13.1637 18.2297 13.8573 20.7928 15.1733 23.0537C16.4893 25.3147 18.3817 27.1944 20.6614 28.5051C22.9361 29.803 25.5152 30.4875 28.141 30.4899C30.5515 30.4869 32.926 29.9119 35.0655 28.8131C37.205 27.7144 39.0472 26.1239 40.4373 24.1751C43.0831 24.4514 45.5321 25.6863 47.3132 27.6421C49.0942 29.598 50.0813 32.1367 50.0845 34.7695C50.0821 36.8193 49.4826 38.8249 48.358 40.5463C47.2334 42.2677 45.6313 43.6318 43.7435 44.4753C44.3217 45.3344 44.6293 46.3439 44.6275 47.3762C44.6262 47.8342 44.564 48.29 44.4424 48.732C47.3376 47.689 49.8389 45.7907 51.6076 43.294C53.3762 40.7974 54.3267 37.8231 54.3303 34.7741C54.3251 31.0647 52.9191 27.4912 50.3884 24.7549C47.8577 22.0185 44.3849 20.317 40.6517 19.9841C39.5718 17.5789 39.4286 14.8635 40.2497 12.3602C41.0708 9.8568 42.7982 7.74224 45.0996 6.4232C46.7299 5.49228 48.5787 5.00158 50.4609 5.00025C52.7223 5.00353 54.9258 5.70778 56.7619 7.01407C57.2226 6.08671 57.9513 5.31568 58.8554 4.79872C59.2514 4.57326 59.675 4.3993 60.1159 4.28114C57.4062 2.03317 53.9845 0.79888 50.4486 0.793945Z" fill="url(#paint5_linear_278_65)"/>
<path d="M33.3294 1.70999C31.6816 1.10742 29.9393 0.79731 28.1826 0.793921C24.6497 0.798703 21.2305 2.03069 18.5215 4.275C18.9625 4.39288 19.3862 4.56686 19.782 4.79258C20.6866 5.30987 21.4163 6.08075 21.8787 7.00795C23.7133 5.70097 25.916 4.99659 28.1765 4.99411C30.0587 4.99545 31.9075 5.48616 33.5377 6.41708C34.1456 6.76638 34.7181 7.17286 35.2472 7.63087L35.8041 8.11181L36.1729 7.47819C36.6558 6.64609 38.1091 4.77883 38.2372 4.63073C39.7337 2.92684 41.7857 1.53137 41.8134 1.51611L44.066 0L33.3294 1.70999Z" fill="url(#paint6_linear_278_65)"/>
</g>
<defs>
<linearGradient id="paint0_linear_278_65" x1="11.1762" y1="19.523" x2="48.9834" y2="57.7272" gradientUnits="userSpaceOnUse">
<stop stop-color="#9E1F63"/>
<stop offset="1" stop-color="#DA1C5C"/>
</linearGradient>
<linearGradient id="paint1_linear_278_65" x1="10.3415" y1="20.3477" x2="48.1488" y2="58.5518" gradientUnits="userSpaceOnUse">
<stop stop-color="#9E1F63"/>
<stop offset="1" stop-color="#DA1C5C"/>
</linearGradient>
<linearGradient id="paint2_linear_278_65" x1="41.4832" y1="-10.4709" x2="79.292" y2="27.735" gradientUnits="userSpaceOnUse">
<stop stop-color="#9E1F63"/>
<stop offset="1" stop-color="#DA1C5C"/>
</linearGradient>
<linearGradient id="paint3_linear_278_65" x1="33.149" y1="-2.22142" x2="70.9563" y2="35.9814" gradientUnits="userSpaceOnUse">
<stop stop-color="#9E1F63"/>
<stop offset="1" stop-color="#DA1C5C"/>
</linearGradient>
<linearGradient id="paint4_linear_278_65" x1="19.296" y1="11.486" x2="57.1033" y2="49.6904" gradientUnits="userSpaceOnUse">
<stop stop-color="#9E1F63"/>
<stop offset="1" stop-color="#DA1C5C"/>
</linearGradient>
<linearGradient id="paint5_linear_278_65" x1="27.1829" y1="3.68262" x2="64.9902" y2="41.8869" gradientUnits="userSpaceOnUse">
<stop stop-color="#9E1F63"/>
<stop offset="1" stop-color="#DA1C5C"/>
</linearGradient>
<linearGradient id="paint6_linear_278_65" x1="30.0186" y1="0.874847" x2="67.8258" y2="39.0792" gradientUnits="userSpaceOnUse">
<stop stop-color="#9E1F63"/>
<stop offset="1" stop-color="#DA1C5C"/>
</linearGradient>
<clipPath id="clip0_278_65">
<rect width="79" height="69" fill="white"/>
</clipPath>
</defs>
</svg>
