<svg width="164" height="69" viewBox="0 0 164 69" fill="none" xmlns="http://www.w3.org/2000/svg">
<g clip-path="url(#clip0_277_6)">
<path d="M20.6192 29.8815C21.1943 29.8775 21.7642 29.9898 22.2938 30.2114C22.8049 30.4263 23.2713 30.7328 23.6696 31.1156C24.0615 31.4935 24.3756 31.9431 24.5944 32.4393C24.8195 32.9569 24.9332 33.5152 24.9281 34.0787C24.9322 34.6387 24.8186 35.1935 24.5944 35.7078C24.3761 36.2049 24.062 36.6552 23.6696 37.0336C23.2725 37.4128 22.8083 37.7166 22.3 37.9296C21.7708 38.1529 21.2007 38.2659 20.6254 38.2616H3.06688V42.1126C3.07058 42.3136 3.0312 42.5132 2.95133 42.6982C2.87146 42.8832 2.7529 43.0493 2.60346 43.1858C2.46411 43.3255 2.29798 43.4364 2.11479 43.5119C1.9316 43.5875 1.73505 43.6261 1.53657 43.6256C1.3352 43.6293 1.13521 43.5921 0.948895 43.5165C0.762585 43.4408 0.59389 43.3283 0.45319 43.1858C0.308252 43.0468 0.193775 42.8797 0.116887 42.6951C0.039999 42.5105 0.00235812 42.3122 0.00626124 42.1126V31.3986C0.00255671 31.1996 0.0402958 31.002 0.117189 30.8181C0.194082 30.6342 0.308467 30.4678 0.45319 30.3295C0.593491 30.1863 0.762071 30.0732 0.948443 29.9972C1.13481 29.9212 1.335 29.8839 1.53657 29.8876L20.6192 29.8815ZM3.06069 32.9056V35.2394H20.747C21.0612 35.2405 21.3637 35.1216 21.5914 34.9075C21.7106 34.8032 21.8053 34.6745 21.869 34.5303C21.9327 34.3861 21.9638 34.2299 21.9601 34.0725C21.9596 33.9188 21.9266 33.7669 21.8631 33.6266C21.7996 33.4863 21.707 33.3607 21.5914 33.2579C21.4807 33.1481 21.3491 33.0609 21.2042 33.0015C21.0592 32.9421 20.9039 32.9116 20.747 32.9118L3.06069 32.9056Z" fill="black"/>
<path d="M30.7857 43.2894C30.2701 43.0788 29.7997 42.7734 29.3995 42.3893C29.0049 42.0112 28.6863 41.5628 28.4603 41.0676C28.2254 40.5561 28.1059 40.0002 28.1102 39.4384V31.4024C28.1066 31.2036 28.1442 31.0062 28.2207 30.8223C28.2972 30.6385 28.411 30.472 28.555 30.3333C28.6953 30.1901 28.8639 30.077 29.0503 30.001C29.2367 29.925 29.4368 29.8877 29.6384 29.8914C29.8374 29.8908 30.0345 29.9296 30.2181 30.0055C30.4017 30.0814 30.568 30.1928 30.7074 30.3333C30.8559 30.4694 30.9738 30.635 31.0533 30.8193C31.1328 31.0035 31.1721 31.2022 31.1687 31.4024V39.4384C31.1684 39.592 31.2009 39.744 31.2641 39.8844C31.3273 40.0248 31.4197 40.1504 31.5353 40.253C31.6457 40.3635 31.7772 40.4512 31.9222 40.511C32.0672 40.5708 32.2227 40.6015 32.3798 40.6012H51.5016C51.7032 40.5975 51.9034 40.6348 52.0898 40.7109C52.2762 40.7869 52.4447 40.9 52.585 41.0431C52.7293 41.1818 52.8435 41.3481 52.9204 41.532C52.9972 41.7159 53.0352 41.9133 53.032 42.1123C53.0355 42.3119 52.9977 42.5101 52.9208 42.6946C52.8439 42.8792 52.7296 43.0463 52.585 43.1855C52.4443 43.328 52.2757 43.4405 52.0894 43.5162C51.903 43.5918 51.703 43.629 51.5016 43.6254H32.4766C31.8959 43.6264 31.3209 43.5122 30.7857 43.2894V43.2894Z" fill="black"/>
<path d="M58.9267 43.0531C58.7874 43.2309 58.6084 43.3746 58.4037 43.4728C58.199 43.571 57.9741 43.6211 57.7466 43.6192C57.5455 43.6226 57.3459 43.5854 57.1599 43.5097C56.974 43.4341 56.8056 43.3216 56.6652 43.1793C56.5199 43.0415 56.4048 42.8757 56.3269 42.6922C56.2489 42.5086 56.2099 42.3112 56.2121 42.1122C56.1967 41.7789 56.311 41.4524 56.5314 41.1998L64.2756 30.8952C64.6566 30.3958 65.1503 29.9914 65.7174 29.7141C66.3073 29.4098 66.9634 29.2525 67.6288 29.2559C68.2584 29.2534 68.8804 29.3927 69.4475 29.6632C70.002 29.9211 70.4832 30.3108 70.848 30.7975L78.5923 41.039C78.721 41.1866 78.8284 41.351 78.9116 41.5277C78.9971 41.7094 79.0408 41.9077 79.0393 42.1081C79.0428 42.3077 79.005 42.5059 78.9281 42.6905C78.8512 42.875 78.737 43.0421 78.5923 43.1813C78.4519 43.3237 78.2836 43.4361 78.0977 43.5118C77.9117 43.5874 77.712 43.6246 77.511 43.6212C77.2744 43.6287 77.0397 43.5779 76.8279 43.4734C76.6162 43.3689 76.434 43.2139 76.2979 43.0225L68.8728 33.223C68.6967 33.0294 68.5104 32.8452 68.3147 32.671C68.1322 32.4896 67.8873 32.3827 67.6288 32.3717C67.3707 32.382 67.1262 32.489 66.945 32.671C66.7532 32.8393 66.5767 33.024 66.4177 33.223L58.9267 43.0531ZM65.6515 40.2162C65.6465 39.9585 65.6949 39.7025 65.7937 39.464C65.8925 39.2255 66.0397 39.0095 66.2262 38.8294C66.408 38.6452 66.6261 38.5 66.867 38.4026C67.1079 38.3052 67.3665 38.2578 67.6267 38.2633C67.8873 38.2576 68.1462 38.305 68.3875 38.4024C68.6287 38.4998 68.8472 38.6451 69.0293 38.8294C69.2158 39.0095 69.363 39.2255 69.4618 39.464C69.5607 39.7025 69.609 39.9585 69.604 40.2162C69.609 40.4739 69.5607 40.7299 69.4618 40.9685C69.363 41.207 69.2158 41.4229 69.0293 41.6031C68.8472 41.7874 68.6287 41.9327 68.3875 42.0301C68.1462 42.1275 67.8873 42.1748 67.6267 42.1692C67.3665 42.1747 67.1079 42.1272 66.867 42.0298C66.6261 41.9325 66.408 41.7872 66.2262 41.6031C66.0397 41.4229 65.8925 41.207 65.7937 40.9685C65.6949 40.7299 65.6465 40.4739 65.6515 40.2162V40.2162Z" fill="black"/>
<path d="M162.472 29.8811C162.673 29.8776 162.873 29.915 163.06 29.9911C163.246 30.0671 163.415 30.1801 163.555 30.323C163.7 30.4615 163.814 30.6278 163.89 30.8118C163.967 30.9957 164.004 31.1933 164 31.3922C164.004 31.5805 163.969 31.7676 163.898 31.9425C163.827 32.1173 163.722 32.2765 163.588 32.4104C163.33 32.6863 162.979 32.86 162.601 32.8992H156.194C155.638 32.9182 155.096 33.0751 154.618 33.3553C154.224 33.5984 153.891 33.928 153.646 34.3186C153.412 34.6934 153.25 35.1076 153.168 35.5405C153.087 35.9347 153.045 36.3357 153.041 36.7379V42.1122C153.044 42.3118 153.006 42.51 152.929 42.6945C152.853 42.8791 152.738 43.0462 152.594 43.1854C152.453 43.3279 152.284 43.4404 152.098 43.5161C151.912 43.5917 151.712 43.6289 151.51 43.6253C151.309 43.6289 151.109 43.5917 150.923 43.5161C150.736 43.4404 150.568 43.3279 150.427 43.1854C150.282 43.0464 150.167 42.8794 150.091 42.6947C150.014 42.5101 149.976 42.3118 149.98 42.1122V36.7562C149.981 36.0918 150.067 35.4303 150.235 34.787C150.402 34.1303 150.66 33.4993 150.999 32.9114H140.547C140.345 32.915 140.145 32.8778 139.959 32.8022C139.773 32.7265 139.604 32.614 139.463 32.4715C139.319 32.3323 139.204 32.1653 139.128 31.9807C139.051 31.796 139.014 31.5977 139.018 31.3982C139.014 31.1994 139.052 31.0018 139.128 30.8179C139.205 30.6339 139.319 30.4675 139.463 30.3291C139.604 30.1859 139.772 30.0728 139.959 29.9968C140.145 29.9208 140.345 29.8835 140.547 29.8872L162.472 29.8811Z" fill="black"/>
<path d="M134.298 40.5954H116.737C116.112 40.6234 115.491 40.4871 114.937 40.2003C114.508 39.9637 114.138 39.6353 113.854 39.239C113.666 38.9423 113.527 38.6178 113.442 38.2778C112.746 39.0782 112 39.8806 111.25 40.685C111.375 40.9196 111.512 41.1473 111.662 41.3672C112.125 42.0195 112.715 42.5735 113.398 42.9964C114.097 43.4228 114.905 43.6419 115.726 43.6277H134.306C134.507 43.6313 134.707 43.5941 134.894 43.5185C135.08 43.4428 135.249 43.3303 135.389 43.1878C135.534 43.0486 135.648 42.8815 135.725 42.6969C135.801 42.5123 135.838 42.3141 135.834 42.1146C135.838 41.9157 135.801 41.7182 135.724 41.5342C135.648 41.3503 135.534 41.1839 135.389 41.0454C135.249 40.8998 135.079 40.7846 134.891 40.7071C134.703 40.6296 134.501 40.5916 134.298 40.5954Z" fill="black"/>
<path d="M117.67 32.9053H134.298C134.499 32.9089 134.699 32.8717 134.885 32.7961C135.072 32.7204 135.24 32.6079 135.381 32.4654C135.526 32.3262 135.64 32.1591 135.716 31.9745C135.793 31.7898 135.83 31.5917 135.826 31.3922C135.83 31.1933 135.793 30.9957 135.716 30.8118C135.64 30.6278 135.526 30.4615 135.381 30.3231C135.241 30.1799 135.072 30.0668 134.886 29.9907C134.7 29.9147 134.499 29.8774 134.298 29.8811H119.674C119.06 30.879 118.392 31.8871 117.67 32.9053Z" fill="black"/>
<path d="M117.087 38.2632H132.959C133.161 38.2669 133.361 38.2296 133.547 38.1536C133.733 38.0775 133.902 37.9644 134.042 37.8213C134.187 37.6823 134.301 37.5156 134.378 37.3314C134.455 37.1472 134.493 36.9493 134.489 36.7501C134.493 36.5509 134.455 36.3531 134.378 36.1689C134.301 35.9847 134.187 35.8179 134.042 35.6789C133.902 35.5361 133.733 35.4233 133.547 35.3473C133.36 35.2713 133.16 35.2338 132.959 35.237H117.087C116.886 35.2338 116.686 35.2713 116.499 35.3473C116.313 35.4233 116.144 35.5361 116.004 35.6789C115.86 35.818 115.746 35.9848 115.669 36.169C115.593 36.3532 115.555 36.551 115.559 36.7501C115.555 36.9492 115.593 37.1469 115.669 37.3312C115.746 37.5154 115.86 37.6822 116.004 37.8213C116.144 37.9644 116.313 38.0775 116.499 38.1536C116.685 38.2296 116.886 38.2669 117.087 38.2632Z" fill="black"/>
<path d="M103.767 30.5902C103.069 30.1546 102.266 29.9101 101.44 29.8815H88.0873C87.2264 29.8677 86.3779 30.0852 85.6322 30.5108C84.912 30.928 84.282 31.4816 83.7785 32.1399C83.2667 32.8044 82.8731 33.5503 82.6148 34.3455C82.3545 35.1234 82.2203 35.9372 82.2173 36.7566V42.1126C82.2136 42.312 82.2512 42.51 82.3277 42.6946C82.4042 42.8791 82.518 43.0463 82.6622 43.1858C82.803 43.3281 82.9717 43.4405 83.158 43.5161C83.3443 43.5918 83.5442 43.629 83.7455 43.6257C83.947 43.6295 84.147 43.5924 84.3334 43.5168C84.5197 43.4411 84.6884 43.3285 84.8289 43.1858C84.9738 43.0467 85.0882 42.8796 85.1651 42.695C85.242 42.5104 85.2797 42.3122 85.2759 42.1126V36.7566C85.2801 36.338 85.3284 35.9211 85.4201 35.5124C85.512 35.0655 85.6957 34.642 85.9597 34.2681C86.2461 33.8726 86.6166 33.5438 87.0451 33.3048C87.6001 33.0205 88.2208 32.885 88.8452 32.9118H100.351C100.97 32.8892 101.585 33.0246 102.136 33.3048C102.57 33.5408 102.945 33.87 103.234 34.2681C103.499 34.6419 103.683 35.0654 103.776 35.5124C103.867 35.9211 103.916 36.338 103.92 36.7566V36.8157C104.814 35.9034 105.666 34.9978 106.476 34.099C106.242 33.4296 105.913 32.7966 105.498 32.2193C105.029 31.5741 104.442 31.0215 103.767 30.5902V30.5902Z" fill="black"/>
<path d="M54.0536 68.9939C49.1825 68.9939 45.5657 67.5867 43.5493 64.8211C40.6658 60.8805 41.4691 54.6388 45.815 47.2667C45.9922 46.9661 46.2828 46.7473 46.623 46.6583C46.9632 46.5694 47.3252 46.6175 47.6295 46.7922C47.7803 46.8789 47.9123 46.9942 48.0181 47.1315C48.1238 47.2687 48.2012 47.4252 48.2458 47.592C48.2903 47.7588 48.3012 47.9326 48.2778 48.1036C48.2544 48.2745 48.1972 48.4393 48.1094 48.5884C44.3279 55.0135 43.4752 60.2329 45.7079 63.2815C48.1403 66.6051 54.3296 67.2771 62.6918 65.1144C71.5853 62.8213 81.9124 57.6731 91.7679 50.6208C111.446 36.5406 123.606 18.5401 118.319 11.3167C115.886 7.99114 109.695 7.32114 101.335 9.48388C92.4394 11.777 82.1143 16.9252 72.2588 23.9775C71.9734 24.1812 71.6178 24.2645 71.2702 24.2091C70.9226 24.1538 70.6115 23.9642 70.4052 23.6822C70.1997 23.3998 70.1158 23.0483 70.1717 22.7048C70.2277 22.3613 70.4191 22.0537 70.7038 21.8494C80.8188 14.6117 91.461 9.3169 100.666 6.94236C110.28 4.45989 117.314 5.46998 120.473 9.78324C126.815 18.4485 114.892 37.3246 93.325 52.753C83.21 59.9906 72.5699 65.2854 63.3653 67.66C59.8989 68.5601 56.7785 68.9939 54.0536 68.9939Z" fill="black"/>
<path d="M54.1154 20.3732C54.1154 22.149 53.4019 23.8522 52.1319 25.1079C50.8618 26.3637 49.1393 27.0691 47.3432 27.0691C45.5471 27.0691 43.8246 26.3637 42.5546 25.1079C41.2846 23.8522 40.5711 22.149 40.5711 20.3732C40.5711 18.5973 41.2846 16.8941 42.5546 15.6384C43.8246 14.3827 45.5471 13.6772 47.3432 13.6772C49.1393 13.6772 50.8618 14.3827 52.1319 15.6384C53.4019 16.8941 54.1154 18.5973 54.1154 20.3732V20.3732Z" fill="#00EEAC"/>
<path d="M60.8649 15.6461C62.148 15.6461 63.1881 14.6176 63.1881 13.3489C63.1881 12.0802 62.148 11.0518 60.8649 11.0518C59.5817 11.0518 58.5416 12.0802 58.5416 13.3489C58.5416 14.6176 59.5817 15.6461 60.8649 15.6461Z" fill="#7FD7FF"/>
<path d="M57.036 3.52108C57.036 4.45439 56.661 5.34946 55.9935 6.0094C55.3261 6.66935 54.4208 7.04012 53.4769 7.04012C52.5328 7.04012 51.6273 6.66944 50.9595 6.00955C50.2917 5.34966 49.9163 4.45457 49.9157 3.52108C49.9157 2.58723 50.2909 1.69164 50.9588 1.03132C51.6266 0.370986 52.5324 0 53.4769 0C54.421 0.000539904 55.3263 0.371741 55.9937 1.03201C56.6611 1.69228 57.036 2.58759 57.036 3.52108V3.52108Z" fill="#F600FC"/>
</g>
<defs>
<clipPath id="clip0_277_6">
<rect width="164" height="69" fill="white"/>
</clipPath>
</defs>
</svg>
