<svg width="40" height="43" viewBox="0 0 40 43" fill="none" xmlns="http://www.w3.org/2000/svg">
<g clip-path="url(#clip0_191_78)">
<path d="M6.81007 3.33333H0.833394C0.612381 3.33333 0.400401 3.42113 0.24412 3.57741C0.08784 3.73369 6.10352e-05 3.94565 6.10352e-05 4.16666V41.8333C6.10352e-05 42.0543 0.08784 42.2663 0.24412 42.4226C0.400401 42.5789 0.612381 42.6667 0.833394 42.6667H4.58339C4.80441 42.6667 5.01636 42.5789 5.17264 42.4226C5.32892 42.2663 5.41673 42.0543 5.41673 41.8333C5.41673 41.6123 5.32892 41.4004 5.17264 41.2441C5.01636 41.0878 4.80441 41 4.58339 41H1.66673V4.99999H6.66673V7.49999C6.66673 7.72101 6.75451 7.93297 6.91079 8.08925C7.06707 8.24553 7.27905 8.33333 7.50006 8.33333H20.8334C21.0544 8.33333 21.2664 8.24553 21.4226 8.08925C21.5789 7.93297 21.6667 7.72101 21.6667 7.49999V4.99999H26.6667V12.2533C25.6753 12.4605 24.7935 13.0223 24.1867 13.8333H24.169C23.5061 13.8339 22.8706 14.0975 22.4018 14.5662C21.9331 15.0349 21.6695 15.6705 21.669 16.3333C21.6697 16.9577 21.9038 17.5592 22.3252 18.0198C22.7466 18.4805 23.3249 18.7671 23.9467 18.8233C24.1934 19.5356 24.439 20.1867 24.6956 20.8033C19.0178 22.8678 15.0023 31.23 15.0023 36.3333C15.0023 38.4356 15.6867 39.9778 17.0823 41H12.0823C11.8613 41 11.6493 41.0878 11.493 41.2441C11.3367 41.4004 11.249 41.6123 11.249 41.8333C11.249 42.0543 11.3367 42.2663 11.493 42.4226C11.6493 42.5789 11.8613 42.6667 12.0823 42.6667H29.1656C34.9178 42.6667 39.999 42.1111 39.999 36.3333C39.999 32.0067 37.1101 25.3389 32.7767 22.1511C33.3876 22.0821 33.9516 21.7907 34.3615 21.3325C34.7713 20.8743 34.9982 20.2814 34.999 19.6667C34.999 19.4456 34.9111 19.2337 34.7549 19.0774C34.5986 18.9211 34.3866 18.8333 34.1656 18.8333C33.9446 18.8333 33.7326 18.9211 33.5763 19.0774C33.4201 19.2337 33.3323 19.4456 33.3323 19.6667C33.3317 19.8875 33.2437 20.0991 33.0875 20.2553C32.9314 20.4114 32.7198 20.4994 32.499 20.5H30.4289C30.6412 19.9733 30.8467 19.42 31.0534 18.8233C31.6753 18.7671 32.2537 18.4806 32.6753 18.0199C33.0969 17.5593 33.3312 16.9578 33.3323 16.3333C33.3314 15.6706 33.0677 15.0352 32.5991 14.5665C32.1304 14.0979 31.4951 13.8342 30.8323 13.8333H30.8134C30.2064 13.0221 29.3241 12.4603 28.3323 12.2533V4.16666C28.3323 3.94565 28.2445 3.73369 28.0882 3.57741C27.9319 3.42113 27.72 3.33333 27.499 3.33333H21.5201C21.347 2.84642 21.0277 2.42491 20.6058 2.12654C20.1839 1.82817 19.6801 1.66754 19.1634 1.66666H16.5201C16.347 1.17975 16.0277 0.758233 15.6058 0.459866C15.1839 0.161499 14.6801 0.00088317 14.1634 0C13.6466 0.000559952 13.1426 0.161062 12.7207 0.459473C12.2987 0.757883 11.9795 1.17957 11.8067 1.66666H9.16339C8.64658 1.66722 8.14261 1.82772 7.72066 2.12613C7.2987 2.42454 6.97946 2.84624 6.80673 3.33333H6.81007ZM38.3334 36.3333C38.3334 40.7833 34.4745 41 27.6556 41H27.3434C20.5245 41 16.6667 40.7833 16.6667 36.3333C16.6667 31.39 20.8423 23.4089 25.9345 22.1667H29.0645C34.1512 23.4078 38.3334 31.3889 38.3334 36.3333ZM29.6845 15.1489C29.7737 15.3124 29.915 15.4413 30.0859 15.5152C30.2569 15.5891 30.4476 15.6037 30.6278 15.5567C30.6978 15.5389 30.8078 15.5056 30.8412 15.5C31.0607 15.5023 31.2705 15.5911 31.4251 15.7471C31.5796 15.9031 31.6665 16.1137 31.6667 16.3333C31.6665 16.5502 31.5818 16.7584 31.4306 16.9138C31.2793 17.0692 31.0735 17.1595 30.8567 17.1655C30.1967 17.0011 29.8234 17.2489 29.6856 17.6667C29.3345 18.7333 28.9923 19.6478 28.6245 20.5H26.3756C26.0067 19.6478 25.6645 18.7333 25.3134 17.6667C25.2585 17.5002 25.1525 17.3553 25.0104 17.2526C24.8684 17.1498 24.6976 17.0945 24.5223 17.0944C24.393 17.101 24.2652 17.1249 24.1423 17.1655C23.9257 17.1592 23.7202 17.0688 23.5692 16.9134C23.4182 16.758 23.3336 16.55 23.3334 16.3333C23.3334 16.1137 23.4201 15.9029 23.5747 15.7468C23.7293 15.5907 23.9393 15.502 24.1589 15.5C24.1923 15.5056 24.2889 15.5344 24.3712 15.5567C24.5515 15.6038 24.7424 15.5892 24.9136 15.5153C25.0847 15.4415 25.2262 15.3125 25.3156 15.1489C25.5276 14.7533 25.8424 14.4223 26.2269 14.1907C26.6114 13.9592 27.0513 13.8357 27.5001 13.8333C27.9488 13.8359 28.3886 13.9595 28.773 14.191C29.1574 14.4226 29.4723 14.7535 29.6845 15.1489ZM14.1667 1.66666C14.3877 1.66695 14.5994 1.75485 14.7557 1.91107C14.9119 2.06728 14.9998 2.27907 15.0001 2.49999C14.9995 2.72083 14.9115 2.93245 14.7553 3.0886C14.5992 3.24476 14.3876 3.33274 14.1667 3.33333C13.9458 3.33303 13.734 3.24515 13.5778 3.08893C13.4216 2.93271 13.3337 2.72092 13.3334 2.49999C13.3334 2.27898 13.4212 2.06702 13.5775 1.91074C13.7337 1.75446 13.9457 1.66666 14.1667 1.66666ZM9.16673 3.33333H11.8101C11.9828 3.82042 12.302 4.24211 12.724 4.54052C13.1459 4.83893 13.6499 4.99943 14.1667 4.99999C14.6835 4.99911 15.1873 4.83849 15.6092 4.54012C16.0311 4.24175 16.3504 3.82024 16.5234 3.33333H19.1667C19.3877 3.33362 19.5994 3.42152 19.7557 3.57773C19.9119 3.73395 19.9998 3.94574 20.0001 4.16666V6.66666H8.3334V4.16666C8.3334 3.94565 8.42117 3.73369 8.57745 3.57741C8.73373 3.42113 8.94571 3.33333 9.16673 3.33333Z" fill="white"/>
<path d="M28.3333 27.3111V26.3333C28.3333 26.1123 28.2455 25.9004 28.0892 25.7441C27.933 25.5878 27.721 25.5 27.5 25.5C27.279 25.5 27.067 25.5878 26.9107 25.7441C26.7544 25.9004 26.6667 26.1123 26.6667 26.3333V27.31C26.1796 27.4827 25.7579 27.802 25.4595 28.2239C25.1611 28.6459 25.0006 29.1499 25 29.6667C25.0009 30.3294 25.2646 30.9648 25.7332 31.4335C26.2019 31.9021 26.8372 32.1658 27.5 32.1667C27.7209 32.167 27.9327 32.2549 28.0889 32.4111C28.2451 32.5673 28.333 32.7791 28.3333 33C28.3327 33.2208 28.2447 33.4325 28.0886 33.5886C27.9324 33.7448 27.7208 33.8327 27.5 33.8333C27.3706 33.8337 27.2429 33.8037 27.1271 33.7458C27.0113 33.6879 26.9107 33.6038 26.8333 33.5C26.7006 33.3234 26.503 33.2067 26.2843 33.1756C26.0655 33.1446 25.8433 33.2017 25.6667 33.3344C25.49 33.4672 25.3734 33.6647 25.3423 33.8835C25.3113 34.1023 25.3684 34.3244 25.5011 34.5011C25.7979 34.8941 26.2036 35.1912 26.6678 35.3556V36.3344C26.6678 36.5555 26.7556 36.7674 26.9118 36.9237C27.0681 37.08 27.2801 37.1678 27.5011 37.1678C27.7221 37.1678 27.9341 37.08 28.0904 36.9237C28.2466 36.7674 28.3344 36.5555 28.3344 36.3344V35.3578C28.8214 35.1848 29.2429 34.8654 29.5412 34.4436C29.8396 34.0217 30.0002 33.5178 30.0011 33.0011C30.0002 32.3383 29.7366 31.703 29.2679 31.2343C28.7993 30.7657 28.1639 30.502 27.5011 30.5011C27.2802 30.5008 27.0684 30.4129 26.9122 30.2567C26.7559 30.1005 26.6681 29.8887 26.6678 29.6678C26.6678 29.4468 26.7556 29.2348 26.9118 29.0785C27.0681 28.9222 27.2801 28.8344 27.5011 28.8344C27.6306 28.8338 27.7584 28.8637 27.8742 28.9216C27.99 28.9795 28.0906 29.0638 28.1678 29.1678C28.3006 29.3444 28.498 29.4611 28.7168 29.4921C28.9356 29.5232 29.1578 29.4661 29.3344 29.3333C29.5111 29.2006 29.6278 29.0031 29.6588 28.7843C29.6898 28.5655 29.6327 28.3433 29.5 28.1667C29.2037 27.7737 28.7984 27.4766 28.3344 27.3122L28.3333 27.3111Z" fill="white"/>
<path d="M9.75557 15.7444C9.59899 15.5885 9.38704 15.501 9.16611 15.501C8.94518 15.501 8.73326 15.5885 8.57667 15.7444L3.57667 20.7444C3.49923 20.8218 3.43781 20.9137 3.3959 21.0148C3.35399 21.116 3.3324 21.2244 3.3324 21.3338C3.3324 21.4433 3.35399 21.5517 3.3959 21.6529C3.43781 21.754 3.49923 21.8459 3.57667 21.9233C3.65406 22.0007 3.74596 22.0622 3.8471 22.1041C3.94824 22.146 4.05663 22.1675 4.16611 22.1675C4.27559 22.1675 4.38401 22.146 4.48515 22.1041C4.58629 22.0622 4.67819 22.0007 4.75557 21.9233L9.16668 17.5122L11.91 20.2566C11.9874 20.3341 12.0793 20.3955 12.1804 20.4374C12.2816 20.4793 12.39 20.5009 12.4994 20.5009C12.6089 20.5009 12.7173 20.4793 12.8185 20.4374C12.9196 20.3955 13.0115 20.3341 13.0889 20.2566L18.3333 15.0122V15.5011C18.3333 15.7221 18.4211 15.934 18.5774 16.0903C18.7337 16.2466 18.9457 16.3344 19.1667 16.3344C19.3877 16.3344 19.5996 16.2466 19.7559 16.0903C19.9122 15.934 20 15.7221 20 15.5011V13.0011C20 12.78 19.9122 12.5681 19.7559 12.4118C19.5996 12.2555 19.3877 12.1677 19.1667 12.1677H16.6667C16.4457 12.1677 16.2337 12.2555 16.0774 12.4118C15.9211 12.5681 15.8333 12.78 15.8333 13.0011C15.8333 13.2221 15.9211 13.434 16.0774 13.5903C16.2337 13.7466 16.4457 13.8344 16.6667 13.8344H17.1544L12.5 18.4888L9.75557 15.7444Z" fill="white"/>
<path d="M4.16668 25.4999H14.1667C14.3877 25.4999 14.5996 25.4121 14.7559 25.2558C14.9122 25.0996 15 24.8876 15 24.6666C15 24.4456 14.9122 24.2336 14.7559 24.0773C14.5996 23.9211 14.3877 23.8333 14.1667 23.8333H4.16668C3.94566 23.8333 3.73368 23.9211 3.5774 24.0773C3.42112 24.2336 3.33334 24.4456 3.33334 24.6666C3.33334 24.8876 3.42112 25.0996 3.5774 25.2558C3.73368 25.4121 3.94566 25.4999 4.16668 25.4999Z" fill="white"/>
<path d="M4.16668 28.8334H14.1667C14.3877 28.8334 14.5996 28.7456 14.7559 28.5893C14.9122 28.4331 15 28.2211 15 28.0001C15 27.7791 14.9122 27.5671 14.7559 27.4108C14.5996 27.2545 14.3877 27.1667 14.1667 27.1667H4.16668C3.94566 27.1667 3.73368 27.2545 3.5774 27.4108C3.42112 27.5671 3.33334 27.7791 3.33334 28.0001C3.33334 28.2211 3.42112 28.4331 3.5774 28.5893C3.73368 28.7456 3.94566 28.8334 4.16668 28.8334Z" fill="white"/>
<path d="M4.16668 32.1667H10.8333C11.0544 32.1667 11.2663 32.0789 11.4226 31.9226C11.5789 31.7663 11.6667 31.5543 11.6667 31.3333C11.6667 31.1123 11.5789 30.9004 11.4226 30.7441C11.2663 30.5878 11.0544 30.5 10.8333 30.5H4.16668C3.94566 30.5 3.73368 30.5878 3.5774 30.7441C3.42112 30.9004 3.33334 31.1123 3.33334 31.3333C3.33334 31.5543 3.42112 31.7663 3.5774 31.9226C3.73368 32.0789 3.94566 32.1667 4.16668 32.1667Z" fill="white"/>
<path d="M4.16668 35.4999H10.8333C11.0544 35.4999 11.2663 35.4121 11.4226 35.2558C11.5789 35.0996 11.6667 34.8876 11.6667 34.6666C11.6667 34.4456 11.5789 34.2336 11.4226 34.0773C11.2663 33.9211 11.0544 33.8333 10.8333 33.8333H4.16668C3.94566 33.8333 3.73368 33.9211 3.5774 34.0773C3.42112 34.2336 3.33334 34.4456 3.33334 34.6666C3.33334 34.8876 3.42112 35.0996 3.5774 35.2558C3.73368 35.4121 3.94566 35.4999 4.16668 35.4999Z" fill="white"/>
<path d="M9.16667 41.8333C9.16667 42.0543 9.07886 42.2663 8.92258 42.4226C8.7663 42.5789 8.55435 42.6667 8.33333 42.6667C8.11232 42.6667 7.90034 42.5789 7.74406 42.4226C7.58778 42.2663 7.5 42.0543 7.5 41.8333C7.5 41.6123 7.58778 41.4004 7.74406 41.2441C7.90034 41.0878 8.11232 41 8.33333 41C8.55435 41 8.7663 41.0878 8.92258 41.2441C9.07886 41.4004 9.16667 41.6123 9.16667 41.8333Z" fill="white"/>
</g>
<defs>
<clipPath id="clip0_191_78">
<rect width="40" height="42.6667" fill="white"/>
</clipPath>
</defs>
</svg>
