<svg width="9" height="15" viewBox="0 0 9 15" fill="none" xmlns="http://www.w3.org/2000/svg">
<g clip-path="url(#clip0_81_317)">
<path d="M2.25279 8.46702H0.395022C0.0948455 8.46702 0.000976562 8.35409 0.000976562 8.07249V5.80112C0.000976562 5.50046 0.113423 5.40659 0.395022 5.40659H2.25279V3.75465C2.25279 3.00372 2.38429 2.29043 2.75976 1.63337C3.1538 0.957241 3.717 0.508934 4.43029 0.243957C4.89402 0.0780213 5.38341 -0.00473003 5.87592 -0.000485495H7.7156C7.97862 -0.000485495 8.09106 0.112447 8.09106 0.374979V2.51532C8.09106 2.77785 7.97862 2.89079 7.7156 2.89079C7.20862 2.89079 6.70213 2.89079 6.19516 2.90936C5.68818 2.90936 5.42516 3.15381 5.42516 3.67887C5.40659 4.24207 5.42516 4.78669 5.42516 5.36895H7.60315C7.90333 5.36895 8.01626 5.48139 8.01626 5.78157V8.05342C8.01626 8.3536 7.9224 8.44746 7.60315 8.44746H5.42516V14.5678C5.42516 14.8866 5.33179 14.9995 4.99349 14.9995H2.64683C2.36523 14.9995 2.25279 14.8866 2.25279 14.605V8.46702V8.46702Z" fill="white"/>
</g>
<defs>
<clipPath id="clip0_81_317">
<rect width="8.09106" height="15" fill="white"/>
</clipPath>
</defs>
</svg>
