<svg width="15" height="15" viewBox="0 0 15 15" fill="none" xmlns="http://www.w3.org/2000/svg">
<g clip-path="url(#clip0_83_321)">
<path d="M7.50254 3.64835C6.99711 3.64829 6.4966 3.74781 6.02963 3.94121C5.56266 4.13461 5.13836 4.4181 4.78096 4.7755C4.42356 5.1329 4.14007 5.5572 3.94667 6.02417C3.75328 6.49114 3.65376 6.99164 3.65381 7.49707C3.65381 8.51782 4.0593 9.49676 4.78107 10.2185C5.50285 10.9403 6.4818 11.3458 7.50254 11.3458C8.00798 11.3459 8.50847 11.2463 8.97544 11.0529C9.44242 10.8595 9.86672 10.576 10.2241 10.2187C10.5815 9.86125 10.865 9.43695 11.0584 8.96998C11.2518 8.50301 11.3513 8.00251 11.3513 7.49707C11.3513 6.99164 11.2518 6.49114 11.0584 6.02417C10.865 5.5572 10.5815 5.1329 10.2241 4.7755C9.86672 4.4181 9.44242 4.13461 8.97544 3.94121C8.50847 3.74781 8.00798 3.64829 7.50254 3.64835V3.64835ZM7.50254 9.99506C7.17447 9.99516 6.8496 9.93062 6.54648 9.80512C6.24336 9.67962 5.96795 9.49562 5.73597 9.26364C5.50399 9.03166 5.32 8.75625 5.1945 8.45313C5.069 8.15002 5.00446 7.82514 5.00456 7.49707C5.00451 7.16902 5.06908 6.84417 5.1946 6.54108C5.32012 6.23798 5.50412 5.96259 5.73609 5.73062C5.96806 5.49865 6.24345 5.31465 6.54654 5.18914C6.84963 5.06362 7.17449 4.99904 7.50254 4.99909C7.83076 4.99878 8.15582 5.06317 8.45914 5.18857C8.76246 5.31398 9.03808 5.49793 9.27026 5.72993C9.50243 5.96192 9.6866 6.23741 9.81224 6.54063C9.93788 6.84385 10.0025 7.16886 10.0025 7.49707C10.0026 7.82532 9.93806 8.15038 9.81245 8.45365C9.68685 8.75691 9.50268 9.03243 9.27048 9.26445C9.03829 9.49647 8.76262 9.68042 8.45925 9.80578C8.15589 9.93115 7.83079 9.99547 7.50254 9.99506V9.99506Z" fill="white"/>
<path d="M10.5923 0.0472045C9.2126 -0.0172469 5.79434 -0.014122 4.41312 0.0472045C3.19948 0.103844 2.12881 0.398757 1.26555 1.26006C-0.176601 2.7026 0.00776623 4.6463 0.00776623 7.49701C0.00776623 10.4145 -0.154727 12.3129 1.26555 13.7336C2.71395 15.1812 4.68577 14.9917 7.5025 14.9917C10.393 14.9917 11.3899 14.9917 12.4117 14.598C13.8012 14.0586 14.85 12.8168 14.9507 10.586C15.016 9.20556 15.0121 5.78807 14.9507 4.40686C14.8269 1.77411 13.4141 0.176889 10.5907 0.0472045H10.5923ZM12.777 12.7812C11.8313 13.7269 10.5192 13.6406 7.48452 13.6406C4.3596 13.6406 3.10652 13.6867 2.19209 12.7699C1.13743 11.7219 1.32961 10.0387 1.32961 7.48685C1.32961 4.03382 0.975319 1.54716 4.44085 1.36943C5.23693 1.34131 5.47129 1.33037 7.47554 1.33037L7.50366 1.34951C10.8344 1.34951 13.4473 1.00069 13.6043 4.46545C13.6398 5.25605 13.648 5.49355 13.648 7.49467C13.648 10.5833 13.7062 11.8442 12.777 12.7777V12.7812Z" fill="white"/>
<path d="M12.4032 3.49641C12.4032 3.73468 12.3085 3.9632 12.14 4.13168C11.9715 4.30017 11.743 4.39482 11.5047 4.39482C11.2665 4.39482 11.0379 4.30017 10.8695 4.13168C10.701 3.9632 10.6063 3.73468 10.6063 3.49641C10.6063 3.25813 10.701 3.02962 10.8695 2.86113C11.0379 2.69265 11.2665 2.59799 11.5047 2.59799C11.743 2.59799 11.9715 2.69265 12.14 2.86113C12.3085 3.02962 12.4032 3.25813 12.4032 3.49641V3.49641Z" fill="white"/>
</g>
<defs>
<clipPath id="clip0_83_321">
<rect width="14.9996" height="15" fill="white"/>
</clipPath>
</defs>
</svg>
