<svg width="15" height="15" viewBox="0 0 15 15" fill="none" xmlns="http://www.w3.org/2000/svg">
<g clip-path="url(#clip0_83_326)">
<path d="M14.9965 15H15V9.49805C15 6.80703 14.4207 4.73242 11.2747 4.73242C9.76215 4.73242 8.74731 5.5625 8.33286 6.34922H8.28911V4.98203H5.30591V14.9961H8.41216V10.0406C8.41216 8.73516 8.65942 7.47266 10.2762 7.47266C11.8696 7.47266 11.8934 8.9625 11.8934 10.1242V15H14.9965Z" fill="white"/>
<path d="M3.35784 4.98553H0.247681V15H3.35784V4.98553Z" fill="white"/>
<path d="M1.80156 3.05176e-05C1.32385 0.000134029 0.865741 0.18992 0.527916 0.527671C0.190091 0.865423 0.000207101 1.3235 0 1.8012C0 2.79573 0.807026 3.61956 1.80156 3.61956C2.79609 3.61956 3.60273 2.79573 3.60273 1.8012C3.60232 1.32363 3.41242 0.865733 3.07472 0.528037C2.73703 0.190341 2.27913 0.00044427 1.80156 3.05176e-05V3.05176e-05Z" fill="white"/>
</g>
<defs>
<clipPath id="clip0_83_326">
<rect width="15" height="15" fill="white"/>
</clipPath>
</defs>
</svg>
