<svg width="78" height="84" viewBox="0 0 78 84" fill="none" xmlns="http://www.w3.org/2000/svg">
<g clip-path="url(#clip0_134_788)">
<path d="M62.1073 9.55432H15.8927C15.5489 9.55497 15.2094 9.6298 14.8972 9.7737C14.5851 9.91761 14.3076 10.1272 14.0839 10.3882L1.22034 25.4449H76.7862L63.9226 10.3882C63.6988 10.1272 63.4214 9.91761 63.1093 9.7737C62.7971 9.6298 62.4575 9.55497 62.1138 9.55432H62.1073Z" fill="#C9BFC8"/>
<path d="M76.7775 25.4449H72.769L59.9054 10.3882C59.6815 10.1269 59.4037 9.91717 59.0911 9.77325C58.7786 9.62934 58.4386 9.55466 58.0945 9.55432H62.1073C62.4512 9.55396 62.7911 9.62834 63.1034 9.77231C63.4157 9.91629 63.693 10.1264 63.9161 10.3882L76.7775 25.4449Z" fill="#BAAFB9"/>
<path d="M67.5728 65.7401H10.4273C10.1178 65.7401 9.82099 65.6173 9.60196 65.3987C9.38294 65.1801 9.25961 64.8835 9.25903 64.5741V49.7779C9.25903 49.6245 9.28925 49.4726 9.34796 49.3308C9.40667 49.1891 9.49273 49.0603 9.60121 48.9519C9.70969 48.8434 9.83847 48.7573 9.9802 48.6986C10.1219 48.6399 10.2739 48.6097 10.4273 48.6097H67.5728C67.7262 48.6097 67.8782 48.6399 68.0199 48.6986C68.1616 48.7573 68.2904 48.8434 68.3989 48.9519C68.5074 49.0603 68.5934 49.1891 68.6521 49.3308C68.7109 49.4726 68.7411 49.6245 68.7411 49.7779V64.5741C68.7405 64.8835 68.6172 65.1801 68.3981 65.3987C68.1791 65.6173 67.8823 65.7401 67.5728 65.7401Z" fill="white"/>
<path d="M68.7411 49.7692V64.5588C68.7405 64.8694 68.6167 65.1671 68.3969 65.3866C68.177 65.606 67.8791 65.7292 67.5685 65.7292H63.6599C63.9703 65.7292 64.268 65.6059 64.4875 65.3864C64.707 65.1669 64.8303 64.8692 64.8303 64.5588V49.7692C64.8303 49.4588 64.707 49.1611 64.4875 48.9416C64.268 48.7221 63.9703 48.5988 63.6599 48.5988H67.5685C67.8791 48.5988 68.177 48.722 68.3969 48.9415C68.6167 49.1609 68.7405 49.4586 68.7411 49.7692Z" fill="white"/>
<path d="M67.5728 66.9495H10.4273C9.79378 66.9495 9.18625 66.6979 8.7383 66.25C8.29036 65.802 8.0387 65.1945 8.0387 64.561V49.7649C8.0387 49.1314 8.29036 48.5238 8.7383 48.0759C9.18625 47.6279 9.79378 47.3763 10.4273 47.3763H67.5728C68.2063 47.3763 68.8139 47.6279 69.2618 48.0759C69.7098 48.5238 69.9614 49.1314 69.9614 49.7649V64.561C69.9614 65.1945 69.7098 65.802 69.2618 66.25C68.8139 66.6979 68.2063 66.9495 67.5728 66.9495ZM10.4816 64.5067H67.5186V49.8213H10.4816V64.5067Z" fill="white"/>
<path d="M45.8194 54.1316V54.1099C45.7491 53.937 45.629 53.7889 45.4743 53.6845C45.3197 53.5801 45.1374 53.5241 44.9508 53.5236C44.7644 53.525 44.5825 53.5813 44.428 53.6856C44.2735 53.7899 44.1532 53.9375 44.0822 54.1099C44.0825 54.1164 44.0825 54.1229 44.0822 54.1295L41.9412 59.7491C41.9031 59.8491 41.8851 59.9555 41.8882 60.0624C41.8912 60.1693 41.9153 60.2746 41.9591 60.3722C42.0028 60.4698 42.0654 60.5578 42.1432 60.6312C42.221 60.7047 42.3124 60.762 42.4124 60.8001C42.5123 60.8382 42.6188 60.8562 42.7257 60.8531C42.8326 60.8501 42.9379 60.826 43.0355 60.7822C43.1331 60.7384 43.2211 60.6759 43.2945 60.5981C43.3679 60.5203 43.4253 60.4288 43.4634 60.3289L43.7956 59.4603H46.1125L46.4404 60.3289C46.4993 60.4833 46.6037 60.6163 46.7398 60.7101C46.8759 60.8039 47.0373 60.8542 47.2026 60.8544C47.3012 60.855 47.3992 60.8374 47.4914 60.8023C47.6931 60.7258 47.8563 60.5724 47.945 60.3758C48.0338 60.1792 48.0409 59.9553 47.9647 59.7535L45.8194 54.1316ZM44.3927 57.8231L44.9356 56.3986L45.4719 57.8231H44.3927Z" fill="#16327A"/>
<path d="M38.7471 53.5171C38.6402 53.5179 38.5346 53.5399 38.4363 53.5816C38.3379 53.6233 38.2488 53.6841 38.174 53.7603C38.0991 53.8366 38.0401 53.9268 38.0002 54.0259C37.9603 54.125 37.9403 54.2311 37.9415 54.3379L37.9719 57.4973L35.4726 53.8776C35.3735 53.7352 35.2318 53.6281 35.0679 53.5715C34.904 53.5149 34.7263 53.5118 34.5606 53.5627C34.3946 53.6149 34.2495 53.7185 34.1464 53.8587C34.0434 53.9989 33.9876 54.1683 33.9873 54.3422V60.0466C33.9873 60.2626 34.0731 60.4697 34.2258 60.6224C34.3785 60.7751 34.5856 60.8609 34.8016 60.8609C35.0176 60.8609 35.2247 60.7751 35.3774 60.6224C35.5301 60.4697 35.6159 60.2626 35.6159 60.0466V56.9523L37.9914 60.3919C38.0964 60.5533 38.251 60.6763 38.4319 60.7425C38.6128 60.8087 38.8102 60.8144 38.9946 60.7588C39.1842 60.6957 39.348 60.5726 39.4612 60.408C39.5745 60.2434 39.631 60.0464 39.6222 59.8468L39.5701 54.3227C39.5678 54.1083 39.481 53.9034 39.3285 53.7525C39.176 53.6017 38.9702 53.5171 38.7558 53.5171H38.7471Z" fill="#16327A"/>
<path d="M60.4635 59.1411H58.9001V57.9447H60.2876C60.5036 57.9447 60.7107 57.8589 60.8634 57.7062C61.0161 57.5535 61.1019 57.3463 61.1019 57.1304C61.1019 56.9144 61.0161 56.7073 60.8634 56.5546C60.7107 56.4019 60.5036 56.3161 60.2876 56.3161H58.9001V55.1218H60.4635C60.6794 55.1218 60.8866 55.036 61.0393 54.8833C61.192 54.7306 61.2778 54.5235 61.2778 54.3075C61.2778 54.0916 61.192 53.8844 61.0393 53.7317C60.8866 53.579 60.6794 53.4932 60.4635 53.4932H58.0749C57.9679 53.4929 57.8619 53.5138 57.763 53.5546C57.664 53.5955 57.5742 53.6554 57.4985 53.7311C57.4228 53.8068 57.3628 53.8966 57.322 53.9956C57.2812 54.0945 57.2603 54.2005 57.2606 54.3075V59.9532C57.2603 60.0603 57.2812 60.1663 57.322 60.2652C57.3628 60.3641 57.4228 60.454 57.4985 60.5297C57.5742 60.6054 57.664 60.6653 57.763 60.7061C57.8619 60.747 57.9679 60.7678 58.0749 60.7675H60.4635C60.6794 60.7675 60.8866 60.6818 61.0393 60.529C61.192 60.3763 61.2778 60.1692 61.2778 59.9532C61.2781 59.8462 61.2572 59.7402 61.2164 59.6413C61.1756 59.5424 61.1156 59.4525 61.0399 59.3768C60.9642 59.3012 60.8744 59.2412 60.7754 59.2004C60.6765 59.1595 60.5705 59.1387 60.4635 59.139V59.1411Z" fill="#16327A"/>
<path d="M19.1021 53.6105H17.5278C17.3115 53.6098 17.1038 53.6949 16.9502 53.8472C16.8747 53.9231 16.8149 54.0133 16.7743 54.1124C16.7337 54.2115 16.713 54.3177 16.7135 54.4248V59.8533C16.7133 59.9118 16.7199 59.9701 16.7331 60.027C16.7509 60.214 16.833 60.3889 16.9654 60.5221C17.0407 60.5973 17.1301 60.6569 17.2285 60.6975C17.3268 60.7381 17.4322 60.759 17.5387 60.7588C17.5864 60.7588 18.7047 60.7588 19.152 60.7458C20.8892 60.7154 22.1399 59.2258 22.1399 57.1781C22.1399 55.0371 20.9152 53.5996 19.0999 53.5996L19.1021 53.6105ZM19.1347 59.1281H18.3595C18.3595 58.4767 18.3595 57.6211 18.3595 57.1738C18.3595 56.8003 18.3595 55.9013 18.3595 55.2304H19.1108C20.4267 55.2304 20.5309 56.7221 20.5309 57.1846C20.5309 58.1379 20.0966 59.1085 19.1433 59.1237L19.1347 59.1281Z" fill="#16327A"/>
<path d="M54.2054 53.4672H51.0568C50.9498 53.4669 50.8438 53.4878 50.7449 53.5286C50.646 53.5694 50.5561 53.6294 50.4804 53.705C50.4048 53.7807 50.3448 53.8706 50.304 53.9695C50.2631 54.0684 50.2423 54.1744 50.2426 54.2815C50.2426 54.4974 50.3284 54.7045 50.4811 54.8572C50.6338 55.0099 50.8409 55.0957 51.0568 55.0957H51.8103V59.9815C51.8103 60.1974 51.8961 60.4045 52.0488 60.5572C52.2015 60.7099 52.4087 60.7957 52.6246 60.7957C52.8406 60.7957 53.0477 60.7099 53.2004 60.5572C53.3531 60.4045 53.4389 60.1974 53.4389 59.9815V55.1001H54.2054C54.4214 55.1001 54.6285 55.0143 54.7812 54.8616C54.9339 54.7089 55.0197 54.5018 55.0197 54.2858C55.02 54.1788 54.9991 54.0728 54.9583 53.9738C54.9175 53.8749 54.8575 53.7851 54.7818 53.7094C54.7062 53.6337 54.6163 53.5737 54.5174 53.5329C54.4185 53.4921 54.3124 53.4712 54.2054 53.4715V53.4672Z" fill="#16327A"/>
<path d="M28.0658 53.5236C27.094 53.5248 26.1624 53.9113 25.4752 54.5985C24.7881 55.2856 24.4015 56.2172 24.4004 57.189C24.4015 58.1606 24.7881 59.092 25.4753 59.7788C26.1625 60.4656 27.0942 60.8516 28.0658 60.8522C29.037 60.8511 29.968 60.4648 30.6548 59.778C31.3415 59.0913 31.7278 58.1602 31.729 57.189C31.7284 56.2174 31.3423 55.2858 30.6555 54.5986C29.9687 53.9114 29.0373 53.5248 28.0658 53.5236ZM28.0658 59.2236C27.526 59.2236 27.0082 59.0093 26.6263 58.6278C26.2444 58.2463 26.0295 57.7288 26.029 57.189C26.0295 56.649 26.2443 56.1312 26.6262 55.7494C27.008 55.3675 27.5258 55.1528 28.0658 55.1522C28.6054 55.1533 29.1226 55.3684 29.504 55.7502C29.8853 56.1319 30.0998 56.6494 30.1004 57.189C30.0998 57.7284 29.8853 58.2456 29.5038 58.6271C29.1224 59.0085 28.6052 59.2231 28.0658 59.2236Z" fill="#16327A"/>
<path d="M54.1685 15.3151H23.8249C23.7326 15.3152 23.6417 15.3381 23.5602 15.3816C23.4788 15.4252 23.4094 15.4881 23.358 15.5648L20.7523 19.4365C20.6982 19.5212 20.6677 19.6188 20.6639 19.7192C20.6601 19.8197 20.6831 19.9193 20.7307 20.0079C20.7783 20.0964 20.8487 20.1706 20.9346 20.2229C21.0204 20.2751 21.1187 20.3035 21.2192 20.3051H56.7764C56.8769 20.3035 56.9751 20.2751 57.061 20.2229C57.1469 20.1706 57.2172 20.0964 57.2648 20.0079C57.3124 19.9193 57.3355 19.8197 57.3317 19.7192C57.3279 19.6188 57.2974 19.5212 57.2432 19.4365L54.6375 15.5648C54.5862 15.4881 54.5167 15.4252 54.4353 15.3816C54.3539 15.3381 54.263 15.3152 54.1707 15.3151H54.1685Z" fill="#9E939D"/>
<path d="M49.1547 20.3159C50.5229 18.2952 51.2522 15.9098 51.2479 13.4694C51.2479 10.2207 49.9574 7.10514 47.6603 4.808C45.3631 2.51086 42.2475 1.22034 38.9989 1.22034C35.7506 1.22091 32.6356 2.51169 30.3389 4.80877C28.0422 7.10585 26.752 10.2211 26.752 13.4694C26.7465 15.6875 27.3472 17.865 28.4891 19.7665L28.8583 20.3202L49.1547 20.3159Z" fill="#FDB441"/>
<path d="M51.248 13.4694C51.2512 15.9096 50.522 18.2947 49.1547 20.3159H45.1571C46.5244 18.2947 47.2536 15.9096 47.2504 13.4694C47.2507 10.5674 46.2204 7.75965 44.3434 5.54653C42.4663 3.3334 39.8643 1.85874 37.0012 1.38537C37.6614 1.27537 38.3296 1.22017 38.9989 1.22034C42.2476 1.22034 45.3632 2.51086 47.6603 4.808C49.9575 7.10514 51.248 10.2207 51.248 13.4694Z" fill="#FEA613"/>
<path d="M76.7796 25.4448H1.22034V32.1524H76.7796V25.4448Z" fill="white"/>
<path d="M76.7797 25.4448H72.7668V32.1524H76.7797V25.4448Z" fill="white"/>
<path d="M77.7134 24.6566L64.8498 9.5999C64.5125 9.20379 64.0931 8.88577 63.6207 8.66792C63.1482 8.45007 62.6341 8.3376 62.1138 8.3383H51.4608C50.8152 6.77353 49.8795 5.34496 48.703 4.12789C48.5922 4.01215 48.4596 3.91945 48.3128 3.85513C48.166 3.79082 48.008 3.75616 47.8477 3.75313C47.6875 3.75011 47.5283 3.77877 47.3792 3.83749C47.2301 3.89622 47.0941 3.98384 46.9789 4.09531C46.8631 4.20633 46.7704 4.33914 46.706 4.4861C46.6417 4.63306 46.607 4.79129 46.604 4.95169C46.601 5.11209 46.6296 5.27151 46.6884 5.42079C46.7472 5.57008 46.8348 5.70629 46.9463 5.8216C48.9323 7.87325 50.04 10.6184 50.0341 13.4737C50.0371 15.4538 49.5044 17.3979 48.4924 19.0999H29.5141C28.5041 17.397 27.9716 15.4536 27.9724 13.4737C27.9758 10.5504 29.1387 7.74773 31.2058 5.6806C33.2729 3.61347 36.0756 2.45065 38.9989 2.4472C40.2294 2.44579 41.4515 2.65057 42.6143 3.05303C42.9205 3.15845 43.2559 3.13836 43.5472 2.99716C43.8386 2.85596 44.0622 2.60514 44.1691 2.29955C44.2745 1.99342 44.2544 1.65801 44.1132 1.36665C43.972 1.0753 43.7212 0.851717 43.4156 0.744793C41.995 0.253123 40.5022 0.00284776 38.9989 0.00434013C36.3328 0.00769246 33.7276 0.801156 31.5122 2.28449C29.2969 3.76782 27.5709 5.87447 26.5523 8.3383H15.8927C15.3721 8.33758 14.8576 8.45003 14.3848 8.66787C13.912 8.88571 13.4922 9.20373 13.1545 9.5999L0.293141 24.6566C0.105833 24.878 0.00413138 25.1592 0.00651054 25.4492V82.1626C0.00622448 82.323 0.0375935 82.4818 0.0988202 82.63C0.160047 82.7782 0.249928 82.9128 0.363304 83.0262C0.476681 83.1396 0.611326 83.2294 0.759514 83.2906C0.907702 83.3519 1.06652 83.3833 1.22685 83.383H10.3295C10.6531 83.383 10.9635 83.2544 11.1924 83.0255C11.4213 82.7967 11.5498 82.4863 11.5498 82.1626C11.5498 81.839 11.4213 81.5286 11.1924 81.2997C10.9635 81.0708 10.6531 80.9423 10.3295 80.9423H2.4472V33.3727H75.5636V80.9401H15.9926C15.6689 80.9401 15.3585 81.0687 15.1297 81.2976C14.9008 81.5264 14.7722 81.8368 14.7722 82.1605C14.7722 82.4841 14.9008 82.7945 15.1297 83.0234C15.3585 83.2522 15.6689 83.3808 15.9926 83.3808H76.7796C77.1033 83.3808 77.4137 83.2522 77.6426 83.0234C77.8714 82.7945 78 82.4841 78 82.1605V25.4427C77.9963 25.1551 77.8952 24.8772 77.7134 24.6544V24.6566ZM52.1165 16.5355H53.8189L55.5561 19.0956H51.248C51.6243 18.2741 51.9153 17.4163 52.1165 16.5355ZM26.7629 19.0956H22.4548L24.1811 16.5355H25.8856C26.0884 17.4158 26.3794 18.2735 26.7542 19.0956H26.7629ZM15.0133 11.1807C15.1216 11.0533 15.2564 10.951 15.4083 10.8808C15.5601 10.8107 15.7254 10.7745 15.8927 10.7746H25.8031C25.6221 11.6615 25.5312 12.5643 25.5317 13.4694C25.5317 13.6865 25.5317 13.8863 25.5491 14.0948H23.8249C23.5324 14.0947 23.2444 14.1666 22.9861 14.304C22.7279 14.4415 22.5074 14.6403 22.344 14.883L19.7383 18.7525C19.5571 19.0212 19.4525 19.3341 19.4357 19.6577C19.4188 19.9814 19.4904 20.3035 19.6428 20.5895C19.7946 20.8759 20.0216 21.1156 20.2993 21.2828C20.577 21.4499 20.8951 21.5383 21.2192 21.5384H56.7764C57.1006 21.5383 57.4186 21.4499 57.6964 21.2828C57.9741 21.1156 58.2011 20.8759 58.3529 20.5895C58.5052 20.3035 58.5768 19.9814 58.56 19.6577C58.5431 19.3341 58.4385 19.0212 58.2573 18.7525L55.6516 14.883C55.4886 14.6405 55.2685 14.4417 55.0106 14.3043C54.7528 14.1669 54.4651 14.0949 54.1729 14.0948H52.4574C52.4574 13.8776 52.4726 13.6778 52.4726 13.4694C52.4723 12.5643 52.3813 11.6616 52.2012 10.7746H62.1116C62.2789 10.7745 62.4442 10.8107 62.5961 10.8808C62.7479 10.951 62.8827 11.0533 62.9911 11.1807L74.1348 24.2245H3.86948L15.0133 11.1807ZM75.5593 30.9407H2.44069V26.676H75.5571V30.9407H75.5593Z" fill="white"/>
</g>
<defs>
<clipPath id="clip0_134_788">
<rect width="78" height="83.383" fill="white"/>
</clipPath>
</defs>
</svg>
