<svg width="78" height="91" viewBox="0 0 78 91" fill="none" xmlns="http://www.w3.org/2000/svg">
<g clip-path="url(#clip0_134_779)">
<path d="M47.1472 27.4728C47.2725 27.35 47.3721 27.2035 47.4401 27.0417C47.508 26.8799 47.5431 26.7062 47.5431 26.5307C47.5431 26.3552 47.508 26.1815 47.4401 26.0197C47.3721 25.8579 47.2725 25.7114 47.1472 25.5886C47.0242 25.4635 46.8776 25.3642 46.7158 25.2964C46.554 25.2286 46.3804 25.1937 46.205 25.1937C46.0296 25.1937 45.856 25.2286 45.6942 25.2964C45.5325 25.3642 45.3859 25.4635 45.2629 25.5886L40.1918 30.6338C39.871 30.9527 39.437 31.1316 38.9847 31.1316C38.5323 31.1316 38.0984 30.9527 37.7776 30.6338L23.1743 16.113C22.0297 14.9836 21.2557 13.5326 20.9553 11.9529C20.6549 10.3731 20.8423 8.7393 21.4926 7.26859C22.2534 5.50691 23.6467 4.09435 25.3978 3.30951C27.1489 2.52466 29.1305 2.42453 30.9517 3.02895L37.6127 5.21708C38.496 5.50907 39.4498 5.50907 40.3331 5.21708L46.9941 3.0313C48.8153 2.42633 50.7971 2.52615 52.5484 3.31106C54.2996 4.09597 55.6929 5.50891 56.4532 7.27095C57.1033 8.74131 57.2906 10.3747 56.9902 11.9541C56.6898 13.5334 55.9159 14.9839 54.7715 16.113L49.7051 21.1558C49.5806 21.2791 49.4818 21.4258 49.4143 21.5876C49.3469 21.7493 49.3122 21.9228 49.3122 22.098C49.3122 22.2732 49.3469 22.4466 49.4143 22.6083C49.4818 22.77 49.5806 22.9168 49.7051 23.0401C49.8279 23.1634 49.9738 23.2612 50.1344 23.3279C50.2951 23.3947 50.4674 23.429 50.6413 23.429C50.8153 23.429 50.9876 23.3947 51.1483 23.3279C51.3089 23.2612 51.4548 23.1634 51.5776 23.0401L56.6463 17.9973C58.1696 16.4928 59.1996 14.5608 59.5996 12.4576C59.9996 10.3543 59.7509 8.1791 58.8863 6.22047C57.863 3.85223 55.989 1.95371 53.6343 0.899753C51.2795 -0.154209 48.6152 -0.286991 46.1673 0.527588L39.504 2.71337C39.1577 2.82884 38.7833 2.82884 38.4371 2.71337L31.7737 0.527588C29.3259 -0.286991 26.6616 -0.154209 24.3068 0.899753C21.9521 1.95371 20.0781 3.85223 19.0548 6.22047C18.1902 8.1791 17.9414 10.3543 18.3415 12.4576C18.7415 14.5608 19.7715 16.4928 21.2948 17.9973L35.898 32.5204C36.7151 33.3335 37.8214 33.7892 38.9741 33.7876C40.1276 33.7898 41.2348 33.334 42.0525 32.5204L47.1472 27.4728Z" fill="white"/>
<path d="M37.1251 79.8537C36.9303 79.5607 36.6272 79.3569 36.2823 79.2872C35.9375 79.2174 35.579 79.2873 35.2856 79.4815L32.0305 81.6437L31.9457 78.1908L34.7321 69.874C35.3099 68.1554 35.5841 66.3494 35.5423 64.5368C35.5423 64.5368 35.3751 43.6424 35.3751 43.6283C35.2903 41.0068 33.2035 39.6383 31.1779 39.6383H31.1637C30.6166 39.6364 30.0732 39.7288 29.5574 39.9115V39.3015C29.5056 37.3206 28.0264 35.3138 25.3013 35.2974C24.2398 35.2883 23.2112 35.6649 22.4065 36.3573C21.5815 35.6699 20.5409 35.2947 19.467 35.2974C18.7521 35.2846 18.0458 35.4545 17.4148 35.7908C16.7838 36.1271 16.249 36.6188 15.861 37.2194C15.1939 36.8797 14.4589 36.6946 13.7106 36.6776C10.9831 36.6776 9.50151 38.6938 9.44969 40.6817V54.3757C9.45032 54.727 9.59032 55.0637 9.83894 55.3119C10.0876 55.5601 10.4245 55.6995 10.7758 55.6995C11.1268 55.6995 11.4635 55.56 11.7118 55.3118C11.96 55.0636 12.0995 54.7268 12.0995 54.3757V40.7359C12.1466 39.3792 13.5574 39.3368 13.7176 39.3345C14.0733 39.3345 15.218 39.4334 15.2698 40.7477V57.2352C15.2698 57.4093 15.3041 57.5818 15.3707 57.7427C15.4374 57.9035 15.535 58.0497 15.6582 58.1728C15.7813 58.296 15.9275 58.3937 16.0884 58.4603C16.2493 58.5269 16.4217 58.5612 16.5959 58.5612C16.9472 58.5606 17.2838 58.4207 17.532 58.172C17.7802 57.9234 17.9196 57.5865 17.9196 57.2352V39.358C17.9737 38.0578 19.0972 37.9448 19.467 37.9448C19.6036 37.9448 20.9533 37.9825 21.0875 39.3439V57.2092C21.0875 57.5609 21.2272 57.8982 21.4759 58.1469C21.7246 58.3956 22.0619 58.5353 22.4136 58.5353C22.7649 58.5347 23.1015 58.3947 23.3497 58.1461C23.5979 57.8975 23.7373 57.5605 23.7373 57.2092V39.358C23.7915 38.0508 24.9362 37.9448 25.2918 37.9448C25.452 37.9448 26.8628 37.9896 26.9076 39.3439V57.2092C26.9076 57.3834 26.9419 57.5558 27.0085 57.7167C27.0752 57.8776 27.1729 58.0238 27.296 58.1469C27.4191 58.27 27.5653 58.3677 27.7262 58.4344C27.8871 58.501 28.0595 58.5353 28.2337 58.5353C28.4077 58.5353 28.58 58.501 28.7408 58.4344C28.9015 58.3677 29.0476 58.27 29.1705 58.1468C29.2935 58.0236 29.3909 57.8774 29.4573 57.7165C29.5237 57.5557 29.5577 57.3833 29.5574 57.2092V43.6801C29.6045 42.3234 31.013 42.281 31.1731 42.281C31.3682 42.2703 31.5635 42.2984 31.7476 42.3639C31.9317 42.4294 32.1009 42.5308 32.2454 42.6623C32.3899 42.7939 32.5067 42.9529 32.5891 43.13C32.6715 43.3072 32.7178 43.499 32.7253 43.6942L32.8926 64.5957C32.9274 66.1018 32.7003 67.6024 32.2213 69.0308L29.3595 77.5689C29.3099 77.7152 29.2868 77.8692 29.2912 78.0236L29.409 82.7484H9.31545L9.15999 74.8697C9.15735 74.2102 8.98803 73.562 8.66773 72.9854C7.5984 71.0517 4.01118 64.4567 2.74636 60.6763C2.6662 60.4385 2.63573 60.1868 2.65685 59.9368C2.80524 58.1561 3.2245 53.0921 3.25276 52.7459C3.27783 52.5358 3.3521 52.3346 3.46955 52.1586C3.58701 51.9826 3.74435 51.8368 3.92875 51.733C4.11434 51.6264 4.32262 51.5655 4.53639 51.5553C4.75017 51.5451 4.96331 51.5858 5.15824 51.6742C5.38903 51.7791 5.58612 51.9462 5.72753 52.1566C5.86893 52.3671 5.94909 52.6126 5.95907 52.866L6.04857 58.1608C6.06191 58.9027 6.36148 59.6108 6.88471 60.137L16.4074 69.6715C16.5307 69.796 16.6775 69.8947 16.8392 69.9622C17.0009 70.0296 17.1744 70.0643 17.3496 70.0643C17.5248 70.0643 17.6983 70.0296 17.86 69.9622C18.0217 69.8947 18.1684 69.796 18.2917 69.6715C18.4159 69.548 18.5145 69.4012 18.5817 69.2395C18.649 69.0778 18.6836 68.9045 18.6836 68.7293C18.6836 68.5542 18.649 68.3808 18.5817 68.2191C18.5145 68.0574 18.4159 67.9107 18.2917 67.7872L8.77371 58.2574C8.7338 58.2161 8.71033 58.1617 8.70775 58.1043L8.61827 52.7953C8.59601 52.0431 8.36356 51.3122 7.94729 50.6853C7.53102 50.0584 6.94755 49.5605 6.26292 49.2481C5.68813 48.9854 5.05889 48.8637 4.42757 48.8932C3.79625 48.9227 3.18109 49.1025 2.6333 49.4178C2.08265 49.7278 1.61392 50.1648 1.26612 50.6925C0.918322 51.2201 0.701491 51.8231 0.633609 52.4514C0.633609 52.4514 0.633598 52.5009 0.0329817 59.7083C-0.0179597 60.3159 0.0557898 60.9274 0.249685 61.5054C1.58517 65.5095 5.26895 72.2741 6.37361 74.2574C6.47815 74.448 6.5332 74.6617 6.53376 74.8791V74.9051L6.81406 89.1408C6.82084 89.4876 6.96322 89.8179 7.21067 90.061C7.45811 90.304 7.79093 90.4404 8.13777 90.441H30.9164C31.0921 90.4395 31.2657 90.4033 31.4274 90.3346C31.5891 90.2659 31.7356 90.166 31.8586 90.0406C31.9815 89.9137 32.0779 89.7635 32.1422 89.5989C32.2065 89.4343 32.2374 89.2586 32.2331 89.082L32.1718 86.5805L35.3021 88.658C35.5988 88.8383 35.9525 88.9004 36.2929 88.8319C36.6333 88.7634 36.9354 88.5692 37.1393 88.2882C37.2358 88.1433 37.3028 87.9809 37.3365 87.8101C37.3702 87.6393 37.3698 87.4635 37.3355 87.2929C37.3011 87.1222 37.2334 86.9601 37.1363 86.8156C37.0392 86.6712 36.9145 86.5473 36.7695 86.451L33.1799 84.0697L36.7695 81.6862C37.0623 81.4918 37.266 81.1891 37.3358 80.8446C37.4056 80.5001 37.3358 80.142 37.1416 79.849L37.1251 79.8537ZM9.41436 87.7959L9.36726 85.3982H29.4749L29.5338 87.7959H9.41436Z" fill="white"/>
<path d="M77.4088 75.7506L73.8192 73.3694L77.4088 70.9858C77.7016 70.7914 77.9053 70.4887 77.9751 70.1442C78.0449 69.7997 77.9751 69.4416 77.7809 69.1486C77.5866 68.8557 77.2839 68.6521 76.9394 68.5823C76.5949 68.5125 76.2368 68.5823 75.9438 68.7765L71.0234 72.0433H49.9995V64.0916C49.9985 63.4244 49.8292 62.7682 49.5072 62.1838C48.4355 60.2524 44.8483 53.6551 43.5859 49.8771C43.5063 49.6391 43.4751 49.3877 43.494 49.1375C43.6165 47.663 44.0546 42.3729 44.0899 41.9442C44.1153 41.7345 44.1898 41.5338 44.3072 41.3582C44.4247 41.1827 44.5818 41.0373 44.7659 40.9338C44.9513 40.8266 45.1596 40.7654 45.3735 40.7551C45.5874 40.7449 45.8006 40.786 45.9954 40.8749C46.2244 40.9784 46.4204 41.1431 46.5618 41.3509C46.7031 41.5587 46.7842 41.8016 46.7962 42.0526L46.8857 47.3498C46.8988 48.0906 47.1975 48.7977 47.7195 49.3235L49.7216 51.3397C50.3811 51.8556 51.547 51.9333 51.9568 50.7038L52.8989 46.7209C52.9224 46.6205 52.9343 46.5178 52.9343 46.4147V29.9272C52.9814 28.5705 54.3923 28.5281 54.5524 28.5257C54.7474 28.5156 54.9424 28.5442 55.1262 28.6099C55.31 28.6756 55.479 28.7772 55.6233 28.9086C55.7676 29.04 55.8845 29.1987 55.9671 29.3756C56.0497 29.5525 56.0964 29.7439 56.1046 29.939V46.4264C56.1046 46.7777 56.244 47.1147 56.4921 47.3633C56.7403 47.6119 57.077 47.7519 57.4283 47.7525C57.78 47.7525 58.1173 47.6129 58.366 47.3642C58.6147 47.1155 58.7544 46.7781 58.7544 46.4264V28.5658C58.8085 27.2657 59.9438 27.1526 60.3018 27.1526C60.4361 27.1526 61.7881 27.1903 61.9223 28.5517V46.4171C61.9223 46.7688 62.062 47.106 62.3107 47.3547C62.5594 47.6034 62.8967 47.7431 63.2484 47.7431C63.4224 47.7431 63.5947 47.7088 63.7555 47.6421C63.9163 47.5755 64.0623 47.4777 64.1852 47.3546C64.3082 47.2314 64.4056 47.0852 64.472 46.9243C64.5384 46.7634 64.5724 46.5911 64.5721 46.4171V28.5564C64.6263 27.2492 65.771 27.155 66.1266 27.1432C66.2868 27.1432 67.6977 27.1856 67.7424 28.5422V46.4076C67.7424 46.7593 67.8821 47.0966 68.1308 47.3453C68.3795 47.594 68.7168 47.7337 69.0685 47.7337C69.4198 47.7331 69.7565 47.5931 70.0046 47.3444C70.2528 47.0958 70.3922 46.7589 70.3922 46.4076V32.9044C70.4369 31.5477 71.8478 31.5053 72.008 31.5029C72.2029 31.4928 72.3979 31.5214 72.5817 31.5871C72.7656 31.6528 72.9345 31.7543 73.0789 31.8857C73.2232 32.0172 73.34 32.1759 73.4227 32.3527C73.5053 32.5296 73.552 32.7211 73.5602 32.9162L73.7274 53.8176C73.7613 55.3238 73.5333 56.8245 73.0537 58.2527L70.1967 66.7768C70.1412 66.9416 70.1188 67.1158 70.1307 67.2893C70.1426 67.4628 70.1886 67.6323 70.266 67.788C70.3435 67.9438 70.4509 68.0828 70.582 68.197C70.7132 68.3112 70.8656 68.3984 71.0305 68.4538C71.1663 68.4999 71.3087 68.5237 71.4521 68.5244C71.7297 68.524 72.0002 68.4365 72.2254 68.2743C72.4506 68.112 72.6192 67.8831 72.7075 67.6199L75.5693 59.0818C76.1469 57.3632 76.421 55.5572 76.3795 53.7446C76.3795 53.7446 76.2123 32.8502 76.2123 32.8361C76.1534 30.3229 74.0218 28.832 72.0032 28.8461C71.4554 28.8433 70.9112 28.9349 70.3945 29.1169V28.5069C70.3639 26.6038 68.8377 24.5264 66.1243 24.5028C65.0679 24.4959 64.0447 24.8716 63.2437 25.5604C62.4173 24.8753 61.3776 24.5004 60.3042 24.5005C59.5923 24.4885 58.889 24.6572 58.26 24.9909C57.631 25.3245 57.0969 25.8122 56.7076 26.4083C56.0377 26.0668 55.2972 25.887 54.5453 25.883C52.482 25.883 50.3575 27.2633 50.2892 29.8871C50.2881 29.8989 50.2881 29.9108 50.2892 29.9225V46.271L49.9288 47.7949C49.7854 47.6492 49.6546 47.4916 49.5379 47.3239L49.4483 42.0149C49.4258 41.2627 49.1933 40.5319 48.777 39.9051C48.3608 39.2782 47.7775 38.7804 47.093 38.4677C46.518 38.2053 45.8887 38.084 45.2574 38.1139C44.626 38.1438 44.011 38.3241 43.4634 38.6397C42.9132 38.9497 42.4447 39.3863 42.097 39.9135C41.7492 40.4407 41.5321 41.0432 41.4637 41.671C41.4625 41.6851 41.4625 41.6993 41.4637 41.7134C41.4637 41.7676 41.0185 47.0907 40.8654 48.9279C40.8153 49.5364 40.8899 50.1486 41.0845 50.7273C42.42 54.7197 46.1038 61.4961 47.2084 63.4769C47.3148 63.6677 47.3708 63.8826 47.3709 64.1011V89.1291C47.3706 89.303 47.4046 89.4753 47.4711 89.636C47.5375 89.7968 47.635 89.9428 47.7579 90.0658C47.8809 90.1887 48.027 90.2862 48.1877 90.3526C48.3484 90.4191 48.5207 90.4531 48.6946 90.4528H71.4733C71.6473 90.4531 71.8197 90.4191 71.9806 90.3527C72.1414 90.2863 72.2877 90.1889 72.4108 90.0659C72.534 89.943 72.6317 89.797 72.6984 89.6362C72.7651 89.4755 72.7994 89.3031 72.7994 89.1291V75.8661L75.965 77.9671C76.2618 78.1468 76.6154 78.2086 76.9556 78.1401C77.2958 78.0716 77.5979 77.8779 77.8021 77.5973C77.9963 77.3042 78.0661 76.9461 77.9963 76.6016C77.9265 76.2571 77.7228 75.9545 77.43 75.7601L77.4088 75.7506ZM49.9995 87.796V74.6931H70.126V87.796H49.9995Z" fill="white"/>
<path d="M13.2182 24.8066C12.8672 24.8066 12.5305 24.9461 12.2823 25.1943C12.034 25.4426 11.8945 25.7793 11.8945 26.1303C11.8942 26.3044 11.9282 26.4768 11.9946 26.6376C12.061 26.7985 12.1585 26.9447 12.2814 27.0679C12.4044 27.191 12.5504 27.2887 12.7111 27.3554C12.8719 27.4221 13.0442 27.4564 13.2182 27.4564H14.337V28.5752C14.337 28.7492 14.3714 28.9215 14.438 29.0823C14.5047 29.243 14.6024 29.3891 14.7256 29.512C14.8488 29.635 14.995 29.7325 15.1558 29.7988C15.3167 29.8652 15.4891 29.8992 15.6631 29.8989C16.0142 29.8989 16.3509 29.7595 16.5991 29.5112C16.8474 29.263 16.9868 28.9263 16.9868 28.5752V27.4564H18.1056C18.2797 27.4564 18.4522 27.4221 18.6131 27.3554C18.774 27.2888 18.9202 27.1911 19.0433 27.068C19.1664 26.9448 19.2641 26.7987 19.3307 26.6378C19.3974 26.4769 19.4317 26.3045 19.4317 26.1303C19.4311 25.779 19.2911 25.4423 19.0425 25.1942C18.7938 24.946 18.4569 24.8066 18.1056 24.8066H16.9868V23.6879C16.9868 23.3366 16.8474 22.9996 16.5993 22.751C16.3511 22.5024 16.0144 22.3624 15.6631 22.3618C15.489 22.3618 15.3165 22.396 15.1557 22.4627C14.9948 22.5293 14.8486 22.627 14.7254 22.7501C14.6023 22.8733 14.5046 23.0195 14.438 23.1804C14.3713 23.3413 14.337 23.5137 14.337 23.6879V24.8066H13.2182Z" fill="white"/>
<path d="M13.3785 14.6244C13.4064 14.7945 13.4004 14.9685 13.3609 15.1364C13.3213 15.3042 13.2491 15.4626 13.1482 15.6024C13.0473 15.7423 12.9198 15.8608 12.773 15.9513C12.6262 16.0417 12.4629 16.1023 12.2926 16.1295C12.1226 16.1574 11.9488 16.1515 11.7811 16.1121C11.6134 16.0727 11.4551 16.0007 11.3153 15.9C11.1755 15.7994 11.0569 15.6721 10.9663 15.5256C10.8758 15.379 10.815 15.216 10.7876 15.046C10.7318 14.7021 10.8149 14.3502 11.0185 14.0675C11.2221 13.7849 11.5296 13.5946 11.8734 13.5386C12.0435 13.511 12.2174 13.5172 12.3851 13.5569C12.5529 13.5965 12.7111 13.6688 12.8509 13.7696C12.9907 13.8705 13.1092 13.9979 13.1997 14.1445C13.2902 14.2912 13.351 14.4542 13.3785 14.6244Z" fill="white"/>
<path d="M26.6344 29.0863C26.6347 29.2588 26.601 29.4296 26.5352 29.5891C26.4694 29.7485 26.3728 29.8934 26.2509 30.0155C26.1291 30.1376 25.9844 30.2344 25.825 30.3005C25.6657 30.3666 25.4949 30.4006 25.3224 30.4006C25.1499 30.4006 24.9792 30.3666 24.8198 30.3005C24.6605 30.2344 24.5158 30.1376 24.3939 30.0155C24.2721 29.8934 24.1755 29.7485 24.1097 29.5891C24.0439 29.4296 24.0102 29.2588 24.0105 29.0863C24.0105 28.7384 24.1487 28.4046 24.3947 28.1586C24.6408 27.9126 24.9745 27.7744 25.3224 27.7744C25.6704 27.7744 26.0041 27.9126 26.2501 28.1586C26.4961 28.4046 26.6344 28.7384 26.6344 29.0863Z" fill="white"/>
<path d="M63.2508 15.5383C63.4232 15.5383 63.594 15.5043 63.7534 15.4382C63.9127 15.3721 64.0574 15.2753 64.1793 15.1532C64.3011 15.0311 64.3977 14.8863 64.4635 14.7268C64.5293 14.5674 64.563 14.3965 64.5627 14.224C64.5627 14.0517 64.5288 13.8811 64.4628 13.7219C64.3969 13.5628 64.3003 13.4182 64.1784 13.2964C64.0566 13.1745 63.912 13.0779 63.7528 13.0119C63.5936 12.946 63.423 12.9121 63.2508 12.9121C63.0783 12.9118 62.9074 12.9455 62.748 13.0112C62.5885 13.077 62.4436 13.1736 62.3216 13.2955C62.1995 13.4173 62.1026 13.5621 62.0365 13.7214C61.9705 13.8807 61.9365 14.0515 61.9365 14.224C61.9365 14.5726 62.0749 14.9069 62.3214 15.1534C62.5679 15.3999 62.9022 15.5383 63.2508 15.5383Z" fill="white"/>
</g>
<defs>
<clipPath id="clip0_134_779">
<rect width="78" height="90.4457" fill="white"/>
</clipPath>
</defs>
</svg>
