<svg width="78" height="86" viewBox="0 0 78 86" fill="none" xmlns="http://www.w3.org/2000/svg">
<g clip-path="url(#clip0_130_707)">
<path d="M2.50856 80.4498C8.00514 84.8085 14.6337 86.273 17.2806 85.9603C18.8006 85.7791 19.6087 84.8532 20.4416 83.7908C22.9551 82.0533 22.7821 82.3016 22.9774 82.0111C23.7664 81.7924 24.4394 81.2732 24.8532 80.564C26.9688 80.7675 33.0215 80.5069 37.4059 78.8836C47.1584 75.277 51.5947 64.0724 46.0833 62.6899C47.7837 60.0761 48.6833 56.7326 45.8361 55.4419C46.0823 54.6096 46.0092 53.7148 45.6314 52.9338C45.2536 52.1529 44.5983 51.5423 43.7947 51.2222C44.5139 49.0503 43.335 47.0795 40.6781 47.1142C40.4656 46.4589 39.8551 45.7887 39.304 45.6249C40.7152 45.5331 40.5966 42.8176 39.4251 41.9016C48.3224 42.125 55.816 46.2851 56.5574 47.0348C57.4348 47.9283 58.3567 48.7574 59.5603 48.3205C62.6323 47.2036 63.1859 39.1613 62.8646 34.7331C61.8365 20.6343 55.9025 7.29015 52.5783 2.58394C49.8597 -1.2684 46.8247 -0.270554 45.715 2.06269C38.0979 10.6386 29.5367 17.204 20.2588 21.5552C17.9627 22.6225 15.6494 23.6278 13.8329 25.3554C10.2789 28.7238 8.53158 35.8898 11.915 41.0155C14.1987 44.4756 18.415 46.444 22.5202 46.2951C21.6724 47.3128 21.0076 48.611 20.9409 49.6882C20.6418 54.4689 20.3428 53.9526 19.2652 57.9365C18.5859 60.4516 18.1196 63.0198 17.8713 65.6139C17.614 65.4446 17.3239 65.3321 17.0202 65.2838C16.7164 65.2355 16.4059 65.2523 16.1091 65.3334C15.393 65.5318 14.7821 66.0029 14.4063 66.6465C13.5857 67.0982 7.77036 71.236 7.00668 71.7821C5.05667 73.1746 3.21787 74.4901 0.375667 76.4113C-0.914447 77.2851 1.38897 79.5612 2.50114 80.4449L2.50856 80.4498ZM50.9842 3.73568C54.4443 8.63798 59.9186 21.302 60.9072 34.8771C61.0901 37.3369 60.8677 45.677 58.9473 46.449C56.681 46.1164 52.1631 37.1979 51.2017 35.1054C52.3963 33.6759 53.8035 32.4401 55.3736 31.4417C55.5982 31.5365 55.8392 31.5863 56.0829 31.5882C58.9127 31.5882 58.5791 26.3756 57.9933 23.598C57.2272 19.9666 55.5021 16.5114 53.3816 16.9533C53.1233 17.0147 52.8803 17.1289 52.6677 17.2885C52.4551 17.4482 52.2775 17.6501 52.1458 17.8816C50.258 18.1133 48.3492 18.1133 46.4614 17.8816C45.9918 13.1655 46.4194 5.54268 47.4698 3.0332C48.1099 1.67545 49.2838 1.2957 51.0015 3.73568H50.9842ZM51.8443 24.9037C52.2595 26.8745 52.9589 28.7908 53.8487 30.0641C52.5624 30.9414 51.3822 31.966 50.3318 33.1172C48.5638 28.8845 47.3396 24.4429 46.6888 19.8996C48.2894 20.0811 49.9044 20.0969 51.5082 19.9468C51.3327 21.3889 51.481 23.1736 51.8443 24.9111V24.9037ZM44.7635 6.02424C42.9148 19.5596 46.4713 32.3626 53.2901 43.0732C47.2099 40.357 40.5094 39.3498 33.9038 40.1591C32.93 40.2733 32.5321 41.8396 33.5776 42.2466C34.8133 42.7257 35.9131 44.0537 36.1059 45.2699C36.2492 46.1561 36.0713 46.8139 34.7738 47.6305C33.8939 48.184 34.3586 49.5194 35.3892 49.5194C35.6182 49.5194 35.84 49.4396 36.0169 49.2935L36.0441 49.2737C36.1479 49.2757 36.2502 49.2987 36.3449 49.3414C36.4396 49.384 36.5248 49.4454 36.5953 49.5219C36.4643 49.6336 30.3523 54.5086 28.5061 55.6777V55.6479C29.1067 52.848 29.3266 49.4748 27.7646 47.0795C27.4099 45.4304 27.1442 43.7632 26.9688 42.0853C26.9832 41.9094 26.9498 41.7328 26.8721 41.5745C26.7945 41.4161 26.6755 41.2819 26.5279 41.1861C26.3802 41.0903 26.2095 41.0365 26.0338 41.0305C25.8582 41.0245 25.6842 41.0665 25.5304 41.152C25.355 41.2488 25.1721 41.3208 24.9916 41.4002C20.5652 36.8032 18.8549 29.6943 20.7506 23.5856C20.7506 23.5608 20.7506 23.536 20.7506 23.5112C21.1831 23.2629 32.5099 18.795 44.7487 6.01678L44.7635 6.02424ZM15.207 26.8001C16.1806 25.9252 17.2743 25.1955 18.4546 24.6331C17.8297 27.6862 17.9056 30.842 18.6764 33.8612C19.4473 36.8804 20.8928 39.6836 22.9032 42.058C21.0087 42.4055 19.0532 42.1323 17.3251 41.2786C16.0505 40.6314 14.9494 39.686 14.1147 38.522C13.2799 37.358 12.7359 36.0096 12.5285 34.5904C12.3212 33.1711 12.4565 31.7226 12.923 30.3668C13.3896 29.0111 14.1738 27.7878 15.2095 26.8001H15.207ZM16.6183 67.2595C16.8654 67.195 17.2608 67.5078 17.7378 68.5279C17.7378 68.7761 17.7378 69.0244 17.7378 69.2726C17.7724 71.0995 20.5405 70.0967 19.7397 68.1854C19.8389 64.9007 20.3259 61.6395 21.1905 58.4702C22.2335 54.6178 22.6166 54.866 22.9205 49.8272C22.9972 48.6109 24.4726 46.8734 25.0954 46.6476C25.3426 47.0472 25.5897 47.3922 25.7776 47.6851C28.4641 51.7186 25.8567 57.3656 25.8319 57.4972C25.7949 57.6722 25.8057 57.8541 25.8632 58.0236C25.9206 58.193 26.0226 58.3437 26.1584 58.4597C26.2941 58.5756 26.4586 58.6526 26.6343 58.6824C26.81 58.7122 26.9905 58.6938 27.1567 58.629C31.378 56.9585 38.5403 49.9414 40.6386 49.1148C41.4319 48.9336 42.3316 49.4599 41.9238 50.6339C41.516 51.808 38.6911 54.0271 37.6951 54.7891C37.5918 54.8683 37.5051 54.9671 37.4399 55.0799C37.3747 55.1928 37.3322 55.3174 37.315 55.4467C37.2978 55.5761 37.3061 55.7076 37.3395 55.8336C37.3729 55.9597 37.4308 56.078 37.5097 56.1816C37.5885 56.2853 37.6869 56.3724 37.7993 56.4379C37.9117 56.5034 38.0358 56.546 38.1645 56.5633C38.2933 56.5806 38.4242 56.5722 38.5497 56.5387C38.6753 56.5051 38.793 56.447 38.8962 56.3677C39.2818 56.0724 40.2704 55.6802 42.6652 52.9945C42.9745 53.031 43.2655 53.1609 43.4998 53.3669C43.7341 53.573 43.9007 53.8456 43.9776 54.1487C44.2247 55.638 43.3869 55.7124 39.2472 59.3091C39.097 59.4422 38.9905 59.6179 38.9419 59.813C38.8934 60.0081 38.905 60.2135 38.9752 60.4019C39.0454 60.5902 39.1709 60.7527 39.3351 60.8679C39.4993 60.983 39.6944 61.0454 39.8947 61.0466C40.389 61.0466 44.6399 57.3557 44.8105 57.1918C46.9829 57.5642 44.5485 61.63 44.1184 62.0048C43.377 62.6328 42.7468 63.4147 41.9262 64.0079C41.7137 64.1617 41.5706 64.394 41.5284 64.6537C41.4862 64.9134 41.5484 65.1793 41.7013 65.3929C41.8545 65.6064 42.0858 65.7502 42.3443 65.7925C42.6029 65.8349 42.8677 65.7724 43.0804 65.6188C43.4886 65.3154 43.8751 64.9836 44.2371 64.626C44.9983 64.4696 46.2612 64.5614 46.2686 65.1348C46.3156 68.8208 39.734 73.3632 36.3555 74.7905C31.326 76.9152 27.0479 77.568 23.2888 76.7762C22.053 76.528 21.5192 78.3797 22.9724 78.7918C23.531 78.9506 23.2838 80.0577 22.1717 80.1867C20.4416 80.3729 17.9998 78.3375 16.8728 75.5252C15.7878 72.8196 15.6593 68.873 15.951 68.0117C15.9961 67.8451 16.0789 67.6913 16.193 67.5621C16.307 67.433 16.4491 67.332 16.6084 67.267L16.6183 67.2595Z" fill="white"/>
<path d="M63.1637 16.0944L73.2968 7.97523C73.4002 7.89548 73.4869 7.79598 73.5518 7.68244C73.6168 7.56891 73.6588 7.44358 73.6753 7.31369C73.6918 7.1838 73.6826 7.05191 73.6482 6.92561C73.6138 6.79931 73.5548 6.68109 73.4747 6.57777C73.3111 6.37211 73.0729 6.2401 72.8125 6.21077C72.552 6.18145 72.2906 6.25721 72.0857 6.42139L61.9527 14.5431C61.7479 14.7074 61.6165 14.9466 61.5873 15.2082C61.5581 15.4698 61.6335 15.7323 61.797 15.938C61.9606 16.1437 62.1988 16.2757 62.4592 16.305C62.7197 16.3344 62.9811 16.2586 63.1859 16.0944H63.1637Z" fill="white"/>
<path d="M65.0395 23.3772C65.0746 23.5029 65.1341 23.6205 65.2144 23.7231C65.2948 23.8257 65.3946 23.9115 65.508 23.9753C65.6214 24.0392 65.7462 24.08 65.8753 24.0953C66.0045 24.1107 66.1353 24.1002 66.2605 24.0647L75.7262 21.3865C75.8512 21.351 75.968 21.2911 76.0699 21.2102C76.1719 21.1294 76.2569 21.0292 76.3203 20.9153C76.3836 20.8014 76.424 20.6761 76.4391 20.5466C76.4542 20.417 76.4438 20.2857 76.4084 20.1602C76.337 19.9073 76.1686 19.6931 75.9402 19.5647C75.7118 19.4363 75.442 19.4041 75.1899 19.4752L65.7242 22.151C65.5989 22.1862 65.4819 22.2459 65.3797 22.3266C65.2775 22.4073 65.1922 22.5075 65.1286 22.6214C65.065 22.7353 65.0244 22.8607 65.0091 22.9904C64.9938 23.1201 65.0042 23.2515 65.0395 23.3772Z" fill="white"/>
<path d="M67.9114 31.5311C67.6506 31.5563 67.4103 31.6844 67.2435 31.8873C67.0767 32.0902 66.9969 32.3514 67.0217 32.6134C67.0467 32.8753 67.1743 33.1166 67.3763 33.2841C67.5784 33.4517 67.8384 33.5318 68.0992 33.5069C71.0098 33.2268 73.946 33.4001 76.8038 34.0208C77.0597 34.0761 77.3271 34.0272 77.5472 33.8848C77.7672 33.7424 77.9221 33.5181 77.9777 33.2612C78.0328 33.0038 77.9837 32.735 77.8414 32.5139C77.6992 32.2928 77.4753 32.1375 77.219 32.0822C74.1634 31.417 71.0237 31.2312 67.9114 31.5311Z" fill="white"/>
</g>
<defs>
<clipPath id="clip0_130_707">
<rect width="78" height="86" fill="white"/>
</clipPath>
</defs>
</svg>
