<svg width="40" height="43" viewBox="0 0 40 43" fill="none" xmlns="http://www.w3.org/2000/svg">
<g clip-path="url(#clip0_191_176)">
<path d="M28.6227 23.5141C27.6251 23.5146 26.6416 23.7492 25.7512 24.1991C24.8608 24.649 24.0884 25.3015 23.4962 26.1043L13.4904 20.9912C13.6622 20.4075 13.7492 19.8021 13.7489 19.1936C13.7497 18.3742 13.5915 17.5624 13.2829 16.8032L23.7696 10.4996C24.3671 11.2037 25.1107 11.7693 25.9488 12.1571C26.7868 12.5449 27.6992 12.7457 28.6227 12.7455C30.3127 12.7436 31.933 12.0714 33.1281 10.8764C34.3231 9.68137 34.9953 8.06109 34.9972 6.37105C34.9951 4.68107 34.3228 3.0609 33.1278 1.8659C31.9328 0.6709 30.3127 -0.00135621 28.6227 -0.00341797C26.9327 -0.00154327 25.3124 0.670654 24.1173 1.86569C22.9223 3.06073 22.2501 4.68101 22.2482 6.37105C22.2474 7.15943 22.3937 7.94104 22.6796 8.67577L12.1667 14.9922C11.5693 14.3087 10.8326 13.7609 10.006 13.3856C9.17948 13.0104 8.28222 12.8163 7.37447 12.8163C5.68443 12.8182 4.06415 13.4904 2.86911 14.6855C1.67407 15.8805 1.00187 17.5008 1 19.1908C1.00187 20.8808 1.67407 22.5011 2.86911 23.6962C4.06415 24.8912 5.68443 25.5634 7.37447 25.5653C8.38827 25.5649 9.38736 25.3227 10.2888 24.8588C11.1902 24.3949 11.968 23.7227 12.5576 22.8979L22.5344 27.9975C22.345 28.6095 22.2495 29.2466 22.2511 29.8872C22.2529 31.5772 22.9251 33.1975 24.1202 34.3925C25.3152 35.5876 26.9355 36.2598 28.6255 36.2616C30.3156 36.2598 31.9359 35.5876 33.1309 34.3925C34.3259 33.1975 34.9981 31.5772 35 29.8872C34.9976 28.1969 34.3247 26.5767 33.1292 25.3819C31.9336 24.1872 30.3129 23.5154 28.6227 23.5141ZM28.6227 2.12424C29.7494 2.12555 30.8295 2.5737 31.6262 3.37038C32.4229 4.16706 32.871 5.24721 32.8723 6.37388C32.871 7.50056 32.4229 8.58071 31.6262 9.37739C30.8295 10.1741 29.7494 10.6222 28.6227 10.6235C27.496 10.6224 26.4157 10.1743 25.619 9.37759C24.8223 8.58088 24.3742 7.50061 24.3731 6.37388C24.3744 5.24721 24.8225 4.16706 25.6192 3.37038C26.4159 2.5737 27.496 2.12555 28.6227 2.12424ZM7.37447 23.4433C6.24774 23.4422 5.16749 22.9941 4.37077 22.1974C3.57405 21.4006 3.12595 20.3204 3.12482 19.1936C3.12613 18.067 3.57428 16.9868 4.37096 16.1901C5.16764 15.3935 6.2478 14.9453 7.37447 14.944C8.50114 14.9453 9.5813 15.3935 10.378 16.1901C11.1747 16.9868 11.6228 18.067 11.6241 19.1936C11.6228 20.3203 11.1747 21.4005 10.378 22.1971C9.5813 22.9938 8.50114 23.442 7.37447 23.4433ZM28.6227 34.1382C27.496 34.1371 26.4157 33.689 25.619 32.8923C24.8223 32.0956 24.3742 31.0153 24.3731 29.8886C24.3744 28.7619 24.8225 27.6818 25.6192 26.8851C26.4159 26.0884 27.496 25.6403 28.6227 25.6389C29.7494 25.6403 30.8295 26.0884 31.6262 26.8851C32.4229 27.6818 32.871 28.7619 32.8723 29.8886C32.871 31.0153 32.4229 32.0954 31.6262 32.8921C30.8295 33.6888 29.7494 34.1369 28.6227 34.1382Z" fill="white"/>
</g>
<defs>
<clipPath id="clip0_191_176">
<rect width="40" height="42.6667" fill="white"/>
</clipPath>
</defs>
</svg>
