<svg width="19" height="15" viewBox="0 0 19 15" fill="none" xmlns="http://www.w3.org/2000/svg">
<g clip-path="url(#clip0_83_319)">
<path d="M18.4619 1.77591C17.7675 2.07883 17.0331 2.28004 16.2813 2.37334C17.0737 1.90349 17.6662 1.15914 17.9464 0.281474C17.2045 0.72157 16.3928 1.03151 15.5463 1.19788C15.1918 0.819946 14.7635 0.518673 14.288 0.31265C13.8125 0.106626 13.2998 0.000221079 12.7816 0C11.7782 0.000799963 10.8163 0.400091 10.1073 1.11006C9.39828 1.82002 9.00031 2.78253 9.00088 3.78589C8.99738 4.07557 9.02629 4.36473 9.08709 4.64798C5.94045 4.49453 3.15631 2.98629 1.28514 0.689245C0.946929 1.27009 0.768468 1.93009 0.767884 2.60223C0.76826 3.22442 0.921825 3.83695 1.21501 4.38573C1.5082 4.93452 1.93199 5.40268 2.44897 5.74887C1.84987 5.73287 1.2634 5.57306 0.739007 5.28291V5.32601C0.740109 6.19999 1.04222 7.04691 1.59451 7.72426C2.14681 8.40162 2.91556 8.86805 3.77142 9.04509C3.4479 9.13023 3.11453 9.17212 2.78001 9.16966C2.53943 9.17396 2.2991 9.15228 2.06318 9.105C2.55371 10.6038 3.94513 11.7055 5.59777 11.7413C4.25801 12.789 2.60572 13.3574 0.904954 13.3556C0.602428 13.3576 0.300081 13.3403 -0.000244141 13.3038C1.73044 14.419 3.74712 15.0089 5.80595 15.0022C12.7704 15.0022 16.5783 9.23302 16.5783 4.23202C16.5783 4.06477 16.5722 3.90356 16.5645 3.74278C17.3113 3.20802 17.9543 2.54148 18.4619 1.77591V1.77591Z" fill="white"/>
</g>
<defs>
<clipPath id="clip0_83_319">
<rect width="18.4617" height="15" fill="white"/>
</clipPath>
</defs>
</svg>
