<svg width="40" height="35" viewBox="0 0 40 35" fill="none" xmlns="http://www.w3.org/2000/svg">
<g clip-path="url(#clip0_724_709)">
<path d="M38.1819 19.0908C37.635 19.0908 37.2725 19.4549 37.2725 20.0002V31.8182C37.2725 32.365 36.9092 32.7275 36.3639 32.7275H3.63654C3.08966 32.7275 2.72715 32.3635 2.72715 31.8182V20.0002C2.72715 19.4533 2.3639 19.0908 1.8178 19.0908C1.27171 19.0908 0.90918 19.4549 0.90918 20.0002V31.8182C0.90918 33.3635 2.09044 34.5455 3.63654 34.5455H36.3639C37.9092 34.5455 39.0904 33.3635 39.0904 31.8182V20.0002C39.0904 19.4549 38.7272 19.0908 38.1819 19.0908Z" fill="#16327A"/>
<path d="M37.2756 6.36328H2.73025C1.18493 6.36328 0.00292969 7.54531 0.00292969 9.09062V14.9086C0.0066184 15.5185 0.214502 16.1096 0.593445 16.5875C0.972388 17.0655 1.50052 17.4027 2.09354 17.5453L16.367 20.7273V23.6359C16.367 24.1828 16.7303 24.5453 17.2756 24.5453H22.7302C23.2771 24.5453 23.6396 24.182 23.6396 23.6359V20.7273L37.9123 17.5453C38.5053 17.4027 39.0334 17.0655 39.4124 16.5875C39.7913 16.1096 39.9992 15.5185 40.0029 14.9086V9.09062C39.9998 7.54531 38.8178 6.36328 37.2756 6.36328ZM21.8178 22.7297H18.1818V19.093H21.8178V22.7297ZM38.1818 14.9109C38.1818 15.3656 37.9092 15.7297 37.4545 15.8203L23.6365 18.9109V18.1844C23.6365 17.6375 23.2724 17.275 22.7271 17.275H17.2756C16.7287 17.275 16.367 17.6383 16.367 18.1844V18.9109L2.54825 15.8203C2.09356 15.7297 1.8209 15.3656 1.8209 14.9109V9.09297C1.8209 8.54609 2.18494 8.18437 2.73025 8.18437H37.2756C37.8224 8.18437 38.185 8.54766 38.185 9.09297L38.1818 14.9109Z" fill="#16327A"/>
<path d="M13.6369 4.54492C14.1838 4.54492 14.5455 4.18164 14.5455 3.63555V2.7293C14.5455 2.18242 14.9096 1.81992 15.4549 1.81992H24.5455C25.0924 1.81992 25.4549 2.18399 25.4549 2.7293V3.63789C25.4549 4.18477 25.8182 4.54727 26.3643 4.54727C26.9104 4.54727 27.2729 4.18399 27.2729 3.63789V2.7293C27.2729 1.18399 26.0908 0.00195312 24.5455 0.00195312H15.4549C13.9096 0.00195312 12.7275 1.18399 12.7275 2.7293V3.63789C12.7275 4.18164 13.0908 4.54492 13.6369 4.54492Z" fill="#16327A"/>
</g>
<defs>
<clipPath id="clip0_724_709">
<rect width="40" height="34.5453" fill="white"/>
</clipPath>
</defs>
</svg>
