<svg width="40" height="40" viewBox="0 0 40 40" fill="none" xmlns="http://www.w3.org/2000/svg">
<g clip-path="url(#clip0_724_664)">
<path d="M37.6177 15.6156H36.2177C35.8425 14.2227 35.2878 12.8844 34.5677 11.6344L35.5583 10.6437C35.7799 10.4227 35.9556 10.16 36.075 9.87071C36.1945 9.58141 36.2553 9.27131 36.2542 8.95833C36.2554 8.6455 36.1945 8.33554 36.075 8.04641C35.9556 7.75728 35.78 7.49472 35.5583 7.27395L32.7271 4.4427C32.2799 3.99648 31.6739 3.74588 31.0422 3.74588C30.4104 3.74588 29.8045 3.99648 29.3573 4.4427L28.3666 5.43229C27.1166 4.71231 25.7783 4.15767 24.3854 3.78228V2.38333C24.3849 1.7514 24.1336 1.1455 23.6867 0.698662C23.2399 0.25182 22.634 0.000551663 22.0021 0H17.9979C17.3662 0.00082738 16.7606 0.252218 16.3139 0.699031C15.8673 1.14584 15.6162 1.75158 15.6156 2.38333V3.78228C14.2228 4.1579 12.8846 4.71253 11.6344 5.43229L10.6438 4.4427C10.1966 3.99648 9.59059 3.74588 8.95884 3.74588C8.3271 3.74588 7.72117 3.99648 7.27397 4.4427L4.4427 7.27395C3.99648 7.72115 3.74588 8.3271 3.74588 8.95885C3.74588 9.59059 3.99648 10.1965 4.4427 10.6437L5.43335 11.6344C4.7129 12.8843 4.1579 14.2226 3.7823 15.6156H2.38332C1.75166 15.6164 1.14611 15.8677 0.699361 16.3142C0.252608 16.7608 0.00110232 17.3662 0 17.9979V22.0021C0.000826843 22.6339 0.252223 23.2397 0.699005 23.6864C1.14579 24.1332 1.75148 24.3846 2.38332 24.3854H3.7823C4.15782 25.7784 4.71283 27.1167 5.43335 28.3667L4.4427 29.3573C3.99648 29.8045 3.74588 30.4104 3.74588 31.0422C3.74588 31.6739 3.99648 32.2799 4.4427 32.7271L7.27397 35.5583C7.72117 36.0046 8.3271 36.2552 8.95884 36.2552C9.59059 36.2552 10.1966 36.0046 10.6438 35.5583L11.6344 34.5677C12.8843 35.2882 14.2227 35.8431 15.6156 36.2187V37.6177C15.6165 38.2493 15.8677 38.8547 16.3143 39.3013C16.7609 39.7479 17.3664 39.9992 17.9979 40H22.0021C22.6339 39.9994 23.2396 39.7483 23.6864 39.3017C24.1332 38.8551 24.3846 38.2495 24.3854 37.6177V36.2187C25.7779 35.8427 27.1158 35.2877 28.3656 34.5677L29.3562 35.5583C29.8034 36.0046 30.4094 36.2552 31.0412 36.2552C31.6729 36.2552 32.2788 36.0046 32.726 35.5583L35.5573 32.7271C35.7789 32.5061 35.9545 32.2433 36.074 31.954C36.1934 31.6647 36.2543 31.3546 36.2532 31.0417C36.2544 30.7288 36.1935 30.4189 36.074 30.1297C35.9546 29.8406 35.7789 29.5781 35.5573 29.3573L34.5667 28.3667C35.2871 27.1167 35.8421 25.7784 36.2177 24.3854H37.6167C38.2483 24.3843 38.8538 24.1328 39.3003 23.6861C39.7469 23.2393 39.9982 22.6337 39.999 22.0021V17.9979C39.9982 17.3663 39.7469 16.7609 39.3003 16.3143C38.8537 15.8677 38.2482 15.6164 37.6167 15.6156H37.6177ZM38.4375 22.0021C38.4372 22.2195 38.3508 22.428 38.1972 22.5818C38.0435 22.7357 37.8351 22.8224 37.6177 22.8229H35.6083C35.4316 22.8231 35.2601 22.8831 35.1219 22.9932C34.9836 23.1033 34.8867 23.257 34.8469 23.4292C34.4691 25.0737 33.8185 26.6434 32.9219 28.0729C32.828 28.2226 32.7876 28.3998 32.8075 28.5754C32.8273 28.751 32.9062 28.9147 33.0313 29.0396L34.4531 30.4615C34.5293 30.5376 34.5895 30.6281 34.6305 30.7277C34.6714 30.8273 34.6922 30.934 34.6917 31.0417C34.6925 31.1494 34.6718 31.2562 34.6308 31.3558C34.5899 31.4554 34.5294 31.5459 34.4531 31.6219L31.6219 34.4531C31.468 34.6066 31.2595 34.6928 31.0422 34.6928C30.8248 34.6928 30.6164 34.6066 30.4625 34.4531L29.0396 33.0312C28.9141 32.907 28.7501 32.8291 28.5745 32.8102C28.3989 32.7913 28.222 32.8325 28.0729 32.9271C26.6432 33.8233 25.0736 34.474 23.4292 34.8521C23.2569 34.8917 23.1031 34.9886 22.993 35.1269C22.8828 35.2652 22.8229 35.4367 22.8229 35.6135V37.6229C22.8227 37.8404 22.736 38.0489 22.5821 38.2027C22.4282 38.3564 22.2196 38.4427 22.0021 38.4427H17.9979C17.7806 38.4424 17.5723 38.356 17.4186 38.2023C17.2649 38.0486 17.1784 37.8402 17.1781 37.6229V35.6135C17.1782 35.4367 17.1182 35.2652 17.0081 35.1269C16.8979 34.9886 16.7442 34.8917 16.5719 34.8521C14.9273 34.4743 13.3577 33.8236 11.9282 32.9271C11.8034 32.8486 11.6589 32.8071 11.5115 32.8073C11.4087 32.8072 11.307 32.8275 11.2121 32.8668C11.1171 32.9061 11.031 32.9638 10.9584 33.0365L9.53649 34.4583C9.38261 34.6118 9.1741 34.698 8.95676 34.698C8.73942 34.698 8.53095 34.6118 8.37708 34.4583L5.55313 31.6229C5.39958 31.4689 5.31336 31.2602 5.31336 31.0427C5.31336 30.8252 5.39958 30.6165 5.55313 30.4625L6.975 29.0406C7.0992 28.9151 7.17717 28.7511 7.1961 28.5755C7.21502 28.3999 7.17377 28.2231 7.07916 28.074C6.18259 26.6443 5.53161 25.0747 5.15315 23.4302C5.11372 23.2578 5.01689 23.1039 4.87854 22.9938C4.74019 22.8836 4.56852 22.8238 4.39168 22.824H2.38332C2.16571 22.8237 1.95711 22.7371 1.80323 22.5832C1.64936 22.4294 1.56278 22.2207 1.5625 22.0031V17.9979C1.56278 17.7804 1.64938 17.5719 1.80328 17.4182C1.95719 17.2645 2.1658 17.1781 2.38332 17.1781H4.39168C4.56856 17.178 4.74019 17.118 4.87864 17.0079C5.01709 16.8979 5.11418 16.7442 5.15416 16.5719C5.53193 14.9273 6.18261 13.3576 7.07916 11.9281C7.17348 11.7787 7.21455 11.6018 7.19564 11.4261C7.17673 11.2504 7.09895 11.0863 6.975 10.9604L5.55313 9.53958C5.39964 9.3857 5.31347 9.17723 5.31347 8.95989C5.31347 8.74255 5.39964 8.53408 5.55313 8.3802L8.3844 5.54895C8.53828 5.39546 8.74674 5.30926 8.96408 5.30926C9.18142 5.30926 9.38989 5.39546 9.54376 5.54895L10.9656 6.96979C11.0906 7.09506 11.2544 7.1742 11.4302 7.19426C11.606 7.21432 11.7834 7.1741 11.9333 7.0802C13.3628 6.18328 14.9325 5.53225 16.5771 5.15416C16.7495 5.11474 16.9033 5.01791 17.0135 4.87956C17.1236 4.74121 17.1835 4.56955 17.1833 4.39271V2.38438C17.1833 2.16686 17.2697 1.95823 17.4234 1.80433C17.5771 1.65042 17.7856 1.56382 18.0031 1.56354H22.0073C22.1151 1.56354 22.2218 1.58476 22.3214 1.62601C22.421 1.66727 22.5115 1.72774 22.5877 1.80396C22.664 1.88018 22.7244 1.97066 22.7657 2.07025C22.8069 2.16984 22.8281 2.27658 22.8281 2.38438V4.39271C22.8279 4.56955 22.8878 4.74121 22.9979 4.87956C23.1081 5.01791 23.262 5.11474 23.4344 5.15416C25.0792 5.53178 26.6489 6.18284 28.0782 7.0802C28.228 7.17384 28.4052 7.2139 28.5807 7.19384C28.7563 7.17379 28.9199 7.09481 29.0448 6.96979L30.4677 5.54895C30.6216 5.39546 30.8301 5.30926 31.0474 5.30926C31.2648 5.30926 31.4732 5.39546 31.6271 5.54895L34.4584 8.3802C34.5346 8.45609 34.5949 8.54637 34.6358 8.64581C34.6768 8.74524 34.6975 8.85183 34.6969 8.95937C34.6977 9.06708 34.677 9.17387 34.636 9.27349C34.5951 9.37311 34.5347 9.46357 34.4584 9.53958L33.0364 10.9625C32.9114 11.0874 32.8325 11.2511 32.8127 11.4267C32.7928 11.6023 32.8331 11.7795 32.9271 11.9292C33.8233 13.3589 34.4739 14.9285 34.8521 16.5729C34.8917 16.7452 34.9885 16.899 35.1269 17.0091C35.2652 17.1192 35.4368 17.1792 35.6136 17.1792H37.6229C37.8403 17.1794 38.0486 17.2659 38.2023 17.4196C38.356 17.5733 38.4425 17.7816 38.4427 17.999L38.4375 22.0021Z" fill="#16327A"/>
<path d="M25.0927 29.6808C23.5219 30.5057 21.7742 30.9368 20 30.9371C17.1002 30.9338 14.3202 29.7804 12.2697 27.7299C10.2192 25.6794 9.06581 22.8994 9.0625 19.9996C9.06276 18.2257 9.49387 16.4784 10.3188 14.9079C10.4153 14.7246 10.4351 14.5104 10.3737 14.3126C10.3124 14.1147 10.1749 13.9493 9.99166 13.8527C9.80835 13.7562 9.59425 13.7364 9.39636 13.7977C9.19848 13.8591 9.03303 13.9965 8.93646 14.1798C7.99363 15.9748 7.50069 17.972 7.5 19.9996C7.50386 23.3136 8.82205 26.4908 11.1654 28.8341C13.5088 31.1775 16.686 32.4957 20 32.4996C22.028 32.499 24.0254 32.0061 25.8208 31.0631C26.0041 30.9665 26.1416 30.8011 26.2029 30.6032C26.2642 30.4054 26.2445 30.1912 26.1479 30.0079C26.0513 29.8246 25.886 29.6872 25.6881 29.6259C25.4902 29.5645 25.276 29.5843 25.0927 29.6808Z" fill="#16327A"/>
<path d="M20.0001 7.5C17.9722 7.50069 15.9748 7.99363 14.1793 8.93646C14.0886 8.98427 14.0081 9.0495 13.9426 9.12843C13.8771 9.20736 13.8277 9.29843 13.7974 9.39645C13.7672 9.49446 13.7565 9.59748 13.7661 9.69962C13.7757 9.80175 13.8053 9.901 13.8533 9.99167C13.901 10.0825 13.9661 10.1631 14.045 10.2287C14.1239 10.2943 14.215 10.3438 14.313 10.3741C14.4111 10.4045 14.5141 10.4153 14.6163 10.4058C14.7185 10.3963 14.8177 10.3667 14.9085 10.3187C16.479 9.49399 18.2262 9.06289 20.0001 9.0625C22.8999 9.06581 25.68 10.2192 27.7305 12.2697C29.781 14.3201 30.9343 17.1002 30.9376 20C30.9392 21.7737 30.5103 23.5213 29.6876 25.0927C29.6397 25.1834 29.6102 25.2826 29.6007 25.3847C29.5912 25.4868 29.602 25.5898 29.6323 25.6877C29.6627 25.7856 29.7121 25.8766 29.7778 25.9554C29.8434 26.0342 29.9239 26.0993 30.0147 26.1469C30.1267 26.2064 30.2515 26.2375 30.3783 26.2375C30.5206 26.2376 30.6602 26.1989 30.7821 26.1255C30.904 26.052 31.0035 25.9467 31.0699 25.8208C32.0121 24.0252 32.5046 22.0278 32.5054 20C32.5018 16.6859 31.1836 13.5086 28.8402 11.1651C26.4968 8.82169 23.3195 7.50358 20.0054 7.5H20.0001Z" fill="#16327A"/>
<path d="M24.7831 14.3066C24.4365 14.3059 24.0932 14.3739 23.773 14.5065C23.4528 14.6392 23.162 14.8339 22.9175 15.0796L18.6779 19.3244L17.0873 17.7337C16.8429 17.4878 16.5522 17.2927 16.232 17.1599C15.9117 17.027 15.5683 16.959 15.2216 16.9598C14.8747 16.9589 14.5311 17.0268 14.2107 17.1597C13.8903 17.2925 13.5994 17.4877 13.355 17.7337C12.8612 18.2291 12.584 18.9 12.584 19.5994C12.584 20.2988 12.8612 20.9696 13.355 21.465L16.8122 24.9212C17.0569 25.1666 17.3478 25.3611 17.668 25.4935C17.9881 25.626 18.3314 25.6938 18.6779 25.6931C19.0244 25.6936 19.3675 25.6257 19.6877 25.4932C20.0078 25.3608 20.2987 25.1664 20.5435 24.9212L26.6539 18.8119C27.1477 18.3163 27.425 17.6453 27.425 16.9457C27.425 16.2461 27.1477 15.5751 26.6539 15.0796C26.4092 14.8339 26.1183 14.6391 25.7979 14.5064C25.4775 14.3737 25.134 14.3059 24.7873 14.3066H24.7831ZM25.5445 17.7066L19.4341 23.8171C19.2319 24.0181 18.9584 24.131 18.6732 24.131C18.388 24.131 18.1145 24.0181 17.9123 23.8171L14.456 20.3598C14.2545 20.1578 14.1412 19.8842 14.1412 19.5988C14.1412 19.3135 14.2545 19.0398 14.456 18.8379C14.556 18.7381 14.6748 18.659 14.8055 18.6054C14.9362 18.5518 15.0762 18.5246 15.2174 18.5254C15.3585 18.5248 15.4984 18.5521 15.6289 18.6057C15.7594 18.6593 15.878 18.7382 15.9779 18.8379L18.1206 20.9816C18.1931 21.0542 18.2793 21.1118 18.3741 21.1511C18.469 21.1904 18.5706 21.2106 18.6732 21.2106C18.7758 21.2106 18.8775 21.1904 18.9723 21.1511C19.0671 21.1118 19.1532 21.0542 19.2258 20.9816L24.0227 16.1848C24.1225 16.085 24.2411 16.006 24.3716 15.9524C24.5021 15.8988 24.642 15.8715 24.7831 15.8723C24.9244 15.8715 25.0644 15.8987 25.1951 15.9524C25.3258 16.006 25.4445 16.085 25.5445 16.1848C25.6442 16.2846 25.7232 16.4033 25.7768 16.5338C25.8304 16.6643 25.8577 16.8041 25.857 16.9452C25.8579 17.0865 25.8308 17.2265 25.7771 17.3572C25.7235 17.488 25.6444 17.6067 25.5445 17.7066Z" fill="#16327A"/>
<path d="M11.7137 12.496C11.9212 12.4959 12.1201 12.4134 12.2668 12.2668C12.3394 12.1943 12.397 12.1081 12.4363 12.0133C12.4756 11.9185 12.4958 11.8169 12.4958 11.7142C12.4958 11.6116 12.4756 11.51 12.4363 11.4151C12.397 11.3203 12.3394 11.2342 12.2668 11.1616C12.1943 11.089 12.1081 11.0314 12.0133 10.9921C11.9185 10.9528 11.8169 10.9326 11.7142 10.9326C11.6116 10.9326 11.51 10.9528 11.4152 10.9921C11.3203 11.0314 11.2342 11.089 11.1616 11.1616C11.089 11.2342 11.0314 11.3203 10.9921 11.4151C10.9528 11.51 10.9326 11.6116 10.9326 11.7142C10.9326 11.8169 10.9528 11.9185 10.9921 12.0133C11.0314 12.1081 11.089 12.1943 11.1616 12.2668C11.234 12.3395 11.3201 12.3971 11.4148 12.4365C11.5095 12.4758 11.6111 12.496 11.7137 12.496Z" fill="#16327A"/>
<path d="M28.7875 27.6862C28.6285 27.5536 28.4233 27.4895 28.217 27.508C28.0108 27.5266 27.8204 27.6263 27.6876 27.7852C27.6222 27.8643 27.573 27.9554 27.5428 28.0535C27.5127 28.1516 27.5021 28.2546 27.5118 28.3568C27.5215 28.4589 27.5511 28.5582 27.5992 28.6488C27.6472 28.7395 27.7127 28.8198 27.7917 28.8852C27.932 29.0023 28.109 29.0665 28.2917 29.0665C28.4064 29.0666 28.5198 29.0415 28.6236 28.9929C28.7275 28.9443 28.8194 28.8734 28.8928 28.7852C28.9581 28.7061 29.0073 28.615 29.0375 28.5169C29.0676 28.4188 29.0782 28.3158 29.0685 28.2136C29.0588 28.1115 29.0291 28.0122 28.9811 27.9216C28.9331 27.8309 28.8677 27.7506 28.7886 27.6852L28.7875 27.6862Z" fill="#16327A"/>
</g>
<defs>
<clipPath id="clip0_724_664">
<rect width="40" height="40" fill="white"/>
</clipPath>
</defs>
</svg>
