<svg width="40" height="43" viewBox="0 0 40 43" fill="none" xmlns="http://www.w3.org/2000/svg">
<g clip-path="url(#clip0_724_651)">
<path d="M6.81 3.33333H0.833333C0.61232 3.33333 0.40034 3.42113 0.244059 3.57741C0.0877789 3.73369 0 3.94565 0 4.16666V41.8333C0 42.0543 0.0877789 42.2663 0.244059 42.4226C0.40034 42.5789 0.61232 42.6667 0.833333 42.6667H4.58333C4.80435 42.6667 5.0163 42.5789 5.17258 42.4226C5.32886 42.2663 5.41667 42.0543 5.41667 41.8333C5.41667 41.6123 5.32886 41.4004 5.17258 41.2441C5.0163 41.0878 4.80435 41 4.58333 41H1.66667V4.99999H6.66667V7.49999C6.66667 7.72101 6.75445 7.93297 6.91073 8.08925C7.06701 8.24553 7.27899 8.33333 7.5 8.33333H20.8333C21.0543 8.33333 21.2663 8.24553 21.4226 8.08925C21.5789 7.93297 21.6667 7.72101 21.6667 7.49999V4.99999H26.6667V12.2533C25.6752 12.4605 24.7934 13.0223 24.1867 13.8333H24.1689C23.506 13.8339 22.8705 14.0975 22.4018 14.5662C21.9331 15.0349 21.6695 15.6705 21.6689 16.3333C21.6697 16.9577 21.9037 17.5592 22.3251 18.0198C22.7465 18.4805 23.3249 18.7671 23.9467 18.8233C24.1933 19.5356 24.4389 20.1867 24.6956 20.8033C19.0178 22.8678 15.0022 31.23 15.0022 36.3333C15.0022 38.4356 15.6867 39.9778 17.0822 41H12.0822C11.8612 41 11.6492 41.0878 11.4929 41.2441C11.3367 41.4004 11.2489 41.6123 11.2489 41.8333C11.2489 42.0543 11.3367 42.2663 11.4929 42.4226C11.6492 42.5789 11.8612 42.6667 12.0822 42.6667H29.1656C34.9178 42.6667 39.9989 42.1111 39.9989 36.3333C39.9989 32.0067 37.11 25.3389 32.7767 22.1511C33.3875 22.0821 33.9516 21.7907 34.3614 21.3325C34.7712 20.8743 34.9981 20.2814 34.9989 19.6667C34.9989 19.4456 34.9111 19.2337 34.7548 19.0774C34.5985 18.9211 34.3866 18.8333 34.1656 18.8333C33.9445 18.8333 33.7326 18.9211 33.5763 19.0774C33.42 19.2337 33.3322 19.4456 33.3322 19.6667C33.3316 19.8875 33.2436 20.0991 33.0875 20.2553C32.9313 20.4114 32.7197 20.4994 32.4989 20.5H30.4289C30.6411 19.9733 30.8467 19.42 31.0533 18.8233C31.6752 18.7671 32.2537 18.4806 32.6753 18.0199C33.0969 17.5593 33.3312 16.9578 33.3322 16.3333C33.3313 15.6706 33.0677 15.0352 32.599 14.5665C32.1304 14.0979 31.495 13.8342 30.8322 13.8333H30.8133C30.2063 13.0221 29.3241 12.4603 28.3322 12.2533V4.16666C28.3322 3.94565 28.2444 3.73369 28.0881 3.57741C27.9319 3.42113 27.7199 3.33333 27.4989 3.33333H21.52C21.347 2.84642 21.0277 2.42491 20.6058 2.12654C20.1839 1.82817 19.6801 1.66754 19.1633 1.66666H16.52C16.347 1.17975 16.0277 0.758233 15.6058 0.459866C15.1839 0.161499 14.6801 0.00088317 14.1633 0C13.6465 0.000559952 13.1425 0.161062 12.7206 0.459473C12.2986 0.757883 11.9794 1.17957 11.8067 1.66666H9.16333C8.64652 1.66722 8.14255 1.82772 7.7206 2.12613C7.29864 2.42454 6.9794 2.84624 6.80667 3.33333H6.81ZM38.3333 36.3333C38.3333 40.7833 34.4744 41 27.6555 41H27.3433C20.5244 41 16.6667 40.7833 16.6667 36.3333C16.6667 31.39 20.8422 23.4089 25.9344 22.1667H29.0644C34.1511 23.4078 38.3333 31.3889 38.3333 36.3333ZM29.6844 15.1489C29.7736 15.3124 29.9149 15.4413 30.0859 15.5152C30.2568 15.5891 30.4476 15.6037 30.6278 15.5567C30.6978 15.5389 30.8078 15.5056 30.8411 15.5C31.0607 15.5023 31.2705 15.5911 31.425 15.7471C31.5796 15.9031 31.6664 16.1137 31.6667 16.3333C31.6665 16.5502 31.5817 16.7584 31.4305 16.9138C31.2793 17.0692 31.0734 17.1595 30.8567 17.1655C30.1967 17.0011 29.8233 17.2489 29.6855 17.6667C29.3344 18.7333 28.9922 19.6478 28.6244 20.5H26.3755C26.0067 19.6478 25.6644 18.7333 25.3133 17.6667C25.2584 17.5002 25.1524 17.3553 25.0104 17.2526C24.8683 17.1498 24.6975 17.0945 24.5222 17.0944C24.3929 17.101 24.2651 17.1249 24.1422 17.1655C23.9257 17.1592 23.7201 17.0688 23.5691 16.9134C23.4181 16.758 23.3335 16.55 23.3333 16.3333C23.3333 16.1137 23.4201 15.9029 23.5747 15.7468C23.7293 15.5907 23.9392 15.502 24.1589 15.5C24.1922 15.5056 24.2889 15.5344 24.3711 15.5567C24.5514 15.6038 24.7424 15.5892 24.9135 15.5153C25.0847 15.4415 25.2262 15.3125 25.3155 15.1489C25.5275 14.7533 25.8424 14.4223 26.2269 14.1907C26.6113 13.9592 27.0512 13.8357 27.5 13.8333C27.9488 13.8359 28.3885 13.9595 28.7729 14.191C29.1574 14.4226 29.4722 14.7535 29.6844 15.1489ZM14.1667 1.66666C14.3876 1.66695 14.5994 1.75485 14.7556 1.91107C14.9118 2.06728 14.9997 2.27907 15 2.49999C14.9994 2.72083 14.9114 2.93245 14.7553 3.0886C14.5991 3.24476 14.3875 3.33274 14.1667 3.33333C13.9457 3.33303 13.7339 3.24515 13.5777 3.08893C13.4215 2.93271 13.3336 2.72092 13.3333 2.49999C13.3333 2.27898 13.4211 2.06702 13.5774 1.91074C13.7337 1.75446 13.9457 1.66666 14.1667 1.66666ZM9.16667 3.33333H11.81C11.9827 3.82042 12.302 4.24211 12.7239 4.54052C13.1459 4.83893 13.6499 4.99943 14.1667 4.99999C14.6834 4.99911 15.1872 4.83849 15.6091 4.54012C16.031 4.24175 16.3503 3.82024 16.5233 3.33333H19.1667C19.3876 3.33362 19.5994 3.42152 19.7556 3.57773C19.9118 3.73395 19.9997 3.94574 20 4.16666V6.66666H8.33333V4.16666C8.33333 3.94565 8.42111 3.73369 8.57739 3.57741C8.73367 3.42113 8.94565 3.33333 9.16667 3.33333Z" fill="#16327A"/>
<path d="M28.3333 27.3111V26.3333C28.3333 26.1123 28.2455 25.9004 28.0892 25.7441C27.933 25.5878 27.721 25.5 27.5 25.5C27.279 25.5 27.067 25.5878 26.9107 25.7441C26.7544 25.9004 26.6667 26.1123 26.6667 26.3333V27.31C26.1796 27.4827 25.7579 27.802 25.4595 28.2239C25.1611 28.6459 25.0006 29.1499 25 29.6667C25.0009 30.3294 25.2646 30.9648 25.7332 31.4335C26.2019 31.9021 26.8372 32.1658 27.5 32.1667C27.7209 32.167 27.9327 32.2549 28.0889 32.4111C28.2451 32.5673 28.333 32.7791 28.3333 33C28.3327 33.2208 28.2447 33.4325 28.0886 33.5886C27.9324 33.7448 27.7208 33.8327 27.5 33.8333C27.3706 33.8337 27.2429 33.8037 27.1271 33.7458C27.0113 33.6879 26.9107 33.6038 26.8333 33.5C26.7006 33.3234 26.503 33.2067 26.2843 33.1756C26.0655 33.1446 25.8433 33.2017 25.6667 33.3344C25.49 33.4672 25.3734 33.6647 25.3423 33.8835C25.3113 34.1023 25.3684 34.3244 25.5011 34.5011C25.7979 34.8941 26.2036 35.1912 26.6678 35.3556V36.3344C26.6678 36.5555 26.7556 36.7674 26.9118 36.9237C27.0681 37.08 27.2801 37.1678 27.5011 37.1678C27.7221 37.1678 27.9341 37.08 28.0904 36.9237C28.2466 36.7674 28.3344 36.5555 28.3344 36.3344V35.3578C28.8214 35.1848 29.2429 34.8654 29.5412 34.4436C29.8396 34.0217 30.0002 33.5178 30.0011 33.0011C30.0002 32.3383 29.7366 31.703 29.2679 31.2343C28.7993 30.7657 28.1639 30.502 27.5011 30.5011C27.2802 30.5008 27.0684 30.4129 26.9122 30.2567C26.7559 30.1005 26.6681 29.8887 26.6678 29.6678C26.6678 29.4468 26.7556 29.2348 26.9118 29.0785C27.0681 28.9222 27.2801 28.8344 27.5011 28.8344C27.6306 28.8338 27.7584 28.8637 27.8742 28.9216C27.99 28.9795 28.0906 29.0638 28.1678 29.1678C28.3006 29.3444 28.498 29.4611 28.7168 29.4921C28.9356 29.5232 29.1578 29.4661 29.3344 29.3333C29.5111 29.2006 29.6278 29.0031 29.6588 28.7843C29.6898 28.5655 29.6327 28.3433 29.5 28.1667C29.2037 27.7737 28.7984 27.4766 28.3344 27.3122L28.3333 27.3111Z" fill="#16327A"/>
<path d="M9.7557 15.7446C9.59911 15.5888 9.38716 15.5013 9.16623 15.5013C8.94531 15.5013 8.73338 15.5888 8.5768 15.7446L3.5768 20.7446C3.49936 20.822 3.43794 20.9139 3.39602 21.0151C3.35411 21.1162 3.33252 21.2246 3.33252 21.3341C3.33252 21.4436 3.35411 21.552 3.39602 21.6531C3.43794 21.7542 3.49936 21.8461 3.5768 21.9235C3.65418 22.001 3.74608 22.0624 3.84722 22.1043C3.94836 22.1462 4.05675 22.1678 4.16623 22.1678C4.27571 22.1678 4.38413 22.1462 4.48527 22.1043C4.58641 22.0624 4.67831 22.001 4.7557 21.9235L9.1668 17.5124L11.9101 20.2569C11.9875 20.3343 12.0794 20.3957 12.1806 20.4376C12.2817 20.4796 12.3901 20.5011 12.4996 20.5011C12.609 20.5011 12.7175 20.4796 12.8186 20.4376C12.9197 20.3957 13.0116 20.3343 13.089 20.2569L18.3335 15.0124V15.5013C18.3335 15.7223 18.4212 15.9343 18.5775 16.0906C18.7338 16.2468 18.9458 16.3346 19.1668 16.3346C19.3878 16.3346 19.5998 16.2468 19.7561 16.0906C19.9123 15.9343 20.0001 15.7223 20.0001 15.5013V13.0013C20.0001 12.7803 19.9123 12.5683 19.7561 12.412C19.5998 12.2558 19.3878 12.168 19.1668 12.168H16.6668C16.4458 12.168 16.2338 12.2558 16.0775 12.412C15.9212 12.5683 15.8335 12.7803 15.8335 13.0013C15.8335 13.2223 15.9212 13.4343 16.0775 13.5906C16.2338 13.7468 16.4458 13.8346 16.6668 13.8346H17.1546L12.5001 18.4891L9.7557 15.7446Z" fill="#16327A"/>
<path d="M4.16683 25.4997H14.1668C14.3878 25.4997 14.5998 25.4119 14.7561 25.2556C14.9124 25.0993 15.0002 24.8874 15.0002 24.6663C15.0002 24.4453 14.9124 24.2334 14.7561 24.0771C14.5998 23.9208 14.3878 23.833 14.1668 23.833H4.16683C3.94582 23.833 3.73384 23.9208 3.57756 24.0771C3.42128 24.2334 3.3335 24.4453 3.3335 24.6663C3.3335 24.8874 3.42128 25.0993 3.57756 25.2556C3.73384 25.4119 3.94582 25.4997 4.16683 25.4997Z" fill="#16327A"/>
<path d="M4.16683 28.8337H14.1668C14.3878 28.8337 14.5998 28.7459 14.7561 28.5896C14.9124 28.4333 15.0002 28.2213 15.0002 28.0003C15.0002 27.7793 14.9124 27.5674 14.7561 27.4111C14.5998 27.2548 14.3878 27.167 14.1668 27.167H4.16683C3.94582 27.167 3.73384 27.2548 3.57756 27.4111C3.42128 27.5674 3.3335 27.7793 3.3335 28.0003C3.3335 28.2213 3.42128 28.4333 3.57756 28.5896C3.73384 28.7459 3.94582 28.8337 4.16683 28.8337Z" fill="#16327A"/>
<path d="M4.16683 32.1667H10.8335C11.0545 32.1667 11.2665 32.0789 11.4227 31.9226C11.579 31.7663 11.6668 31.5543 11.6668 31.3333C11.6668 31.1123 11.579 30.9004 11.4227 30.7441C11.2665 30.5878 11.0545 30.5 10.8335 30.5H4.16683C3.94582 30.5 3.73384 30.5878 3.57756 30.7441C3.42128 30.9004 3.3335 31.1123 3.3335 31.3333C3.3335 31.5543 3.42128 31.7663 3.57756 31.9226C3.73384 32.0789 3.94582 32.1667 4.16683 32.1667Z" fill="#16327A"/>
<path d="M4.16683 35.4997H10.8335C11.0545 35.4997 11.2665 35.4119 11.4227 35.2556C11.579 35.0993 11.6668 34.8874 11.6668 34.6663C11.6668 34.4453 11.579 34.2334 11.4227 34.0771C11.2665 33.9208 11.0545 33.833 10.8335 33.833H4.16683C3.94582 33.833 3.73384 33.9208 3.57756 34.0771C3.42128 34.2334 3.3335 34.4453 3.3335 34.6663C3.3335 34.8874 3.42128 35.0993 3.57756 35.2556C3.73384 35.4119 3.94582 35.4997 4.16683 35.4997Z" fill="#16327A"/>
<path d="M9.16667 41.8333C9.16667 42.0543 9.07886 42.2663 8.92258 42.4226C8.7663 42.5789 8.55435 42.6667 8.33333 42.6667C8.11232 42.6667 7.90034 42.5789 7.74406 42.4226C7.58778 42.2663 7.5 42.0543 7.5 41.8333C7.5 41.6123 7.58778 41.4004 7.74406 41.2441C7.90034 41.0878 8.11232 41 8.33333 41C8.55435 41 8.7663 41.0878 8.92258 41.2441C9.07886 41.4004 9.16667 41.6123 9.16667 41.8333Z" fill="#16327A"/>
</g>
<defs>
<clipPath id="clip0_724_651">
<rect width="40" height="42.6667" fill="white"/>
</clipPath>
</defs>
</svg>
