<svg width="40" height="45" viewBox="0 0 40 45" fill="none" xmlns="http://www.w3.org/2000/svg">
<g clip-path="url(#clip0_724_675)">
<path d="M38.5465 16.1206H35.9144V15.8251C35.9141 15.4714 35.7734 15.1323 35.5234 14.8822C35.2733 14.6321 34.9341 14.4915 34.5805 14.4912H29.3897C29.218 14.4912 29.0533 14.5594 28.9319 14.6808C28.8105 14.8022 28.7423 14.9669 28.7423 15.1386C28.7423 15.3103 28.8105 15.475 28.9319 15.5964C29.0533 15.7178 29.218 15.786 29.3897 15.786H34.5805C34.5906 15.7863 34.6003 15.7906 34.6073 15.7979C34.6144 15.8052 34.6184 15.8149 34.6184 15.8251V23.7228C34.6187 23.8946 34.6872 24.0592 34.8088 24.1806C34.9304 24.302 35.0952 24.3702 35.267 24.3702C35.4387 24.3702 35.6033 24.302 35.7248 24.1806C35.8462 24.0591 35.9144 23.8945 35.9144 23.7228V17.4155H38.5465C38.5673 17.4156 38.5879 17.4199 38.6071 17.428C38.6263 17.4361 38.6438 17.4479 38.6584 17.4627C38.673 17.4776 38.6846 17.4952 38.6924 17.5145C38.7003 17.5338 38.7042 17.5545 38.7041 17.5753V40.1735C38.7034 40.8861 38.4201 41.5693 37.9163 42.0731C37.4124 42.577 36.7292 42.8603 36.0167 42.8609H3.98335C3.2707 42.8603 2.58737 42.577 2.08334 42.0732C1.57931 41.5694 1.29576 40.8862 1.29485 40.1735V17.5753C1.29485 17.5331 1.3115 17.4926 1.34123 17.4627C1.37095 17.4327 1.41133 17.4158 1.45352 17.4155H4.17195V39.5698C4.17286 40.0089 4.34778 40.4297 4.65837 40.7401C4.96896 41.0505 5.38992 41.2251 5.82901 41.2257H34.2573C34.6966 41.2251 35.1177 41.0503 35.4284 40.7397C35.739 40.4291 35.9138 40.008 35.9144 39.5687V26.486C35.9145 26.4009 35.8979 26.3166 35.8654 26.2379C35.8329 26.1593 35.7853 26.0877 35.7252 26.0275C35.665 25.9673 35.5936 25.9195 35.515 25.8869C35.4364 25.8543 35.3521 25.8375 35.267 25.8375C35.1818 25.8373 35.0973 25.854 35.0186 25.8865C34.9398 25.9191 34.8683 25.9668 34.808 26.0271C34.7478 26.0874 34.7 26.1589 34.6675 26.2377C34.6349 26.3164 34.6183 26.4008 34.6184 26.486V35.8073H24.1392C23.4925 35.8073 22.8527 35.94 22.2593 36.1971C21.666 36.4543 21.1317 36.8304 20.6894 37.3022V28.9216C20.6894 28.7498 20.6213 28.585 20.4999 28.4634C20.3785 28.3418 20.2138 28.2733 20.042 28.273C19.8702 28.2733 19.7055 28.3418 19.5842 28.4634C19.4628 28.585 19.3946 28.7498 19.3946 28.9216V37.301C18.9524 36.8292 18.4181 36.453 17.8247 36.1959C17.2314 35.9388 16.5915 35.8061 15.9448 35.8061H13.001C12.8293 35.8061 12.6647 35.8744 12.5432 35.9958C12.4218 36.1172 12.3536 36.2818 12.3536 36.4535C12.3536 36.6254 12.4218 36.7901 12.5432 36.9117C12.6646 37.0333 12.8292 37.1018 13.001 37.1021H15.9448C16.7513 37.1029 17.532 37.3861 18.1513 37.9027C18.7706 38.4193 19.1894 39.1365 19.3348 39.9298H5.82552C5.72986 39.9295 5.6382 39.8913 5.57055 39.8237C5.50291 39.756 5.46474 39.6644 5.46443 39.5687V37.1033H10.2378C10.4096 37.103 10.5742 37.0345 10.6956 36.9129C10.817 36.7913 10.8852 36.6265 10.8852 36.4547C10.8852 36.3697 10.8684 36.2855 10.8359 36.2069C10.8033 36.1284 10.7557 36.057 10.6956 35.9969C10.6354 35.9368 10.5641 35.8891 10.4855 35.8566C10.407 35.824 10.3228 35.8073 10.2378 35.8073H5.46443V15.8251C5.46443 15.82 5.46545 15.8149 5.46741 15.8102C5.46937 15.8054 5.47226 15.8011 5.47589 15.7975C5.47952 15.7938 5.48383 15.791 5.48858 15.789C5.49332 15.787 5.49844 15.786 5.50357 15.786H10.6931C10.7782 15.786 10.8623 15.7693 10.9409 15.7367C11.0194 15.7042 11.0908 15.6565 11.1509 15.5964C11.211 15.5363 11.2587 15.4649 11.2912 15.3864C11.3238 15.3078 11.3405 15.2236 11.3405 15.1386C11.3405 14.9669 11.2723 14.8022 11.1509 14.6808C11.0295 14.5594 10.8649 14.4912 10.6931 14.4912H5.50357C5.14978 14.4915 4.81055 14.6321 4.56027 14.8822C4.31 15.1322 4.16908 15.4713 4.16847 15.8251V16.1206H1.4501C1.06459 16.1213 0.695066 16.2747 0.422581 16.5474C0.150095 16.8201 -0.00311394 17.1898 -0.00341797 17.5753V40.1735C-0.0022006 41.2296 0.417884 42.2421 1.16464 42.9888C1.91139 43.7356 2.92385 44.1557 3.97992 44.1569H36.0133C37.0693 44.1557 38.0818 43.7356 38.8285 42.9888C39.5753 42.2421 39.9954 41.2296 39.9966 40.1735V17.5753C39.9963 17.1898 39.8431 16.8201 39.5706 16.5474C39.2981 16.2747 38.9286 16.1213 38.5431 16.1206H38.5465ZM24.1392 37.1033H34.6184V39.5698C34.6181 39.6655 34.5799 39.7572 34.5123 39.8248C34.4446 39.8925 34.353 39.9306 34.2573 39.9309H20.7504C20.8958 39.1375 21.3148 38.4201 21.9343 37.9035C22.5538 37.3869 23.3348 37.1037 24.1415 37.1033H24.1392Z" fill="#16327A"/>
<path d="M11.4074 9.08737C11.5782 9.10338 11.7483 9.05098 11.8805 8.94168C12.0126 8.83237 12.096 8.67509 12.1123 8.50436C12.2977 6.53886 13.2087 4.7129 14.6674 3.38261C16.1342 2.03728 18.053 1.29233 20.0433 1.29551C22.1548 1.29764 24.1792 2.13703 25.6726 3.62961C27.166 5.12219 28.0066 7.14612 28.0099 9.25756C28.0136 10.899 27.5064 12.5009 26.5587 13.8411L26.5438 13.8641L22.3984 20.3175C22.3325 20.4206 22.297 20.5401 22.296 20.6625V21.5008C22.2957 21.5827 22.263 21.6612 22.2051 21.7192C22.1471 21.7771 22.0686 21.8098 21.9867 21.8101H21.9441L22.357 14.8082H23.0952C23.6004 14.8064 24.0845 14.6052 24.4422 14.2484C24.7998 13.8916 25.0022 13.408 25.0052 12.9028V12.8223C25.0046 12.3147 24.8027 11.8281 24.4438 11.4691C24.0849 11.1102 23.5982 10.9083 23.0906 10.9077C22.6037 10.9094 22.1357 11.0964 21.7816 11.4306C21.4275 11.7648 21.2138 12.2213 21.184 12.7073L21.1357 13.518H18.8646L18.8164 12.7073C18.7871 12.2201 18.573 11.7624 18.2179 11.4276C17.8627 11.0927 17.3933 10.906 16.9052 10.9054C16.3972 10.906 15.9102 11.1082 15.5512 11.4677C15.1922 11.8271 14.9906 12.3143 14.9906 12.8223V12.9005C14.9909 13.4083 15.1926 13.8952 15.5516 14.2544C15.9106 14.6136 16.3974 14.8157 16.9052 14.8163H17.6423L18.0551 21.8135C17.9817 21.803 17.9146 21.7665 17.866 21.7105C17.8175 21.6545 17.7907 21.5829 17.7906 21.5088V20.6705C17.7896 20.5482 17.7541 20.4286 17.6883 20.3255L13.5428 13.8722L13.5278 13.8492C12.9336 13.0085 12.5097 12.0596 12.2802 11.056C12.2416 10.8888 12.1381 10.7437 11.9926 10.6527C11.847 10.5617 11.6713 10.5322 11.504 10.5708C11.4211 10.5898 11.3427 10.6249 11.2734 10.6742C11.204 10.7235 11.1451 10.786 11.0999 10.8581C11.0548 10.9301 11.0242 11.0104 11.0101 11.0943C10.996 11.1782 10.9985 11.2641 11.0176 11.347C11.2839 12.5094 11.7741 13.6089 12.4607 14.584L16.4958 20.866V21.5146C16.496 21.8254 16.5865 22.1295 16.7563 22.3898C16.9262 22.6501 17.1681 22.8554 17.4525 22.9807V24.0766C17.4546 24.6297 17.6756 25.1594 18.0671 25.55C18.4586 25.9407 18.9889 26.1605 19.542 26.1614H20.5447C21.0988 26.1605 21.6301 25.9399 22.0219 25.5481C22.4138 25.1562 22.6343 24.625 22.6352 24.0708V22.975C22.9192 22.8489 23.1605 22.6435 23.3303 22.3833C23.5001 22.1232 23.5909 21.8195 23.592 21.5088V20.8603L27.6259 14.5782C28.7232 13.0214 29.3102 11.1623 29.3059 9.25756C29.3029 6.802 28.326 4.44791 26.5896 2.71167C24.8531 0.975435 22.4989 -0.00116341 20.0433 -0.00390211C17.7292 -0.00609188 15.4985 0.86017 13.7924 2.42358C12.097 3.97078 11.0385 6.09388 10.8232 8.37902C10.8152 8.46369 10.8239 8.54912 10.8489 8.63041C10.8739 8.7117 10.9147 8.78726 10.969 8.85274C11.0233 8.91823 11.0899 8.97237 11.1651 9.01204C11.2404 9.05171 11.3227 9.07613 11.4074 9.08392V9.08737ZM22.4754 12.7878C22.485 12.6302 22.5544 12.4822 22.6693 12.3739C22.7843 12.2655 22.9361 12.2051 23.094 12.2048C23.2583 12.2051 23.4158 12.2705 23.532 12.3867C23.6482 12.5028 23.7136 12.6603 23.7139 12.8246V12.9028C23.7136 13.0671 23.6482 13.2246 23.532 13.3407C23.4158 13.4569 23.2583 13.5223 23.094 13.5226H22.4328L22.4754 12.7878ZM16.904 13.5226C16.7397 13.5223 16.5823 13.4569 16.4661 13.3407C16.3499 13.2246 16.2845 13.0671 16.2842 12.9028V12.8223C16.2845 12.658 16.3499 12.5005 16.4661 12.3844C16.5823 12.2682 16.7397 12.2028 16.904 12.2025C17.0619 12.2028 17.2138 12.2632 17.3288 12.3716C17.4437 12.4799 17.513 12.6279 17.5227 12.7855L17.5652 13.5203L16.904 13.5226ZM21.0587 14.8186L20.6458 21.8204H19.3522L18.9394 14.8186H21.0587ZM21.3381 24.0731C21.3378 24.2839 21.2541 24.4859 21.1051 24.6351C20.9562 24.7842 20.7543 24.8683 20.5435 24.8689H19.5408C19.33 24.8683 19.1281 24.7842 18.9792 24.6351C18.8303 24.4859 18.7465 24.2839 18.7462 24.0731V23.1153H21.3381V24.0731Z" fill="#16327A"/>
<path d="M31.3892 4.9183C31.5464 4.91868 31.6982 4.8614 31.8159 4.75731L33.2302 3.51655C33.2949 3.46024 33.3477 3.39168 33.3857 3.31483C33.4237 3.23798 33.446 3.15436 33.4515 3.06881C33.4569 2.98327 33.4453 2.89749 33.4174 2.81644C33.3895 2.73539 33.3459 2.66067 33.2889 2.59661C33.1753 2.46779 33.0153 2.38928 32.8439 2.37828C32.6726 2.36729 32.5038 2.42471 32.3747 2.53796L30.9614 3.77873C30.8966 3.83487 30.8436 3.90334 30.8054 3.98015C30.7672 4.05697 30.7447 4.1406 30.7392 4.22619C30.7336 4.31179 30.7451 4.39763 30.773 4.47874C30.8009 4.55985 30.8446 4.6346 30.9016 4.69866C30.9627 4.76777 31.0377 4.82311 31.1218 4.86097C31.2059 4.89884 31.297 4.91838 31.3892 4.9183Z" fill="#16327A"/>
<path d="M30.9618 8.82529L32.375 10.0661C32.4932 10.17 32.6454 10.2273 32.8028 10.227C32.895 10.2271 32.9861 10.2074 33.07 10.1694C33.1539 10.1313 33.2286 10.0757 33.2892 10.0063C33.3465 9.94234 33.3904 9.86765 33.4185 9.78657C33.4466 9.70549 33.4582 9.61963 33.4527 9.53399C33.4473 9.44836 33.4248 9.36467 33.3867 9.28781C33.3485 9.21095 33.2954 9.14246 33.2305 9.08632L31.8173 7.84555C31.7534 7.7894 31.679 7.74641 31.5985 7.71902C31.5179 7.69164 31.4327 7.6804 31.3478 7.68595C31.2629 7.6915 31.1799 7.71375 31.1036 7.75139C31.0273 7.78904 30.9592 7.84135 30.9031 7.90535C30.846 7.96934 30.8022 8.04404 30.7742 8.12511C30.7462 8.20618 30.7346 8.29199 30.7401 8.37758C30.7455 8.46317 30.7679 8.54682 30.806 8.62368C30.8441 8.70054 30.897 8.76907 30.9618 8.82529Z" fill="#16327A"/>
<path d="M6.85584 3.51605L8.27027 4.75681C8.38809 4.86071 8.53981 4.91797 8.69689 4.9178C8.78907 4.91773 8.88017 4.89813 8.96421 4.86027C9.04826 4.82241 9.1233 4.76715 9.18443 4.69816C9.24146 4.6341 9.28523 4.55934 9.31312 4.47823C9.34102 4.39712 9.35249 4.31128 9.34692 4.22569C9.34136 4.1401 9.31883 4.05646 9.28067 3.97965C9.24251 3.90283 9.18948 3.83436 9.12463 3.77822L7.71137 2.53746C7.64752 2.48124 7.57325 2.43816 7.49273 2.41068C7.41221 2.3832 7.32704 2.37186 7.24214 2.3773C7.15724 2.38275 7.07424 2.40488 6.99789 2.44242C6.92155 2.47997 6.85337 2.53219 6.79722 2.59611C6.74026 2.66017 6.69654 2.73489 6.66864 2.81594C6.64074 2.89699 6.62916 2.98276 6.63461 3.06831C6.64007 3.15386 6.66245 3.23747 6.70042 3.31432C6.73839 3.39118 6.79121 3.45974 6.85584 3.51605Z" fill="#16327A"/>
<path d="M7.28363 10.2275C7.44107 10.2278 7.59315 10.1705 7.71137 10.0666L9.12463 8.82579C9.18934 8.76956 9.24226 8.70106 9.28033 8.62425C9.3184 8.54744 9.34091 8.46384 9.34647 8.37829C9.35203 8.29275 9.34054 8.20695 9.31273 8.12586C9.28492 8.04477 9.24132 7.96999 9.18443 7.90585C9.07102 7.77687 8.91112 7.69814 8.73973 7.68693C8.56835 7.67572 8.39952 7.73294 8.27027 7.84606L6.85584 9.08683C6.79121 9.14313 6.73839 9.21169 6.70042 9.28855C6.66245 9.3654 6.64007 9.44901 6.63461 9.53456C6.62916 9.62011 6.64074 9.70588 6.66864 9.78693C6.69654 9.86798 6.74026 9.9427 6.79722 10.0068C6.85783 10.0762 6.93258 10.1318 7.01648 10.1699C7.10038 10.2079 7.19149 10.2276 7.28363 10.2275Z" fill="#16327A"/>
<path d="M14.311 22.4687C14.311 22.297 14.2428 22.1323 14.1214 22.0109C14 21.8895 13.8353 21.8213 13.6636 21.8213H7.28265C7.11094 21.8213 6.94628 21.8895 6.82487 22.0109C6.70346 22.1323 6.63525 22.297 6.63525 22.4687C6.63525 22.6404 6.70346 22.8051 6.82487 22.9265C6.94628 23.0479 7.11094 23.1161 7.28265 23.1161H13.6636C13.8353 23.1161 14 23.0479 14.1214 22.9265C14.2428 22.8051 14.311 22.6404 14.311 22.4687Z" fill="#16327A"/>
<path d="M15.6376 25.1152H8.45404C8.36888 25.1151 8.28455 25.1318 8.20586 25.1643C8.12717 25.1969 8.05569 25.2446 7.99553 25.3049C7.93537 25.3652 7.88768 25.4368 7.85527 25.5155C7.82286 25.5943 7.80634 25.6786 7.80664 25.7638C7.80649 25.8488 7.82312 25.9331 7.85561 26.0117C7.88809 26.0903 7.93577 26.1618 7.99592 26.2219C8.05607 26.2821 8.12753 26.3297 8.20614 26.3622C8.28476 26.3947 8.36898 26.4113 8.45404 26.4112H15.6376C15.8093 26.4112 15.974 26.343 16.0954 26.2216C16.2168 26.1002 16.285 25.9355 16.285 25.7638C16.2852 25.6787 16.2685 25.5944 16.236 25.5157C16.2036 25.437 16.1559 25.3655 16.0958 25.3053C16.0357 25.245 15.9642 25.1972 15.8856 25.1646C15.807 25.132 15.7227 25.1152 15.6376 25.1152Z" fill="#16327A"/>
<path d="M15.6376 28.2705H8.45403C8.36892 28.2705 8.28465 28.2873 8.20603 28.3199C8.1274 28.3525 8.05599 28.4003 7.99586 28.4605C7.93573 28.5208 7.88807 28.5923 7.8556 28.671C7.82314 28.7496 7.80649 28.8339 7.80664 28.9191C7.80649 29.0041 7.82312 29.0884 7.8556 29.167C7.88808 29.2456 7.93577 29.317 7.99592 29.3772C8.05607 29.4373 8.12752 29.485 8.20614 29.5175C8.28475 29.55 8.36897 29.5666 8.45403 29.5665H15.6376C15.8093 29.5665 15.974 29.4983 16.0954 29.3768C16.2168 29.2554 16.285 29.0908 16.285 28.9191C16.285 28.7472 16.2168 28.5825 16.0954 28.4609C15.9741 28.3393 15.8094 28.2708 15.6376 28.2705Z" fill="#16327A"/>
<path d="M15.6376 31.4277H8.45404C8.36898 31.4276 8.28476 31.4442 8.20614 31.4767C8.12753 31.5092 8.05607 31.5569 7.99592 31.617C7.93577 31.6772 7.88809 31.7486 7.85561 31.8272C7.82312 31.9058 7.80649 31.9901 7.80664 32.0751C7.80634 32.1603 7.82286 32.2447 7.85527 32.3234C7.88768 32.4022 7.93537 32.4737 7.99553 32.534C8.05569 32.5943 8.12717 32.6421 8.20586 32.6746C8.28455 32.7072 8.36888 32.7239 8.45404 32.7237H15.6376C15.7227 32.7237 15.807 32.7069 15.8856 32.6743C15.9642 32.6417 16.0357 32.5939 16.0958 32.5337C16.1559 32.4734 16.2036 32.4019 16.236 32.3232C16.2685 32.2446 16.2852 32.1603 16.285 32.0751C16.285 31.9034 16.2168 31.7388 16.0954 31.6174C15.974 31.4959 15.8093 31.4277 15.6376 31.4277Z" fill="#16327A"/>
<path d="M33.4501 22.4687C33.4501 22.297 33.3819 22.1323 33.2605 22.0109C33.1391 21.8895 32.9744 21.8213 32.8027 21.8213H26.4218C26.3368 21.8213 26.2526 21.838 26.1741 21.8706C26.0955 21.9031 26.0241 21.9508 25.964 22.0109C25.9039 22.071 25.8562 22.1424 25.8237 22.2209C25.7912 22.2995 25.7744 22.3837 25.7744 22.4687C25.7744 22.5537 25.7912 22.6379 25.8237 22.7164C25.8562 22.795 25.9039 22.8664 25.964 22.9265C26.0241 22.9866 26.0955 23.0343 26.1741 23.0668C26.2526 23.0994 26.3368 23.1161 26.4218 23.1161H32.8027C32.9744 23.1161 33.1391 23.0479 33.2605 22.9265C33.3819 22.8051 33.4501 22.6404 33.4501 22.4687Z" fill="#16327A"/>
<path d="M31.6322 25.1152H24.4487C24.3636 25.1152 24.2793 25.132 24.2007 25.1646C24.1221 25.1972 24.0506 25.245 23.9905 25.3053C23.9304 25.3655 23.8827 25.437 23.8502 25.5157C23.8178 25.5944 23.8011 25.6787 23.8013 25.7638C23.8013 25.9355 23.8695 26.1002 23.9909 26.2216C24.1124 26.343 24.277 26.4112 24.4487 26.4112H31.6322C31.8041 26.4112 31.9689 26.343 32.0905 26.2216C32.2121 26.1003 32.2805 25.9356 32.2808 25.7638C32.2808 25.6786 32.2641 25.5943 32.2315 25.5156C32.1989 25.4369 32.1511 25.3654 32.0909 25.3052C32.0306 25.245 31.9592 25.1972 31.8805 25.1646C31.8018 25.132 31.7174 25.1152 31.6322 25.1152Z" fill="#16327A"/>
<path d="M31.6322 28.2705H24.4487C24.2769 28.2708 24.1122 28.3393 23.9908 28.4609C23.8694 28.5825 23.8013 28.7472 23.8013 28.9191C23.8013 29.0908 23.8695 29.2554 23.9909 29.3768C24.1124 29.4983 24.277 29.5665 24.4487 29.5665H31.6322C31.8041 29.5665 31.9689 29.4983 32.0905 29.3769C32.2121 29.2555 32.2805 29.0909 32.2808 28.9191C32.2805 28.7471 32.2121 28.5824 32.0905 28.4608C31.969 28.3392 31.8042 28.2708 31.6322 28.2705Z" fill="#16327A"/>
<path d="M31.6322 31.4277H24.4487C24.277 31.4277 24.1124 31.4959 23.9909 31.6174C23.8695 31.7388 23.8013 31.9034 23.8013 32.0751C23.8011 32.1603 23.8178 32.2446 23.8502 32.3232C23.8827 32.4019 23.9304 32.4734 23.9905 32.5337C24.0506 32.5939 24.1221 32.6417 24.2007 32.6743C24.2793 32.7069 24.3636 32.7237 24.4487 32.7237H31.6322C31.7174 32.7237 31.8018 32.7069 31.8805 32.6743C31.9592 32.6417 32.0306 32.594 32.0909 32.5337C32.1511 32.4735 32.1989 32.402 32.2315 32.3233C32.2641 32.2446 32.2808 32.1603 32.2808 32.0751C32.2805 31.9033 32.2121 31.7387 32.0905 31.6173C31.9689 31.4959 31.8041 31.4277 31.6322 31.4277Z" fill="#16327A"/>
</g>
<defs>
<clipPath id="clip0_724_675">
<rect width="40" height="44.157" fill="white"/>
</clipPath>
</defs>
</svg>
