<svg width="40" height="41" viewBox="0 0 40 41" fill="none" xmlns="http://www.w3.org/2000/svg">
<g clip-path="url(#clip0_724_700)">
<path d="M24.0325 7.25946H22.0163V5.24333C22.0163 5.0651 21.9455 4.89416 21.8195 4.76813C21.6935 4.64209 21.5225 4.57129 21.3443 4.57129H18.6561C18.4779 4.57129 18.3069 4.64209 18.1809 4.76813C18.0549 4.89416 17.9841 5.0651 17.9841 5.24333V7.25946H15.9679C15.7897 7.25946 15.6188 7.33026 15.4927 7.4563C15.3667 7.58233 15.2959 7.75327 15.2959 7.9315V10.6197C15.2959 10.7979 15.3667 10.9689 15.4927 11.0949C15.6188 11.2209 15.7897 11.2917 15.9679 11.2917H17.9841V13.3078C17.9841 13.4861 18.0549 13.657 18.1809 13.7831C18.3069 13.9091 18.4779 13.9799 18.6561 13.9799H21.3443C21.5225 13.9799 21.6935 13.9091 21.8195 13.7831C21.9455 13.657 22.0163 13.4861 22.0163 13.3078V11.2917H24.0325C24.2107 11.2917 24.3816 11.2209 24.5077 11.0949C24.6337 10.9689 24.7045 10.7979 24.7045 10.6197V7.9315C24.7045 7.75327 24.6337 7.58233 24.5077 7.4563C24.3816 7.33026 24.2107 7.25946 24.0325 7.25946ZM23.3604 9.94763H21.3443C21.166 9.94763 20.9951 10.0184 20.8691 10.1445C20.743 10.2705 20.6722 10.4414 20.6722 10.6197V12.6358H19.3282V10.6197C19.3282 10.4414 19.2574 10.2705 19.1313 10.1445C19.0053 10.0184 18.8344 9.94763 18.6561 9.94763H16.64V8.60355H18.6561C18.8344 8.60355 19.0053 8.53274 19.1313 8.40671C19.2574 8.28068 19.3282 8.10974 19.3282 7.9315V5.91537H20.6722V7.9315C20.6722 8.10974 20.743 8.28068 20.8691 8.40671C20.9951 8.53274 21.166 8.60355 21.3443 8.60355H23.3604V9.94763Z" fill="#16327A"/>
<path d="M38.636 10.8612C38.6494 10.7429 38.6561 10.624 38.6562 10.505C38.6529 9.88897 38.4392 9.29257 38.0505 8.81465C37.6618 8.33674 37.1215 8.00601 36.519 7.8773C35.8376 7.7477 35.1324 7.88172 34.5461 8.25225C33.9597 8.62279 33.5359 9.20219 33.3604 9.87326L30.4035 18.3858C30.3599 18.4037 30.3172 18.4239 30.2758 18.4463L24.3394 21.9275C23.4304 22.4615 22.6764 23.2235 22.1519 24.1381C21.6275 25.0527 21.3506 26.0882 21.3488 27.1425V33.4732C21.1706 33.4732 20.9996 33.544 20.8736 33.67C20.7476 33.796 20.6768 33.967 20.6768 34.1452V39.5216C20.6768 39.6998 20.7476 39.8707 20.8736 39.9968C20.9996 40.1228 21.1706 40.1936 21.3488 40.1936H30.7574C30.9356 40.1936 31.1066 40.1228 31.2326 39.9968C31.3586 39.8707 31.4294 39.6998 31.4294 39.5216V34.1452C31.4294 33.967 31.3586 33.796 31.2326 33.67C31.1066 33.544 30.9356 33.4732 30.7574 33.4732V31.9947C30.7588 31.7109 30.8192 31.4304 30.9349 31.1712C31.0506 30.9121 31.2191 30.6798 31.4294 30.4893L35.9725 26.4503C36.4695 26.0156 36.8252 25.4422 36.994 24.8038L39.9061 13.8966C39.9688 13.6689 40.0004 13.4338 40.0002 13.1976C39.9976 12.7234 39.8702 12.2581 39.6307 11.8488C39.3912 11.4394 39.0481 11.1003 38.636 10.8656V10.8612ZM34.644 10.2698C34.7264 9.92211 34.9368 9.6183 35.2333 9.41897C35.5298 9.21965 35.8905 9.13949 36.2435 9.1945C36.5447 9.25759 36.8152 9.42214 37.0097 9.66066C37.2042 9.89919 37.3109 10.1972 37.3121 10.505V10.5184C36.7117 10.5294 36.1314 10.7362 35.6595 11.1075C35.1875 11.4787 34.8498 11.994 34.6978 12.5749L32.8228 18.3612C32.5403 18.2271 32.2375 18.1409 31.9268 18.1058L34.644 10.2698ZM30.0809 38.845H22.0164V34.8128H30.0809V38.845ZM38.6091 13.5426L35.6857 24.4566C35.5846 24.8358 35.3742 25.177 35.0809 25.4378L30.5311 29.4768C30.1797 29.7946 29.8985 30.1823 29.7056 30.6152C29.5127 31.048 29.4124 31.5163 29.4111 31.9902V33.4687H22.6906V27.1381C22.6948 26.3193 22.911 25.5156 23.3181 24.8052C23.7252 24.0948 24.3093 23.502 25.0137 23.0845L30.9501 19.6123C31.103 19.5231 31.2721 19.465 31.4476 19.4414C31.6231 19.4177 31.8016 19.429 31.9727 19.4745C32.1438 19.5201 32.3043 19.5991 32.4448 19.707C32.5853 19.8148 32.7031 19.9494 32.7914 20.1029C32.9662 20.4133 33.0144 20.7793 32.9259 21.1244C32.8792 21.2948 32.7994 21.4543 32.691 21.5939C32.5826 21.7334 32.4477 21.8502 32.2941 21.9376L28.4433 24.162C28.2968 24.2546 28.1916 24.4002 28.1499 24.5684C28.1082 24.7366 28.133 24.9145 28.2193 25.0648C28.306 25.2157 28.4478 25.3271 28.6149 25.3755C28.782 25.424 28.9614 25.4058 29.1154 25.3247L32.9662 23.1002C33.2741 22.9257 33.5439 22.6913 33.7598 22.4108C33.9756 22.1303 34.1331 21.8095 34.2229 21.4671C34.4064 20.7795 34.3097 20.0473 33.9541 19.4308L33.9138 19.3704L35.9904 12.9658C36.0727 12.6181 36.2831 12.3143 36.5796 12.115C36.8761 11.9157 37.2368 11.8355 37.5898 11.8905C37.8911 11.9536 38.1615 12.1182 38.356 12.3567C38.5505 12.5952 38.6572 12.8932 38.6584 13.201C38.6606 13.3192 38.6448 13.4371 38.6114 13.5505L38.6091 13.5426Z" fill="#16327A"/>
<path d="M18.6558 33.4686V27.138C18.654 26.0837 18.3772 25.0481 17.8527 24.1335C17.3282 23.2189 16.5743 22.457 15.6653 21.9229L9.72889 18.435C9.68857 18.4149 9.64151 18.4014 9.60119 18.3812L6.66434 9.92023C6.49393 9.23914 6.07029 8.64864 5.47967 8.26905C4.88906 7.88946 4.17592 7.74933 3.48559 7.87722C2.88316 8.00593 2.34282 8.33666 1.95413 8.81457C1.56544 9.29249 1.35174 9.88889 1.34848 10.5049C1.3485 10.6239 1.35525 10.7428 1.36866 10.8611C0.956663 11.0959 0.61368 11.4351 0.374215 11.8444C0.13475 12.2537 0.00721301 12.7189 0.00439453 13.1931C0.00653662 13.4286 0.035883 13.6632 0.0917907 13.892L3.01513 24.7925C3.18241 25.4335 3.53829 26.0094 4.03665 26.4458L8.57294 30.4847C8.7856 30.6738 8.95597 30.9056 9.07293 31.165C9.18989 31.4244 9.25082 31.7056 9.25171 31.9901V33.4686C9.07348 33.4686 8.90253 33.5394 8.7765 33.6655C8.65047 33.7915 8.57967 33.9624 8.57967 34.1407V39.517C8.57967 39.6952 8.65047 39.8662 8.7765 39.9922C8.90253 40.1182 9.07348 40.189 9.25171 40.189H18.6603C18.8386 40.189 19.0095 40.1182 19.1355 39.9922C19.2616 39.8662 19.3324 39.6952 19.3324 39.517V34.1407C19.3324 33.9624 19.2616 33.7915 19.1355 33.6655C19.0095 33.5394 18.8386 33.4686 18.6603 33.4686H18.6558ZM2.68808 10.5071C2.68891 10.2003 2.79468 9.90301 2.98784 9.66462C3.181 9.42622 3.44992 9.26109 3.74991 9.19666C4.11214 9.14485 4.48062 9.23133 4.78198 9.43888C5.08334 9.64643 5.2955 9.95984 5.37625 10.3167L8.07788 18.1057C7.7672 18.1411 7.46447 18.2274 7.18182 18.3611L5.32025 12.6084C5.16865 12.0219 4.83024 11.5007 4.35616 11.1237C3.88208 10.7466 3.29812 10.5341 2.69257 10.5183L2.68808 10.5071ZM9.46227 29.4789L4.91926 25.4366C4.62452 25.1742 4.41408 24.8305 4.31443 24.4487L1.38436 13.5414C1.35641 13.4271 1.34282 13.3097 1.344 13.192C1.34482 12.8851 1.4506 12.5878 1.64376 12.3494C1.83692 12.111 2.10584 11.9459 2.40582 11.8815C2.76592 11.8276 3.13308 11.912 3.43352 12.1177C3.73396 12.3234 3.94542 12.6351 4.02544 12.9903L6.08866 19.3613L6.0483 19.4218C5.6934 20.0385 5.59678 20.7704 5.77949 21.4581C5.87024 21.8009 6.02867 22.1221 6.24546 22.4028C6.46225 22.6834 6.73302 22.9179 7.04181 23.0923L10.8926 25.3167C11.0465 25.3979 11.226 25.4161 11.3931 25.3676C11.5602 25.3192 11.702 25.2078 11.7887 25.0569C11.875 24.9066 11.8998 24.7287 11.8581 24.5605C11.8163 24.3922 11.7112 24.2466 11.5646 24.1541L7.71386 21.9296C7.56028 21.8423 7.42542 21.7255 7.31702 21.5859C7.20862 21.4464 7.1288 21.2869 7.08212 21.1165C6.9936 20.7714 7.04177 20.4054 7.21655 20.095C7.39394 19.7858 7.68684 19.5598 8.03085 19.4666C8.2012 19.4204 8.379 19.4081 8.55407 19.4306C8.72915 19.4531 8.89807 19.5099 9.05122 19.5976L14.9876 23.0788C15.6933 23.4964 16.2786 24.0899 16.6861 24.8014C17.0937 25.5129 17.3097 26.318 17.3129 27.138V33.4686H10.5925V31.9901C10.5912 31.5154 10.49 31.0463 10.2954 30.6132C10.1009 30.1802 9.81745 29.7929 9.46342 29.4767L9.46227 29.4789ZM17.9838 38.8472H9.91927V34.8149H17.9838V38.8472Z" fill="#16327A"/>
<path d="M29.5081 1.97133C28.8839 1.34643 28.1428 0.850679 27.3269 0.512424C26.5111 0.174169 25.6365 4.11812e-05 24.7533 4.15101e-09C23.8703 0.000335381 22.9959 0.17471 22.1803 0.513155C21.3646 0.8516 20.6237 1.34748 19.9998 1.97245C19.3761 1.34718 18.6352 0.851109 17.8195 0.512643C17.0038 0.174177 16.1293 -3.10499e-05 15.2462 4.15101e-09C14.3632 0.000116269 13.489 0.174396 12.6735 0.512858C11.858 0.85132 11.1172 1.34732 10.4937 1.97245C9.23518 3.23253 8.52832 4.94063 8.52832 6.72155C8.52832 8.50247 9.23518 10.2106 10.4937 11.4707L19.526 20.5029C19.652 20.6288 19.8228 20.6995 20.0009 20.6995C20.179 20.6995 20.3498 20.6288 20.4758 20.5029L29.5081 11.4707C30.7669 10.2105 31.474 8.50218 31.474 6.72099C31.474 4.9398 30.7669 3.23146 29.5081 1.97133ZM19.9998 19.0771L11.4424 10.5208C10.6912 9.7685 10.1799 8.81032 9.97315 7.76743C9.7664 6.72454 9.87348 5.64376 10.2809 4.66174C10.6882 3.67972 11.3776 2.8405 12.2617 2.25018C13.1459 1.65986 14.1853 1.34493 15.2484 1.34521C15.9548 1.34271 16.6546 1.48098 17.3069 1.75195C17.9592 2.02292 18.551 2.42115 19.0477 2.92339L19.5248 3.40054C19.6509 3.52639 19.8217 3.59708 19.9998 3.59708C20.1778 3.59708 20.3487 3.52639 20.4747 3.40054L20.9541 2.92227C21.4531 2.42261 22.0457 2.02617 22.6979 1.75557C23.3502 1.48498 24.0494 1.34553 24.7556 1.34521C25.4618 1.34568 26.1611 1.4853 26.8134 1.75609C27.4656 2.02688 28.0582 2.42353 28.5571 2.92339C29.5636 3.93141 30.1289 5.29765 30.1289 6.72211C30.1289 8.14657 29.5636 9.51281 28.5571 10.5208L19.9998 19.0771Z" fill="#16327A"/>
</g>
<defs>
<clipPath id="clip0_724_700">
<rect width="40" height="40.1893" fill="white"/>
</clipPath>
</defs>
</svg>
