<svg width="40" height="43" viewBox="0 0 40 43" fill="none" xmlns="http://www.w3.org/2000/svg">
<g clip-path="url(#clip0_724_694)">
<path d="M28.6227 23.5136C27.6251 23.5141 26.6416 23.7487 25.7512 24.1986C24.8608 24.6485 24.0884 25.301 23.4962 26.1038L13.4904 20.9908C13.6622 20.407 13.7492 19.8016 13.7489 19.1932C13.7497 18.3737 13.5915 17.5619 13.2829 16.8027L23.7696 10.4991C24.3671 11.2032 25.1107 11.7688 25.9488 12.1566C26.7868 12.5445 27.6992 12.7452 28.6227 12.745C30.3127 12.7432 31.933 12.071 33.1281 10.8759C34.3231 9.68088 34.9953 8.0606 34.9972 6.37056C34.9951 4.68058 34.3228 3.06041 33.1278 1.86541C31.9328 0.670412 30.3127 -0.0018445 28.6227 -0.00390625C26.9327 -0.00203155 25.3124 0.670166 24.1173 1.8652C22.9223 3.06024 22.2501 4.68052 22.2482 6.37056C22.2474 7.15894 22.3937 7.94056 22.6796 8.67529L12.1667 14.9917C11.5693 14.3082 10.8326 13.7604 10.006 13.3852C9.17948 13.0099 8.28222 12.8158 7.37447 12.8159C5.68443 12.8177 4.06415 13.4899 2.86911 14.685C1.67407 15.88 1.00187 17.5003 1 19.1903C1.00187 20.8804 1.67407 22.5006 2.86911 23.6957C4.06415 24.8907 5.68443 25.5629 7.37447 25.5648C8.38827 25.5644 9.38736 25.3222 10.2888 24.8583C11.1902 24.3944 11.968 23.7222 12.5576 22.8974L22.5344 27.997C22.345 28.609 22.2495 29.2461 22.2511 29.8867C22.2529 31.5767 22.9251 33.197 24.1202 34.392C25.3152 35.5871 26.9355 36.2593 28.6255 36.2612C30.3156 36.2593 31.9359 35.5871 33.1309 34.392C34.3259 33.197 34.9981 31.5767 35 29.8867C34.9976 28.1965 34.3247 26.5762 33.1292 25.3814C31.9336 24.1867 30.3129 23.5149 28.6227 23.5136ZM28.6227 2.12375C29.7494 2.12506 30.8295 2.57321 31.6262 3.36989C32.4229 4.16657 32.871 5.24672 32.8723 6.37339C32.871 7.50007 32.4229 8.58022 31.6262 9.3769C30.8295 10.1736 29.7494 10.6217 28.6227 10.623C27.496 10.6219 26.4157 10.1738 25.619 9.37711C24.8223 8.58039 24.3742 7.50013 24.3731 6.37339C24.3744 5.24672 24.8225 4.16657 25.6192 3.36989C26.4159 2.57321 27.496 2.12506 28.6227 2.12375ZM7.37447 23.4428C6.24774 23.4417 5.16749 22.9936 4.37077 22.1969C3.57405 21.4001 3.12595 20.3199 3.12482 19.1932C3.12613 18.0665 3.57428 16.9863 4.37096 16.1897C5.16764 15.393 6.2478 14.9448 7.37447 14.9435C8.50114 14.9448 9.5813 15.393 10.378 16.1897C11.1747 16.9863 11.6228 18.0665 11.6241 19.1932C11.6228 20.3198 11.1747 21.4 10.378 22.1967C9.5813 22.9933 8.50114 23.4415 7.37447 23.4428ZM28.6227 34.1377C27.496 34.1366 26.4157 33.6885 25.619 32.8918C24.8223 32.0951 24.3742 31.0148 24.3731 29.8881C24.3744 28.7614 24.8225 27.6813 25.6192 26.8846C26.4159 26.0879 27.496 25.6398 28.6227 25.6385C29.7494 25.6398 30.8295 26.0879 31.6262 26.8846C32.4229 27.6813 32.871 28.7614 32.8723 29.8881C32.871 31.0148 32.4229 32.0949 31.6262 32.8916C30.8295 33.6883 29.7494 34.1364 28.6227 34.1377Z" fill="#16327A"/>
</g>
<defs>
<clipPath id="clip0_724_694">
<rect width="40" height="42.6667" fill="white"/>
</clipPath>
</defs>
</svg>
